M48
; DRILL file {KiCad (5.1.4)-1} date 2019/10/18 上午 12:22:08
; FORMAT={-:-/ absolute / metric / decimal}
; #@! TF.CreationDate,2019-10-18T00:22:08+08:00
; #@! TF.GenerationSoftware,Kicad,Pcbnew,(5.1.4)-1
FMAT,2
METRIC
T1C0.400
T2C0.508
T3C0.700
T4C0.762
T5C0.800
T6C0.900
T7C0.991
T8C1.090
T9C1.092
T10C1.499
T11C1.092
T12C1.200
T13C1.500
T14C1.702
T15C3.000
T16C3.048
T17C3.988
T18C6.375
%
G90
G05
T1
X111.501Y152.682
X111.501Y151.332
X112.351Y152.682
X112.351Y151.332
X113.201Y152.682
X113.201Y151.332
X114.051Y152.682
X114.051Y151.332
X114.901Y152.682
X114.901Y151.332
X115.751Y152.682
X115.751Y151.332
X116.601Y152.682
X116.601Y151.332
X117.451Y152.682
X117.451Y151.332
T2
X61.063Y138.369
X134.463Y133.469
X134.863Y138.169
X138.163Y132.369
X138.563Y134.469
T4
X156.053Y132.406
X158.273Y132.406
X160.823Y132.406
T5
X88.981Y155.406
X88.981Y145.246
X72.671Y155.413
X72.671Y145.253
X105.533Y155.527
X105.533Y145.367
X82.383Y155.405
X82.383Y145.245
X101.531Y155.528
X101.531Y145.368
X85.68Y155.407
X85.68Y145.247
X75.958Y155.406
X75.958Y145.246
T6
X52.319Y141.57
X52.319Y139.03
X52.32Y147.87
X52.32Y145.33
X52.319Y154.27
X52.319Y151.73
T7
X155.063Y111.589
X156.996Y92.552
X158.471Y73.488
X102.457Y62.255
X110.077Y62.255
X57.245Y104.662
X57.245Y97.042
X27.509Y2.986
X34.415Y6.206
X19.457Y20.253
X26.364Y23.473
X121.507Y79.707
X129.127Y79.707
X121.507Y117.806
X129.127Y117.806
X45.307Y116.534
X52.927Y116.534
X28.672Y45.567
X35.579Y48.787
X64.357Y78.436
X71.977Y78.436
X121.508Y98.757
X129.128Y98.757
X140.557Y38.431
X148.177Y38.431
X121.508Y60.656
X129.128Y60.656
X64.357Y97.487
X71.977Y97.487
X83.408Y41.606
X91.028Y41.606
X64.357Y116.534
X71.977Y116.534
X64.357Y59.386
X71.977Y59.386
X140.557Y76.531
X148.177Y76.531
X140.557Y114.63
X148.177Y114.63
X83.407Y117.807
X91.027Y117.807
X63.786Y43.586
X67.006Y36.68
X83.407Y79.706
X91.027Y79.706
X140.557Y95.582
X148.177Y95.582
X159.607Y38.431
X167.227Y38.431
X140.557Y57.481
X148.177Y57.481
X83.407Y98.757
X91.027Y98.757
X102.457Y43.204
X110.077Y43.204
X110.646Y148.462
X113.186Y148.462
X115.726Y148.462
X118.266Y148.462
X83.407Y60.656
X91.027Y60.656
X164.438Y76.531
X172.058Y76.531
X46.522Y35.533
X49.742Y28.627
X164.437Y114.629
X172.057Y114.629
X102.457Y81.305
X110.077Y81.305
X102.458Y119.404
X110.078Y119.404
X164.437Y95.582
X172.057Y95.582
X57.245Y76.088
X57.245Y68.468
X11.408Y37.516
X18.314Y40.737
X164.437Y57.482
X172.057Y57.482
X102.457Y100.355
X110.077Y100.355
X121.507Y41.606
X129.127Y41.606
T8
X166.593Y154.837
T9
X138.637Y151.053
X138.637Y143.433
X141.177Y151.053
X141.177Y143.433
X143.717Y151.053
X143.717Y143.433
X146.257Y151.053
X146.257Y143.433
X148.797Y151.053
X148.797Y143.433
X151.337Y151.053
X151.337Y143.433
X153.877Y151.053
X153.877Y143.433
X156.417Y151.053
X156.417Y143.433
X158.957Y151.053
X158.957Y143.433
X161.497Y151.053
X164.037Y151.053
X166.577Y151.053
X169.117Y151.053
X169.117Y143.433
X171.657Y151.053
X171.657Y143.433
X138.653Y154.837
X138.653Y139.597
X141.193Y154.837
X141.193Y139.597
X143.733Y154.837
X143.733Y139.597
X146.273Y154.837
X146.273Y139.597
X148.813Y154.837
X148.813Y139.597
X151.353Y154.837
X151.353Y139.597
X153.893Y154.837
X153.893Y139.597
X156.433Y154.837
X156.433Y139.597
X158.973Y154.837
X158.973Y139.597
X161.513Y154.837
X161.513Y139.597
X164.053Y154.837
X164.053Y139.597
X166.593Y139.597
T10
X45.307Y122.122
X46.577Y119.582
X51.657Y119.582
X52.927Y122.122
X26.311Y50.631
X28.535Y48.866
X33.139Y51.013
X33.217Y53.852
X64.357Y84.024
X65.627Y81.484
X70.707Y81.484
X71.977Y84.024
X121.508Y104.345
X122.778Y101.805
X127.858Y101.805
X129.128Y104.345
X140.557Y44.019
X141.827Y41.479
X146.907Y41.479
X148.177Y44.019
X121.508Y66.244
X122.778Y63.704
X127.858Y63.704
X129.128Y66.244
X64.357Y103.075
X65.627Y100.535
X70.707Y100.535
X71.977Y103.075
X83.408Y47.194
X84.678Y44.654
X89.758Y44.654
X91.028Y47.194
X64.357Y122.122
X65.627Y119.582
X70.707Y119.582
X71.977Y122.122
X64.357Y64.974
X65.627Y62.434
X70.707Y62.434
X71.977Y64.974
X140.557Y82.119
X141.827Y79.579
X146.907Y79.579
X148.177Y82.119
X140.557Y120.218
X141.827Y117.678
X146.907Y117.678
X148.177Y120.218
X83.407Y123.395
X84.677Y120.855
X89.757Y120.855
X91.027Y123.395
X58.722Y41.224
X61.56Y41.147
X61.942Y34.318
X63.707Y36.543
X83.407Y85.294
X84.677Y82.754
X89.757Y82.754
X91.027Y85.294
X140.557Y101.17
X141.827Y98.63
X146.907Y98.63
X148.177Y101.17
X159.607Y44.019
X160.877Y41.479
X165.957Y41.479
X167.227Y44.019
X140.557Y63.069
X141.827Y60.529
X146.907Y60.529
X148.177Y63.069
X83.407Y104.345
X84.677Y101.805
X89.757Y101.805
X91.027Y104.345
X102.457Y48.792
X103.727Y46.252
X108.807Y46.252
X110.077Y48.792
X83.407Y66.244
X84.677Y63.704
X89.757Y63.704
X91.027Y66.244
X164.438Y82.119
X165.708Y79.579
X170.788Y79.579
X172.058Y82.119
X41.458Y33.172
X44.296Y33.094
X44.678Y26.266
X46.443Y28.49
X164.437Y120.217
X165.707Y117.677
X170.787Y117.677
X172.057Y120.217
X102.457Y86.893
X103.727Y84.353
X108.807Y84.353
X110.077Y86.893
X102.458Y124.992
X103.728Y122.452
X108.808Y122.452
X110.078Y124.992
X164.437Y101.17
X165.707Y98.63
X170.787Y98.63
X172.057Y101.17
X51.657Y76.088
X51.657Y68.468
X54.197Y74.818
X54.197Y69.738
X9.047Y42.581
X11.271Y40.815
X15.875Y42.962
X15.953Y45.801
X164.437Y63.07
X165.707Y60.53
X170.787Y60.53
X172.057Y63.07
X102.457Y105.943
X103.727Y103.403
X108.807Y103.403
X110.077Y105.943
X121.507Y47.194
X122.777Y44.654
X127.857Y44.654
X129.127Y47.194
X102.457Y67.843
X103.727Y65.303
X108.807Y65.303
X110.077Y67.843
X51.657Y104.662
X51.657Y97.042
X54.197Y103.392
X54.197Y98.312
X25.148Y8.05
X27.372Y6.285
X31.976Y8.432
X32.054Y11.27
X17.096Y25.317
X19.32Y23.552
X23.924Y25.699
X24.002Y28.537
X121.507Y85.295
X122.777Y82.755
X127.857Y82.755
X129.127Y85.295
X121.507Y123.394
X122.777Y120.854
X127.857Y120.854
X129.127Y123.394
T11
X161.497Y143.433
X164.037Y143.433
X166.577Y143.433
T12
X61.461Y154.384
X61.461Y147.384
X66.061Y154.384
X66.061Y147.384
T13
X61.463Y157.097
X61.463Y150.097
X66.063Y157.097
X66.063Y150.097
T14
X101.187Y70.383
X101.187Y70.383
X111.347Y70.383
X111.347Y70.383
X49.117Y105.932
X49.117Y105.932
X49.117Y95.772
X49.117Y95.772
X22.923Y9.815
X22.923Y9.815
X32.131Y14.109
X32.131Y14.109
X14.871Y27.082
X14.871Y27.082
X24.079Y31.376
X24.079Y31.376
X120.237Y87.835
X120.237Y87.835
X130.397Y87.835
X130.397Y87.835
X120.237Y125.934
X120.237Y125.934
X130.397Y125.934
X130.397Y125.934
X44.037Y124.662
X44.037Y124.662
X54.197Y124.662
X54.197Y124.662
X24.086Y52.396
X24.086Y52.396
X33.295Y56.69
X33.295Y56.69
X63.087Y86.564
X63.087Y86.564
X73.247Y86.564
X73.247Y86.564
X120.238Y106.885
X120.238Y106.885
X130.398Y106.885
X130.398Y106.885
X139.287Y46.559
X139.287Y46.559
X149.447Y46.559
X149.447Y46.559
X120.238Y68.784
X120.238Y68.784
X130.398Y68.784
X130.398Y68.784
X63.087Y105.615
X63.087Y105.615
X73.247Y105.615
X73.247Y105.615
X82.138Y49.734
X82.138Y49.734
X92.298Y49.734
X92.298Y49.734
X63.087Y124.662
X63.087Y124.662
X73.247Y124.662
X73.247Y124.662
X63.087Y67.514
X63.087Y67.514
X73.247Y67.514
X73.247Y67.514
X139.287Y84.659
X139.287Y84.659
X149.447Y84.659
X149.447Y84.659
X139.287Y122.758
X139.287Y122.758
X149.447Y122.758
X149.447Y122.758
X82.137Y125.935
X82.137Y125.935
X92.297Y125.935
X92.297Y125.935
X55.883Y41.302
X55.883Y41.302
X60.177Y32.094
X60.177Y32.094
X82.137Y87.834
X82.137Y87.834
X92.297Y87.834
X92.297Y87.834
X139.287Y103.71
X139.287Y103.71
X149.447Y103.71
X149.447Y103.71
X158.337Y46.559
X158.337Y46.559
X168.497Y46.559
X168.497Y46.559
X139.287Y65.609
X139.287Y65.609
X149.447Y65.609
X149.447Y65.609
X82.137Y106.885
X82.137Y106.885
X92.297Y106.885
X92.297Y106.885
X101.187Y51.332
X101.187Y51.332
X111.347Y51.332
X111.347Y51.332
X82.137Y68.784
X82.137Y68.784
X92.297Y68.784
X92.297Y68.784
X163.168Y84.659
X163.168Y84.659
X173.328Y84.659
X173.328Y84.659
X38.619Y33.249
X38.619Y33.249
X42.913Y24.041
X42.913Y24.041
X163.167Y122.757
X163.167Y122.757
X173.327Y122.757
X173.327Y122.757
X101.187Y89.433
X101.187Y89.433
X111.347Y89.433
X111.347Y89.433
X101.188Y127.532
X101.188Y127.532
X111.348Y127.532
X111.348Y127.532
X163.167Y103.71
X163.167Y103.71
X173.327Y103.71
X173.327Y103.71
X49.117Y77.358
X49.117Y77.358
X49.117Y67.198
X49.117Y67.198
X6.822Y44.346
X6.822Y44.346
X16.03Y48.64
X16.03Y48.64
X163.167Y65.61
X163.167Y65.61
X173.327Y65.61
X173.327Y65.61
X101.187Y108.483
X101.187Y108.483
X111.347Y108.483
X111.347Y108.483
X120.237Y49.734
X120.237Y49.734
X130.397Y49.734
X130.397Y49.734
T15
X164.437Y106.25
X165.707Y108.79
X170.787Y108.79
X172.057Y106.25
X44.037Y74.818
X44.037Y69.738
X46.577Y76.088
X46.577Y68.468
X6.9Y47.185
X6.977Y50.024
X11.581Y52.17
X13.806Y50.405
X164.437Y68.15
X165.707Y70.69
X170.787Y70.69
X172.057Y68.15
X102.457Y111.023
X103.727Y113.563
X108.807Y113.563
X110.077Y111.023
X121.507Y52.274
X122.777Y54.814
X127.857Y54.814
X129.127Y52.274
X102.457Y72.923
X103.727Y75.463
X108.807Y75.463
X110.077Y72.923
X44.037Y103.392
X44.037Y98.312
X46.577Y104.662
X46.577Y97.042
X23.001Y12.654
X23.078Y15.493
X27.682Y17.64
X29.907Y15.874
X14.949Y29.921
X15.027Y32.76
X19.631Y34.907
X21.855Y33.141
X121.507Y90.375
X122.777Y92.915
X127.857Y92.915
X129.127Y90.375
X121.507Y128.474
X122.777Y131.014
X127.857Y131.014
X129.127Y128.474
X45.307Y127.202
X46.577Y129.742
X51.657Y129.742
X52.927Y127.202
X24.164Y55.235
X24.242Y58.074
X28.846Y60.221
X31.07Y58.456
X64.357Y89.104
X65.627Y91.644
X70.707Y91.644
X71.977Y89.104
X121.508Y109.425
X122.778Y111.965
X127.858Y111.965
X129.128Y109.425
X140.557Y49.099
X141.827Y51.639
X146.907Y51.639
X148.177Y49.099
X121.508Y71.324
X122.778Y73.864
X127.858Y73.864
X129.128Y71.324
X64.357Y108.155
X65.627Y110.695
X70.707Y110.695
X71.977Y108.155
X83.408Y52.274
X84.678Y54.814
X89.758Y54.814
X91.028Y52.274
X64.357Y127.202
X65.627Y129.742
X70.707Y129.742
X71.977Y127.202
X64.357Y70.054
X65.627Y72.594
X70.707Y72.594
X71.977Y70.054
X140.557Y87.199
X141.827Y89.739
X146.907Y89.739
X148.177Y87.199
X140.557Y125.298
X141.827Y127.838
X146.907Y127.838
X148.177Y125.298
X83.407Y128.475
X84.677Y131.015
X89.757Y131.015
X91.027Y128.475
X52.352Y36.853
X54.118Y39.077
X54.499Y32.249
X57.338Y32.171
X83.407Y90.374
X84.677Y92.914
X89.757Y92.914
X91.027Y90.374
X140.557Y106.25
X141.827Y108.79
X146.907Y108.79
X148.177Y106.25
X159.607Y49.099
X160.877Y51.639
X165.957Y51.639
X167.227Y49.099
X140.557Y68.149
X141.827Y70.689
X146.907Y70.689
X148.177Y68.149
X83.407Y109.425
X84.677Y111.965
X89.757Y111.965
X91.027Y109.425
X102.457Y53.872
X103.727Y56.412
X108.807Y56.412
X110.077Y53.872
X83.407Y71.324
X84.677Y73.864
X89.757Y73.864
X91.027Y71.324
X164.438Y87.199
X165.708Y89.739
X170.788Y89.739
X172.058Y87.199
X35.088Y28.8
X36.854Y31.025
X37.235Y24.196
X40.074Y24.119
X164.437Y125.297
X165.707Y127.837
X170.787Y127.837
X172.057Y125.297
X102.457Y91.973
X103.727Y94.513
X108.807Y94.513
X110.077Y91.973
X102.458Y130.072
X103.728Y132.612
X108.808Y132.612
X110.078Y130.072
T16
X42.051Y42.417
X52.142Y20.778
X46.654Y44.565
X56.745Y22.926
T17
X87.217Y87.834
X144.367Y103.71
X163.417Y46.559
X60.466Y51.006
X70.557Y29.367
X144.367Y65.609
X87.217Y106.885
X106.267Y51.332
X87.217Y68.784
X168.248Y84.659
X40.766Y28.645
X168.247Y122.757
X106.267Y89.433
X106.268Y127.532
X168.247Y103.71
X49.117Y72.278
X11.426Y46.493
X168.247Y65.61
X106.267Y108.483
X125.317Y49.734
X106.267Y70.383
X49.117Y100.852
X27.527Y11.962
X19.475Y29.229
X125.317Y87.835
X125.317Y125.934
X49.117Y124.662
X28.69Y54.543
X28.239Y35.976
X38.329Y14.337
X68.167Y86.564
X125.318Y106.885
X144.367Y46.559
X125.318Y68.784
X68.167Y105.615
X87.218Y49.734
X68.167Y124.662
X68.167Y67.514
X144.367Y84.659
X144.367Y122.758
X87.217Y125.935
X58.03Y36.698
T18
X30.622Y23.882
X36.388Y68.053
X44.135Y152.584
X82.159Y31.959
X94.935Y152.584
X115.763Y98.126
X177.866Y152.584
X178.501Y49.663
T3
G00X58.261Y155.984
M15
G01X58.261Y155.384
M16
G05
G00X59.163Y147.697
M15
G01X59.163Y147.097
M16
G05
G00X59.263Y147.297
M15
G01X59.263Y146.697
M16
G05
G00X63.763Y155.797
M15
G01X63.763Y155.197
M16
G05
G00X63.763Y152.797
M15
G01X63.763Y152.197
M16
G05
G00X63.763Y148.797
M15
G01X63.763Y148.197
M16
G05
G00X68.263Y147.297
M15
G01X68.263Y146.697
M16
G05
G00X68.363Y147.697
M15
G01X68.363Y147.097
M16
G05
G00X69.261Y155.984
M15
G01X69.261Y155.384
M16
G05
G00X110.156Y156.432
M15
G01X110.156Y155.532
M16
G05
G00X110.156Y152.482
M15
G01X110.156Y151.182
M16
G05
G00X118.796Y156.432
M15
G01X118.796Y155.532
M16
G05
G00X118.796Y152.482
M15
G01X118.796Y151.182
M16
G05
T0
M30
