G04 #@! TF.GenerationSoftware,KiCad,Pcbnew,(5.1.4)-1*
G04 #@! TF.CreationDate,2019-10-18T00:21:39+08:00*
G04 #@! TF.ProjectId,ErgoDoxTW,4572676f-446f-4785-9457-2e6b69636164,rev?*
G04 #@! TF.SameCoordinates,PX15feaa0PYb4cd8c0*
G04 #@! TF.FileFunction,Profile,NP*
%FSLAX46Y46*%
G04 Gerber Fmt 4.6, Leading zero omitted, Abs format (unit mm)*
G04 Created by KiCad (PCBNEW (5.1.4)-1) date 2019-10-18 00:21:39*
%MOMM*%
%LPD*%
G04 APERTURE LIST*
%ADD10C,0.381000*%
G04 APERTURE END LIST*
D10*
X39338179Y68096340D02*
X34435981Y68096340D01*
X21492138Y1944580D02*
X25711080Y410421D01*
X25711080Y410421D02*
X103879581Y36854340D01*
X103879581Y36854340D02*
X173119978Y36854339D01*
X173119978Y36854339D02*
X182644979Y46379340D01*
X182644979Y46379340D02*
X182644980Y154329341D01*
X182644980Y154329341D02*
X179469979Y157504340D01*
X179469979Y157504340D02*
X120135580Y157504341D01*
X120135580Y157504341D02*
X120135580Y159282341D01*
X120135580Y159282341D02*
X108699380Y159282339D01*
X108699380Y159282339D02*
X108699381Y157504340D01*
X108699381Y157504340D02*
X72923980Y157504341D01*
X72923980Y157504341D02*
X72923981Y159282339D01*
X72923981Y159282339D02*
X69473168Y159282340D01*
X69473168Y159282340D02*
X69473169Y158012339D01*
X69473169Y158012339D02*
X58043168Y158012340D01*
X58043168Y158012340D02*
X58043168Y159282339D01*
X58043168Y159282339D02*
X54603580Y159282341D01*
X54603580Y159282341D02*
X54603579Y157504341D01*
X54603579Y157504341D02*
X42538580Y157504340D01*
X42538580Y157504340D02*
X39338181Y154329341D01*
X39338181Y154329341D02*
X39338179Y68096340D01*
X34435981Y68096340D02*
X1344860Y52665841D01*
X1344860Y52665841D02*
X-191841Y48446900D01*
X-191841Y48446900D02*
X21492138Y1944580D01*
M02*
