G04 #@! TF.GenerationSoftware,KiCad,Pcbnew,(5.1.4)-1*
G04 #@! TF.CreationDate,2019-10-18T00:21:39+08:00*
G04 #@! TF.ProjectId,ErgoDoxTW,4572676f-446f-4785-9457-2e6b69636164,rev?*
G04 #@! TF.SameCoordinates,PX15feaa0PYb4cd8c0*
G04 #@! TF.FileFunction,Soldermask,Top*
G04 #@! TF.FilePolarity,Negative*
%FSLAX46Y46*%
G04 Gerber Fmt 4.6, Leading zero omitted, Abs format (unit mm)*
G04 Created by KiCad (PCBNEW (5.1.4)-1) date 2019-10-18 00:21:39*
%MOMM*%
%LPD*%
G04 APERTURE LIST*
%ADD10O,1.400000X2.000000*%
%ADD11C,1.200000*%
%ADD12C,1.500000*%
%ADD13C,5.867400*%
%ADD14O,1.600000X1.600000*%
%ADD15C,1.600000*%
%ADD16R,1.752600X1.752600*%
%ADD17C,1.752600*%
%ADD18C,0.700000*%
%ADD19O,1.300000X2.500000*%
%ADD20O,1.300000X3.200000*%
%ADD21C,1.651000*%
%ADD22R,1.651000X1.651000*%
%ADD23C,3.000000*%
%ADD24C,2.286000*%
%ADD25R,2.550000X2.500000*%
%ADD26C,3.987800*%
%ADD27C,1.701800*%
%ADD28R,1.000000X1.400000*%
%ADD29C,0.150000*%
%ADD30C,2.500000*%
%ADD31C,1.000000*%
%ADD32R,2.500000X2.550000*%
%ADD33R,1.400000X1.000000*%
%ADD34C,1.800000*%
%ADD35R,1.800000X1.800000*%
%ADD36C,1.425000*%
%ADD37C,1.092200*%
%ADD38C,1.250000*%
G04 APERTURE END LIST*
D10*
X68263248Y146996601D03*
X59263248Y146996601D03*
D11*
X66060708Y147383921D03*
X66060708Y154383921D03*
D10*
X69260708Y155683921D03*
D12*
X66063248Y157096601D03*
D10*
X63763248Y148496601D03*
D12*
X61463248Y157096601D03*
D10*
X59163248Y147396601D03*
X63763248Y152496601D03*
X63763248Y155496601D03*
X68363248Y147396601D03*
D12*
X61463248Y150096601D03*
X66063248Y150096601D03*
D10*
X58260708Y155683921D03*
D11*
X61460708Y154383921D03*
X61460708Y147383921D03*
D13*
X30621968Y23882201D03*
X36387768Y68052801D03*
X82158568Y31959401D03*
X178500768Y49663201D03*
X115762768Y98126401D03*
X177865768Y152584001D03*
X94934768Y152584001D03*
X44134768Y152584001D03*
D14*
X72671482Y155412608D03*
D15*
X72671482Y145252608D03*
D16*
X138652620Y139597196D03*
D17*
X141192620Y139597196D03*
X143732620Y139597196D03*
X146272620Y139597196D03*
X148812620Y139597196D03*
X151352620Y139597196D03*
X153892620Y139597196D03*
X156432620Y139597196D03*
X158972620Y139597196D03*
X161512620Y139597196D03*
X164052620Y139597196D03*
X166592620Y139597196D03*
X166592620Y154837196D03*
X164052620Y154837196D03*
X161512620Y154837196D03*
X158972620Y154837196D03*
X156432620Y154837196D03*
X153892620Y154837196D03*
X151352620Y154837196D03*
X143732620Y154837196D03*
X141192620Y154837196D03*
X138652620Y154837196D03*
X148812620Y154837196D03*
X146272620Y154837196D03*
D18*
X112351409Y151332201D03*
X113201409Y151332201D03*
X114051409Y151332201D03*
X116601409Y151332201D03*
X115751409Y151332201D03*
X114901409Y151332201D03*
X117451409Y151332201D03*
X111501409Y151332201D03*
X114901409Y152682201D03*
X115751409Y152682201D03*
X116601409Y152682201D03*
X114051409Y152682201D03*
X113201409Y152682201D03*
X112351409Y152682201D03*
X117451409Y152682201D03*
X111501409Y152682201D03*
D19*
X110156409Y155982201D03*
X118796409Y155982201D03*
D20*
X118796409Y151832201D03*
X110156409Y151832201D03*
D21*
X110646409Y148462201D03*
X113186409Y148462201D03*
X115726409Y148462201D03*
X118266409Y148462201D03*
D22*
X71976993Y116534065D03*
D23*
X65626993Y129742065D03*
X71976993Y127202065D03*
D24*
X70706993Y119582065D03*
X64356993Y122122065D03*
D25*
X61876993Y129742065D03*
D26*
X68166993Y124662065D03*
D27*
X73246993Y124662065D03*
X63086993Y124662065D03*
D25*
X75726993Y127202065D03*
D21*
X64356993Y116534065D03*
D28*
X69966993Y116534065D03*
X66366993Y116534065D03*
D27*
X73246993Y124662065D03*
X63086993Y124662065D03*
D24*
X71976993Y122122065D03*
X65626993Y119582065D03*
D23*
X64356993Y127202065D03*
X70706993Y129742065D03*
D21*
X26363517Y23472918D03*
D29*
G36*
X25964231Y22375890D02*
G01*
X25266489Y23872204D01*
X26762803Y24569946D01*
X27460545Y23073632D01*
X25964231Y22375890D01*
X25964231Y22375890D01*
G37*
D23*
X15026520Y32759805D03*
X21855025Y33141409D03*
D24*
X23924366Y25698619D03*
X17095861Y25317015D03*
D30*
X11627866Y31174987D03*
D29*
G36*
X11000596Y29503264D02*
G01*
X9944051Y31769033D01*
X12255136Y32846710D01*
X13311681Y30580941D01*
X11000596Y29503264D01*
X11000596Y29503264D01*
G37*
D26*
X19475443Y29229212D03*
D27*
X24079487Y31376113D03*
X14871399Y27082311D03*
D30*
X25253679Y34726228D03*
D29*
G36*
X24626409Y33054505D02*
G01*
X23569864Y35320274D01*
X25880949Y36397951D01*
X26937494Y34132182D01*
X24626409Y33054505D01*
X24626409Y33054505D01*
G37*
D21*
X19457452Y20252567D03*
D31*
X24541838Y22623455D03*
D29*
G36*
X24384517Y21777730D02*
G01*
X23792851Y23046561D01*
X24699159Y23469180D01*
X25290825Y22200349D01*
X24384517Y21777730D01*
X24384517Y21777730D01*
G37*
D31*
X21279130Y21102029D03*
D29*
G36*
X21121809Y20256304D02*
G01*
X20530143Y21525135D01*
X21436451Y21947754D01*
X22028117Y20678923D01*
X21121809Y20256304D01*
X21121809Y20256304D01*
G37*
D27*
X24079487Y31376113D03*
X14871399Y27082311D03*
D24*
X24001926Y28537366D03*
X19320322Y23551718D03*
D23*
X14948960Y29921058D03*
X19630564Y34906706D03*
D22*
X172057006Y114628577D03*
D23*
X165707006Y127836577D03*
X172057006Y125296577D03*
D24*
X170787006Y117676577D03*
X164437006Y120216577D03*
D25*
X161957006Y127836577D03*
D26*
X168247006Y122756577D03*
D27*
X173327006Y122756577D03*
X163167006Y122756577D03*
D25*
X175807006Y125296577D03*
D21*
X164437006Y114628577D03*
D28*
X170047006Y114628577D03*
X166447006Y114628577D03*
D27*
X173327006Y122756577D03*
X163167006Y122756577D03*
D24*
X172057006Y120216577D03*
X165707006Y117676577D03*
D23*
X164437006Y125296577D03*
X170787006Y127836577D03*
D22*
X148177208Y114629638D03*
D23*
X141827208Y127837638D03*
X148177208Y125297638D03*
D24*
X146907208Y117677638D03*
X140557208Y120217638D03*
D25*
X138077208Y127837638D03*
D26*
X144367208Y122757638D03*
D27*
X149447208Y122757638D03*
X139287208Y122757638D03*
D25*
X151927208Y125297638D03*
D21*
X140557208Y114629638D03*
D28*
X146167208Y114629638D03*
X142567208Y114629638D03*
D27*
X149447208Y122757638D03*
X139287208Y122757638D03*
D24*
X148177208Y120217638D03*
X141827208Y117677638D03*
D23*
X140557208Y125297638D03*
X146907208Y127837638D03*
D22*
X129126852Y117806230D03*
D23*
X122776852Y131014230D03*
X129126852Y128474230D03*
D24*
X127856852Y120854230D03*
X121506852Y123394230D03*
D25*
X119026852Y131014230D03*
D26*
X125316852Y125934230D03*
D27*
X130396852Y125934230D03*
X120236852Y125934230D03*
D25*
X132876852Y128474230D03*
D21*
X121506852Y117806230D03*
D28*
X127116852Y117806230D03*
X123516852Y117806230D03*
D27*
X130396852Y125934230D03*
X120236852Y125934230D03*
D24*
X129126852Y123394230D03*
X122776852Y120854230D03*
D23*
X121506852Y128474230D03*
X127856852Y131014230D03*
D22*
X110077661Y119404434D03*
D23*
X103727661Y132612434D03*
X110077661Y130072434D03*
D24*
X108807661Y122452434D03*
X102457661Y124992434D03*
D25*
X99977661Y132612434D03*
D26*
X106267661Y127532434D03*
D27*
X111347661Y127532434D03*
X101187661Y127532434D03*
D25*
X113827661Y130072434D03*
D21*
X102457661Y119404434D03*
D28*
X108067661Y119404434D03*
X104467661Y119404434D03*
D27*
X111347661Y127532434D03*
X101187661Y127532434D03*
D24*
X110077661Y124992434D03*
X103727661Y122452434D03*
D23*
X102457661Y130072434D03*
X108807661Y132612434D03*
D22*
X91027043Y117806590D03*
D23*
X84677043Y131014590D03*
X91027043Y128474590D03*
D24*
X89757043Y120854590D03*
X83407043Y123394590D03*
D25*
X80927043Y131014590D03*
D26*
X87217043Y125934590D03*
D27*
X92297043Y125934590D03*
X82137043Y125934590D03*
D25*
X94777043Y128474590D03*
D21*
X83407043Y117806590D03*
D28*
X89017043Y117806590D03*
X85417043Y117806590D03*
D27*
X92297043Y125934590D03*
X82137043Y125934590D03*
D24*
X91027043Y123394590D03*
X84677043Y120854590D03*
D23*
X83407043Y128474590D03*
X89757043Y131014590D03*
D22*
X52927133Y116534155D03*
D23*
X46577133Y129742155D03*
X52927133Y127202155D03*
D24*
X51657133Y119582155D03*
X45307133Y122122155D03*
D25*
X42827133Y129742155D03*
D26*
X49117133Y124662155D03*
D27*
X54197133Y124662155D03*
X44037133Y124662155D03*
D25*
X56677133Y127202155D03*
D21*
X45307133Y116534155D03*
D28*
X50917133Y116534155D03*
X47317133Y116534155D03*
D27*
X54197133Y124662155D03*
X44037133Y124662155D03*
D24*
X52927133Y122122155D03*
X46577133Y119582155D03*
D23*
X45307133Y127202155D03*
X51657133Y129742155D03*
D22*
X172057371Y95582238D03*
D23*
X165707371Y108790238D03*
X172057371Y106250238D03*
D24*
X170787371Y98630238D03*
X164437371Y101170238D03*
D25*
X161957371Y108790238D03*
D26*
X168247371Y103710238D03*
D27*
X173327371Y103710238D03*
X163167371Y103710238D03*
D25*
X175807371Y106250238D03*
D21*
X164437371Y95582238D03*
D28*
X170047371Y95582238D03*
X166447371Y95582238D03*
D27*
X173327371Y103710238D03*
X163167371Y103710238D03*
D24*
X172057371Y101170238D03*
X165707371Y98630238D03*
D23*
X164437371Y106250238D03*
X170787371Y108790238D03*
D22*
X148177089Y95581968D03*
D23*
X141827089Y108789968D03*
X148177089Y106249968D03*
D24*
X146907089Y98629968D03*
X140557089Y101169968D03*
D25*
X138077089Y108789968D03*
D26*
X144367089Y103709968D03*
D27*
X149447089Y103709968D03*
X139287089Y103709968D03*
D25*
X151927089Y106249968D03*
D21*
X140557089Y95581968D03*
D28*
X146167089Y95581968D03*
X142567089Y95581968D03*
D27*
X149447089Y103709968D03*
X139287089Y103709968D03*
D24*
X148177089Y101169968D03*
X141827089Y98629968D03*
D23*
X140557089Y106249968D03*
X146907089Y108789968D03*
D22*
X129127576Y98756749D03*
D23*
X122777576Y111964749D03*
X129127576Y109424749D03*
D24*
X127857576Y101804749D03*
X121507576Y104344749D03*
D25*
X119027576Y111964749D03*
D26*
X125317576Y106884749D03*
D27*
X130397576Y106884749D03*
X120237576Y106884749D03*
D25*
X132877576Y109424749D03*
D21*
X121507576Y98756749D03*
D28*
X127117576Y98756749D03*
X123517576Y98756749D03*
D27*
X130397576Y106884749D03*
X120237576Y106884749D03*
D24*
X129127576Y104344749D03*
X122777576Y101804749D03*
D23*
X121507576Y109424749D03*
X127857576Y111964749D03*
D22*
X110077480Y100354531D03*
D23*
X103727480Y113562531D03*
X110077480Y111022531D03*
D24*
X108807480Y103402531D03*
X102457480Y105942531D03*
D25*
X99977480Y113562531D03*
D26*
X106267480Y108482531D03*
D27*
X111347480Y108482531D03*
X101187480Y108482531D03*
D25*
X113827480Y111022531D03*
D21*
X102457480Y100354531D03*
D28*
X108067480Y100354531D03*
X104467480Y100354531D03*
D27*
X111347480Y108482531D03*
X101187480Y108482531D03*
D24*
X110077480Y105942531D03*
X103727480Y103402531D03*
D23*
X102457480Y111022531D03*
X108807480Y113562531D03*
D22*
X91026865Y98756686D03*
D23*
X84676865Y111964686D03*
X91026865Y109424686D03*
D24*
X89756865Y101804686D03*
X83406865Y104344686D03*
D25*
X80926865Y111964686D03*
D26*
X87216865Y106884686D03*
D27*
X92296865Y106884686D03*
X82136865Y106884686D03*
D25*
X94776865Y109424686D03*
D21*
X83406865Y98756686D03*
D28*
X89016865Y98756686D03*
X85416865Y98756686D03*
D27*
X92296865Y106884686D03*
X82136865Y106884686D03*
D24*
X91026865Y104344686D03*
X84676865Y101804686D03*
D23*
X83406865Y109424686D03*
X89756865Y111964686D03*
D22*
X71976708Y97486760D03*
D23*
X65626708Y110694760D03*
X71976708Y108154760D03*
D24*
X70706708Y100534760D03*
X64356708Y103074760D03*
D25*
X61876708Y110694760D03*
D26*
X68166708Y105614760D03*
D27*
X73246708Y105614760D03*
X63086708Y105614760D03*
D25*
X75726708Y108154760D03*
D21*
X64356708Y97486760D03*
D28*
X69966708Y97486760D03*
X66366708Y97486760D03*
D27*
X73246708Y105614760D03*
X63086708Y105614760D03*
D24*
X71976708Y103074760D03*
X65626708Y100534760D03*
D23*
X64356708Y108154760D03*
X70706708Y110694760D03*
D22*
X57244848Y104661679D03*
D23*
X44036848Y98311679D03*
X46576848Y104661679D03*
D24*
X54196848Y103391679D03*
X51656848Y97041679D03*
D32*
X44036848Y94561679D03*
D26*
X49116848Y100851679D03*
D27*
X49116848Y105931679D03*
X49116848Y95771679D03*
D32*
X46576848Y108411679D03*
D21*
X57244848Y97041679D03*
D33*
X57244848Y102651679D03*
X57244848Y99051679D03*
D27*
X49116848Y105931679D03*
X49116848Y95771679D03*
D24*
X51656848Y104661679D03*
X54196848Y98311679D03*
D23*
X46576848Y97041679D03*
X44036848Y103391679D03*
D22*
X172057613Y76531427D03*
D23*
X165707613Y89739427D03*
X172057613Y87199427D03*
D24*
X170787613Y79579427D03*
X164437613Y82119427D03*
D25*
X161957613Y89739427D03*
D26*
X168247613Y84659427D03*
D27*
X173327613Y84659427D03*
X163167613Y84659427D03*
D25*
X175807613Y87199427D03*
D21*
X164437613Y76531427D03*
D28*
X170047613Y76531427D03*
X166447613Y76531427D03*
D27*
X173327613Y84659427D03*
X163167613Y84659427D03*
D24*
X172057613Y82119427D03*
X165707613Y79579427D03*
D23*
X164437613Y87199427D03*
X170787613Y89739427D03*
D22*
X148177330Y76531159D03*
D23*
X141827330Y89739159D03*
X148177330Y87199159D03*
D24*
X146907330Y79579159D03*
X140557330Y82119159D03*
D25*
X138077330Y89739159D03*
D26*
X144367330Y84659159D03*
D27*
X149447330Y84659159D03*
X139287330Y84659159D03*
D25*
X151927330Y87199159D03*
D21*
X140557330Y76531159D03*
D28*
X146167330Y76531159D03*
X142567330Y76531159D03*
D27*
X149447330Y84659159D03*
X139287330Y84659159D03*
D24*
X148177330Y82119159D03*
X141827330Y79579159D03*
D23*
X140557330Y87199159D03*
X146907330Y89739159D03*
D22*
X129127398Y79706847D03*
D23*
X122777398Y92914847D03*
X129127398Y90374847D03*
D24*
X127857398Y82754847D03*
X121507398Y85294847D03*
D25*
X119027398Y92914847D03*
D26*
X125317398Y87834847D03*
D27*
X130397398Y87834847D03*
X120237398Y87834847D03*
D25*
X132877398Y90374847D03*
D21*
X121507398Y79706847D03*
D28*
X127117398Y79706847D03*
X123517398Y79706847D03*
D27*
X130397398Y87834847D03*
X120237398Y87834847D03*
D24*
X129127398Y85294847D03*
X122777398Y82754847D03*
D23*
X121507398Y90374847D03*
X127857398Y92914847D03*
D22*
X110077301Y81304627D03*
D23*
X103727301Y94512627D03*
X110077301Y91972627D03*
D24*
X108807301Y84352627D03*
X102457301Y86892627D03*
D25*
X99977301Y94512627D03*
D26*
X106267301Y89432627D03*
D27*
X111347301Y89432627D03*
X101187301Y89432627D03*
D25*
X113827301Y91972627D03*
D21*
X102457301Y81304627D03*
D28*
X108067301Y81304627D03*
X104467301Y81304627D03*
D27*
X111347301Y89432627D03*
X101187301Y89432627D03*
D24*
X110077301Y86892627D03*
X103727301Y84352627D03*
D23*
X102457301Y91972627D03*
X108807301Y94512627D03*
D22*
X91027108Y79705876D03*
D23*
X84677108Y92913876D03*
X91027108Y90373876D03*
D24*
X89757108Y82753876D03*
X83407108Y85293876D03*
D25*
X80927108Y92913876D03*
D26*
X87217108Y87833876D03*
D27*
X92297108Y87833876D03*
X82137108Y87833876D03*
D25*
X94777108Y90373876D03*
D21*
X83407108Y79705876D03*
D28*
X89017108Y79705876D03*
X85417108Y79705876D03*
D27*
X92297108Y87833876D03*
X82137108Y87833876D03*
D24*
X91027108Y85293876D03*
X84677108Y82753876D03*
D23*
X83407108Y90373876D03*
X89757108Y92913876D03*
D22*
X71976949Y78435950D03*
D23*
X65626949Y91643950D03*
X71976949Y89103950D03*
D24*
X70706949Y81483950D03*
X64356949Y84023950D03*
D25*
X61876949Y91643950D03*
D26*
X68166949Y86563950D03*
D27*
X73246949Y86563950D03*
X63086949Y86563950D03*
D25*
X75726949Y89103950D03*
D21*
X64356949Y78435950D03*
D28*
X69966949Y78435950D03*
X66366949Y78435950D03*
D27*
X73246949Y86563950D03*
X63086949Y86563950D03*
D24*
X71976949Y84023950D03*
X65626949Y81483950D03*
D23*
X64356949Y89103950D03*
X70706949Y91643950D03*
D22*
X172057435Y57481525D03*
D23*
X165707435Y70689525D03*
X172057435Y68149525D03*
D24*
X170787435Y60529525D03*
X164437435Y63069525D03*
D25*
X161957435Y70689525D03*
D26*
X168247435Y65609525D03*
D27*
X173327435Y65609525D03*
X163167435Y65609525D03*
D25*
X175807435Y68149525D03*
D21*
X164437435Y57481525D03*
D28*
X170047435Y57481525D03*
X166447435Y57481525D03*
D27*
X173327435Y65609525D03*
X163167435Y65609525D03*
D24*
X172057435Y63069525D03*
X165707435Y60529525D03*
D23*
X164437435Y68149525D03*
X170787435Y70689525D03*
D22*
X148177152Y57481256D03*
D23*
X141827152Y70689256D03*
X148177152Y68149256D03*
D24*
X146907152Y60529256D03*
X140557152Y63069256D03*
D25*
X138077152Y70689256D03*
D26*
X144367152Y65609256D03*
D27*
X149447152Y65609256D03*
X139287152Y65609256D03*
D25*
X151927152Y68149256D03*
D21*
X140557152Y57481256D03*
D28*
X146167152Y57481256D03*
X142567152Y57481256D03*
D27*
X149447152Y65609256D03*
X139287152Y65609256D03*
D24*
X148177152Y63069256D03*
X141827152Y60529256D03*
D23*
X140557152Y68149256D03*
X146907152Y70689256D03*
D22*
X129127640Y60656036D03*
D23*
X122777640Y73864036D03*
X129127640Y71324036D03*
D24*
X127857640Y63704036D03*
X121507640Y66244036D03*
D25*
X119027640Y73864036D03*
D26*
X125317640Y68784036D03*
D27*
X130397640Y68784036D03*
X120237640Y68784036D03*
D25*
X132877640Y71324036D03*
D21*
X121507640Y60656036D03*
D28*
X127117640Y60656036D03*
X123517640Y60656036D03*
D27*
X130397640Y68784036D03*
X120237640Y68784036D03*
D24*
X129127640Y66244036D03*
X122777640Y63704036D03*
D23*
X121507640Y71324036D03*
X127857640Y73864036D03*
D22*
X110077121Y62254724D03*
D23*
X103727121Y75462724D03*
X110077121Y72922724D03*
D24*
X108807121Y65302724D03*
X102457121Y67842724D03*
D25*
X99977121Y75462724D03*
D26*
X106267121Y70382724D03*
D27*
X111347121Y70382724D03*
X101187121Y70382724D03*
D25*
X113827121Y72922724D03*
D21*
X102457121Y62254724D03*
D28*
X108067121Y62254724D03*
X104467121Y62254724D03*
D27*
X111347121Y70382724D03*
X101187121Y70382724D03*
D24*
X110077121Y67842724D03*
X103727121Y65302724D03*
D23*
X102457121Y72922724D03*
X108807121Y75462724D03*
D22*
X91026928Y60655974D03*
D23*
X84676928Y73863974D03*
X91026928Y71323974D03*
D24*
X89756928Y63703974D03*
X83406928Y66243974D03*
D25*
X80926928Y73863974D03*
D26*
X87216928Y68783974D03*
D27*
X92296928Y68783974D03*
X82136928Y68783974D03*
D25*
X94776928Y71323974D03*
D21*
X83406928Y60655974D03*
D28*
X89016928Y60655974D03*
X85416928Y60655974D03*
D27*
X92296928Y68783974D03*
X82136928Y68783974D03*
D24*
X91026928Y66243974D03*
X84676928Y63703974D03*
D23*
X83406928Y71323974D03*
X89756928Y73863974D03*
D22*
X71976771Y59386046D03*
D23*
X65626771Y72594046D03*
X71976771Y70054046D03*
D24*
X70706771Y62434046D03*
X64356771Y64974046D03*
D25*
X61876771Y72594046D03*
D26*
X68166771Y67514046D03*
D27*
X73246771Y67514046D03*
X63086771Y67514046D03*
D25*
X75726771Y70054046D03*
D21*
X64356771Y59386046D03*
D28*
X69966771Y59386046D03*
X66366771Y59386046D03*
D27*
X73246771Y67514046D03*
X63086771Y67514046D03*
D24*
X71976771Y64974046D03*
X65626771Y62434046D03*
D23*
X64356771Y70054046D03*
X70706771Y72594046D03*
D22*
X57245093Y76087615D03*
D23*
X44037093Y69737615D03*
X46577093Y76087615D03*
D24*
X54197093Y74817615D03*
X51657093Y68467615D03*
D32*
X44037093Y65987615D03*
D26*
X49117093Y72277615D03*
D27*
X49117093Y77357615D03*
X49117093Y67197615D03*
D32*
X46577093Y79837615D03*
D21*
X57245093Y68467615D03*
D33*
X57245093Y74077615D03*
X57245093Y70477615D03*
D27*
X49117093Y77357615D03*
X49117093Y67197615D03*
D24*
X51657093Y76087615D03*
X54197093Y69737615D03*
D23*
X46577093Y68467615D03*
X44037093Y74817615D03*
D22*
X167226876Y38431173D03*
D23*
X160876876Y51639173D03*
X167226876Y49099173D03*
D24*
X165956876Y41479173D03*
X159606876Y44019173D03*
D25*
X157126876Y51639173D03*
D26*
X163416876Y46559173D03*
D27*
X168496876Y46559173D03*
X158336876Y46559173D03*
D25*
X170976876Y49099173D03*
D21*
X159606876Y38431173D03*
D28*
X165216876Y38431173D03*
X161616876Y38431173D03*
D27*
X168496876Y46559173D03*
X158336876Y46559173D03*
D24*
X167226876Y44019173D03*
X160876876Y41479173D03*
D23*
X159606876Y49099173D03*
X165956876Y51639173D03*
D22*
X148176973Y38431352D03*
D23*
X141826973Y51639352D03*
X148176973Y49099352D03*
D24*
X146906973Y41479352D03*
X140556973Y44019352D03*
D25*
X138076973Y51639352D03*
D26*
X144366973Y46559352D03*
D27*
X149446973Y46559352D03*
X139286973Y46559352D03*
D25*
X151926973Y49099352D03*
D21*
X140556973Y38431352D03*
D28*
X146166973Y38431352D03*
X142566973Y38431352D03*
D27*
X149446973Y46559352D03*
X139286973Y46559352D03*
D24*
X148176973Y44019352D03*
X141826973Y41479352D03*
D23*
X140556973Y49099352D03*
X146906973Y51639352D03*
D22*
X129127462Y41606132D03*
D23*
X122777462Y54814132D03*
X129127462Y52274132D03*
D24*
X127857462Y44654132D03*
X121507462Y47194132D03*
D25*
X119027462Y54814132D03*
D26*
X125317462Y49734132D03*
D27*
X130397462Y49734132D03*
X120237462Y49734132D03*
D25*
X132877462Y52274132D03*
D21*
X121507462Y41606132D03*
D28*
X127117462Y41606132D03*
X123517462Y41606132D03*
D27*
X130397462Y49734132D03*
X120237462Y49734132D03*
D24*
X129127462Y47194132D03*
X122777462Y44654132D03*
D23*
X121507462Y52274132D03*
X127857462Y54814132D03*
D22*
X110077365Y43203913D03*
D23*
X103727365Y56411913D03*
X110077365Y53871913D03*
D24*
X108807365Y46251913D03*
X102457365Y48791913D03*
D25*
X99977365Y56411913D03*
D26*
X106267365Y51331913D03*
D27*
X111347365Y51331913D03*
X101187365Y51331913D03*
D25*
X113827365Y53871913D03*
D21*
X102457365Y43203913D03*
D28*
X108067365Y43203913D03*
X104467365Y43203913D03*
D27*
X111347365Y51331913D03*
X101187365Y51331913D03*
D24*
X110077365Y48791913D03*
X103727365Y46251913D03*
D23*
X102457365Y53871913D03*
X108807365Y56411913D03*
D22*
X91027654Y41606493D03*
D23*
X84677654Y54814493D03*
X91027654Y52274493D03*
D24*
X89757654Y44654493D03*
X83407654Y47194493D03*
D25*
X80927654Y54814493D03*
D26*
X87217654Y49734493D03*
D27*
X92297654Y49734493D03*
X82137654Y49734493D03*
D25*
X94777654Y52274493D03*
D21*
X83407654Y41606493D03*
D28*
X89017654Y41606493D03*
X85417654Y41606493D03*
D27*
X92297654Y49734493D03*
X82137654Y49734493D03*
D24*
X91027654Y47194493D03*
X84677654Y44654493D03*
D23*
X83407654Y52274493D03*
X89757654Y54814493D03*
D21*
X34415331Y6205983D03*
D29*
G36*
X34016045Y5108955D02*
G01*
X33318303Y6605269D01*
X34814617Y7303011D01*
X35512359Y5806697D01*
X34016045Y5108955D01*
X34016045Y5108955D01*
G37*
D23*
X23078334Y15492870D03*
X29906839Y15874474D03*
D24*
X31976180Y8431684D03*
X25147675Y8050080D03*
D30*
X19679680Y13908052D03*
D29*
G36*
X19052410Y12236329D02*
G01*
X17995865Y14502098D01*
X20306950Y15579775D01*
X21363495Y13314006D01*
X19052410Y12236329D01*
X19052410Y12236329D01*
G37*
D26*
X27527257Y11962277D03*
D27*
X32131301Y14109178D03*
X22923213Y9815376D03*
D30*
X33305493Y17459293D03*
D29*
G36*
X32678223Y15787570D02*
G01*
X31621678Y18053339D01*
X33932763Y19131016D01*
X34989308Y16865247D01*
X32678223Y15787570D01*
X32678223Y15787570D01*
G37*
D21*
X27509266Y2985632D03*
D31*
X32593652Y5356520D03*
D29*
G36*
X32436331Y4510795D02*
G01*
X31844665Y5779626D01*
X32750973Y6202245D01*
X33342639Y4933414D01*
X32436331Y4510795D01*
X32436331Y4510795D01*
G37*
D31*
X29330944Y3835094D03*
D29*
G36*
X29173623Y2989369D02*
G01*
X28581957Y4258200D01*
X29488265Y4680819D01*
X30079931Y3411988D01*
X29173623Y2989369D01*
X29173623Y2989369D01*
G37*
D27*
X32131301Y14109178D03*
X22923213Y9815376D03*
D24*
X32053740Y11270431D03*
X27372136Y6284783D03*
D23*
X23000774Y12654123D03*
X27682378Y17639771D03*
D21*
X46522097Y35533261D03*
D29*
G36*
X47619125Y35133975D02*
G01*
X46122811Y34436233D01*
X45425069Y35932547D01*
X46921383Y36630289D01*
X47619125Y35133975D01*
X47619125Y35133975D01*
G37*
D23*
X37235210Y24196264D03*
X36853606Y31024769D03*
D24*
X44296396Y33094110D03*
X44678000Y26265605D03*
D30*
X38820028Y20797610D03*
D29*
G36*
X40491751Y20170340D02*
G01*
X38225982Y19113795D01*
X37148305Y21424880D01*
X39414074Y22481425D01*
X40491751Y20170340D01*
X40491751Y20170340D01*
G37*
D26*
X40765803Y28645187D03*
D27*
X38618902Y33249231D03*
X42912704Y24041143D03*
D30*
X35268787Y34423423D03*
D29*
G36*
X36940510Y33796153D02*
G01*
X34674741Y32739608D01*
X33597064Y35050693D01*
X35862833Y36107238D01*
X36940510Y33796153D01*
X36940510Y33796153D01*
G37*
D21*
X49742448Y28627196D03*
D31*
X47371560Y33711582D03*
D29*
G36*
X48217285Y33554261D02*
G01*
X46948454Y32962595D01*
X46525835Y33868903D01*
X47794666Y34460569D01*
X48217285Y33554261D01*
X48217285Y33554261D01*
G37*
D31*
X48892986Y30448874D03*
D29*
G36*
X49738711Y30291553D02*
G01*
X48469880Y29699887D01*
X48047261Y30606195D01*
X49316092Y31197861D01*
X49738711Y30291553D01*
X49738711Y30291553D01*
G37*
D27*
X38618902Y33249231D03*
X42912704Y24041143D03*
D24*
X41457649Y33171670D03*
X46443297Y28490066D03*
D23*
X40073957Y24118704D03*
X35088309Y28800308D03*
D21*
X63786142Y43585826D03*
D29*
G36*
X64883170Y43186540D02*
G01*
X63386856Y42488798D01*
X62689114Y43985112D01*
X64185428Y44682854D01*
X64883170Y43186540D01*
X64883170Y43186540D01*
G37*
D23*
X54499255Y32248829D03*
X54117651Y39077334D03*
D24*
X61560441Y41146675D03*
X61942045Y34318170D03*
D30*
X56084073Y28850175D03*
D29*
G36*
X57755796Y28222905D02*
G01*
X55490027Y27166360D01*
X54412350Y29477445D01*
X56678119Y30533990D01*
X57755796Y28222905D01*
X57755796Y28222905D01*
G37*
D26*
X58029848Y36697752D03*
D27*
X55882947Y41301796D03*
X60176749Y32093708D03*
D30*
X52532832Y42475988D03*
D29*
G36*
X54204555Y41848718D02*
G01*
X51938786Y40792173D01*
X50861109Y43103258D01*
X53126878Y44159803D01*
X54204555Y41848718D01*
X54204555Y41848718D01*
G37*
D21*
X67006493Y36679761D03*
D31*
X64635605Y41764147D03*
D29*
G36*
X65481330Y41606826D02*
G01*
X64212499Y41015160D01*
X63789880Y41921468D01*
X65058711Y42513134D01*
X65481330Y41606826D01*
X65481330Y41606826D01*
G37*
D31*
X66157031Y38501439D03*
D29*
G36*
X67002756Y38344118D02*
G01*
X65733925Y37752452D01*
X65311306Y38658760D01*
X66580137Y39250426D01*
X67002756Y38344118D01*
X67002756Y38344118D01*
G37*
D27*
X55882947Y41301796D03*
X60176749Y32093708D03*
D24*
X58721694Y41224235D03*
X63707342Y36542631D03*
D23*
X57338002Y32171269D03*
X52352354Y36852873D03*
D21*
X35578556Y48787103D03*
D29*
G36*
X35179270Y47690075D02*
G01*
X34481528Y49186389D01*
X35977842Y49884131D01*
X36675584Y48387817D01*
X35179270Y47690075D01*
X35179270Y47690075D01*
G37*
D23*
X24241559Y58073990D03*
X31070064Y58455594D03*
D24*
X33139405Y51012804D03*
X26310900Y50631200D03*
D30*
X20842905Y56489172D03*
D29*
G36*
X20215635Y54817449D02*
G01*
X19159090Y57083218D01*
X21470175Y58160895D01*
X22526720Y55895126D01*
X20215635Y54817449D01*
X20215635Y54817449D01*
G37*
D26*
X28690482Y54543397D03*
D27*
X33294526Y56690298D03*
X24086438Y52396496D03*
D30*
X34468718Y60040413D03*
D29*
G36*
X33841448Y58368690D02*
G01*
X32784903Y60634459D01*
X35095988Y61712136D01*
X36152533Y59446367D01*
X33841448Y58368690D01*
X33841448Y58368690D01*
G37*
D21*
X28672491Y45566752D03*
D31*
X33756877Y47937640D03*
D29*
G36*
X33599556Y47091915D02*
G01*
X33007890Y48360746D01*
X33914198Y48783365D01*
X34505864Y47514534D01*
X33599556Y47091915D01*
X33599556Y47091915D01*
G37*
D31*
X30494169Y46416214D03*
D29*
G36*
X30336848Y45570489D02*
G01*
X29745182Y46839320D01*
X30651490Y47261939D01*
X31243156Y45993108D01*
X30336848Y45570489D01*
X30336848Y45570489D01*
G37*
D27*
X33294526Y56690298D03*
X24086438Y52396496D03*
D24*
X33216965Y53851551D03*
X28535361Y48865903D03*
D23*
X24163999Y55235243D03*
X28845603Y60220891D03*
D21*
X18314300Y40736649D03*
D29*
G36*
X17915014Y39639621D02*
G01*
X17217272Y41135935D01*
X18713586Y41833677D01*
X19411328Y40337363D01*
X17915014Y39639621D01*
X17915014Y39639621D01*
G37*
D23*
X6977303Y50023536D03*
X13805808Y50405140D03*
D24*
X15875149Y42962350D03*
X9046644Y42580746D03*
D30*
X3578649Y48438718D03*
D29*
G36*
X2951379Y46766995D02*
G01*
X1894834Y49032764D01*
X4205919Y50110441D01*
X5262464Y47844672D01*
X2951379Y46766995D01*
X2951379Y46766995D01*
G37*
D26*
X11426226Y46492943D03*
D27*
X16030270Y48639844D03*
X6822182Y44346042D03*
D30*
X17204462Y51989959D03*
D29*
G36*
X16577192Y50318236D02*
G01*
X15520647Y52584005D01*
X17831732Y53661682D01*
X18888277Y51395913D01*
X16577192Y50318236D01*
X16577192Y50318236D01*
G37*
D21*
X11408235Y37516298D03*
D31*
X16492621Y39887186D03*
D29*
G36*
X16335300Y39041461D02*
G01*
X15743634Y40310292D01*
X16649942Y40732911D01*
X17241608Y39464080D01*
X16335300Y39041461D01*
X16335300Y39041461D01*
G37*
D31*
X13229913Y38365760D03*
D29*
G36*
X13072592Y37520035D02*
G01*
X12480926Y38788866D01*
X13387234Y39211485D01*
X13978900Y37942654D01*
X13072592Y37520035D01*
X13072592Y37520035D01*
G37*
D27*
X16030270Y48639844D03*
X6822182Y44346042D03*
D24*
X15952709Y45801097D03*
X11271105Y40815449D03*
D23*
X6899743Y47184789D03*
X11581347Y52170437D03*
D14*
X75957759Y155406164D03*
D15*
X75957759Y145246164D03*
D14*
X101531453Y145367664D03*
D15*
X101531453Y155527664D03*
D14*
X105533429Y145367475D03*
D15*
X105533429Y155527475D03*
D34*
X52319160Y139030371D03*
D35*
X52319160Y141570371D03*
D29*
G36*
X102180903Y149650516D02*
G01*
X102205172Y149646916D01*
X102228970Y149640955D01*
X102252070Y149632690D01*
X102274248Y149622200D01*
X102295292Y149609587D01*
X102314997Y149594973D01*
X102333176Y149578497D01*
X102349652Y149560318D01*
X102364266Y149540613D01*
X102376879Y149519569D01*
X102387369Y149497391D01*
X102395634Y149474291D01*
X102401595Y149450493D01*
X102405195Y149426224D01*
X102406399Y149401720D01*
X102406399Y148476720D01*
X102405195Y148452216D01*
X102401595Y148427947D01*
X102395634Y148404149D01*
X102387369Y148381049D01*
X102376879Y148358871D01*
X102364266Y148337827D01*
X102349652Y148318122D01*
X102333176Y148299943D01*
X102314997Y148283467D01*
X102295292Y148268853D01*
X102274248Y148256240D01*
X102252070Y148245750D01*
X102228970Y148237485D01*
X102205172Y148231524D01*
X102180903Y148227924D01*
X102156399Y148226720D01*
X100906399Y148226720D01*
X100881895Y148227924D01*
X100857626Y148231524D01*
X100833828Y148237485D01*
X100810728Y148245750D01*
X100788550Y148256240D01*
X100767506Y148268853D01*
X100747801Y148283467D01*
X100729622Y148299943D01*
X100713146Y148318122D01*
X100698532Y148337827D01*
X100685919Y148358871D01*
X100675429Y148381049D01*
X100667164Y148404149D01*
X100661203Y148427947D01*
X100657603Y148452216D01*
X100656399Y148476720D01*
X100656399Y149401720D01*
X100657603Y149426224D01*
X100661203Y149450493D01*
X100667164Y149474291D01*
X100675429Y149497391D01*
X100685919Y149519569D01*
X100698532Y149540613D01*
X100713146Y149560318D01*
X100729622Y149578497D01*
X100747801Y149594973D01*
X100767506Y149609587D01*
X100788550Y149622200D01*
X100810728Y149632690D01*
X100833828Y149640955D01*
X100857626Y149646916D01*
X100881895Y149650516D01*
X100906399Y149651720D01*
X102156399Y149651720D01*
X102180903Y149650516D01*
X102180903Y149650516D01*
G37*
D36*
X101531399Y148939220D03*
D29*
G36*
X102180903Y152625516D02*
G01*
X102205172Y152621916D01*
X102228970Y152615955D01*
X102252070Y152607690D01*
X102274248Y152597200D01*
X102295292Y152584587D01*
X102314997Y152569973D01*
X102333176Y152553497D01*
X102349652Y152535318D01*
X102364266Y152515613D01*
X102376879Y152494569D01*
X102387369Y152472391D01*
X102395634Y152449291D01*
X102401595Y152425493D01*
X102405195Y152401224D01*
X102406399Y152376720D01*
X102406399Y151451720D01*
X102405195Y151427216D01*
X102401595Y151402947D01*
X102395634Y151379149D01*
X102387369Y151356049D01*
X102376879Y151333871D01*
X102364266Y151312827D01*
X102349652Y151293122D01*
X102333176Y151274943D01*
X102314997Y151258467D01*
X102295292Y151243853D01*
X102274248Y151231240D01*
X102252070Y151220750D01*
X102228970Y151212485D01*
X102205172Y151206524D01*
X102180903Y151202924D01*
X102156399Y151201720D01*
X100906399Y151201720D01*
X100881895Y151202924D01*
X100857626Y151206524D01*
X100833828Y151212485D01*
X100810728Y151220750D01*
X100788550Y151231240D01*
X100767506Y151243853D01*
X100747801Y151258467D01*
X100729622Y151274943D01*
X100713146Y151293122D01*
X100698532Y151312827D01*
X100685919Y151333871D01*
X100675429Y151356049D01*
X100667164Y151379149D01*
X100661203Y151402947D01*
X100657603Y151427216D01*
X100656399Y151451720D01*
X100656399Y152376720D01*
X100657603Y152401224D01*
X100661203Y152425493D01*
X100667164Y152449291D01*
X100675429Y152472391D01*
X100685919Y152494569D01*
X100698532Y152515613D01*
X100713146Y152535318D01*
X100729622Y152553497D01*
X100747801Y152569973D01*
X100767506Y152584587D01*
X100788550Y152597200D01*
X100810728Y152607690D01*
X100833828Y152615955D01*
X100857626Y152621916D01*
X100881895Y152625516D01*
X100906399Y152626720D01*
X102156399Y152626720D01*
X102180903Y152625516D01*
X102180903Y152625516D01*
G37*
D36*
X101531399Y151914220D03*
D29*
G36*
X106191880Y149649010D02*
G01*
X106216149Y149645410D01*
X106239947Y149639449D01*
X106263047Y149631184D01*
X106285225Y149620694D01*
X106306269Y149608081D01*
X106325974Y149593467D01*
X106344153Y149576991D01*
X106360629Y149558812D01*
X106375243Y149539107D01*
X106387856Y149518063D01*
X106398346Y149495885D01*
X106406611Y149472785D01*
X106412572Y149448987D01*
X106416172Y149424718D01*
X106417376Y149400214D01*
X106417376Y148475214D01*
X106416172Y148450710D01*
X106412572Y148426441D01*
X106406611Y148402643D01*
X106398346Y148379543D01*
X106387856Y148357365D01*
X106375243Y148336321D01*
X106360629Y148316616D01*
X106344153Y148298437D01*
X106325974Y148281961D01*
X106306269Y148267347D01*
X106285225Y148254734D01*
X106263047Y148244244D01*
X106239947Y148235979D01*
X106216149Y148230018D01*
X106191880Y148226418D01*
X106167376Y148225214D01*
X104917376Y148225214D01*
X104892872Y148226418D01*
X104868603Y148230018D01*
X104844805Y148235979D01*
X104821705Y148244244D01*
X104799527Y148254734D01*
X104778483Y148267347D01*
X104758778Y148281961D01*
X104740599Y148298437D01*
X104724123Y148316616D01*
X104709509Y148336321D01*
X104696896Y148357365D01*
X104686406Y148379543D01*
X104678141Y148402643D01*
X104672180Y148426441D01*
X104668580Y148450710D01*
X104667376Y148475214D01*
X104667376Y149400214D01*
X104668580Y149424718D01*
X104672180Y149448987D01*
X104678141Y149472785D01*
X104686406Y149495885D01*
X104696896Y149518063D01*
X104709509Y149539107D01*
X104724123Y149558812D01*
X104740599Y149576991D01*
X104758778Y149593467D01*
X104778483Y149608081D01*
X104799527Y149620694D01*
X104821705Y149631184D01*
X104844805Y149639449D01*
X104868603Y149645410D01*
X104892872Y149649010D01*
X104917376Y149650214D01*
X106167376Y149650214D01*
X106191880Y149649010D01*
X106191880Y149649010D01*
G37*
D36*
X105542376Y148937714D03*
D29*
G36*
X106191880Y152624010D02*
G01*
X106216149Y152620410D01*
X106239947Y152614449D01*
X106263047Y152606184D01*
X106285225Y152595694D01*
X106306269Y152583081D01*
X106325974Y152568467D01*
X106344153Y152551991D01*
X106360629Y152533812D01*
X106375243Y152514107D01*
X106387856Y152493063D01*
X106398346Y152470885D01*
X106406611Y152447785D01*
X106412572Y152423987D01*
X106416172Y152399718D01*
X106417376Y152375214D01*
X106417376Y151450214D01*
X106416172Y151425710D01*
X106412572Y151401441D01*
X106406611Y151377643D01*
X106398346Y151354543D01*
X106387856Y151332365D01*
X106375243Y151311321D01*
X106360629Y151291616D01*
X106344153Y151273437D01*
X106325974Y151256961D01*
X106306269Y151242347D01*
X106285225Y151229734D01*
X106263047Y151219244D01*
X106239947Y151210979D01*
X106216149Y151205018D01*
X106191880Y151201418D01*
X106167376Y151200214D01*
X104917376Y151200214D01*
X104892872Y151201418D01*
X104868603Y151205018D01*
X104844805Y151210979D01*
X104821705Y151219244D01*
X104799527Y151229734D01*
X104778483Y151242347D01*
X104758778Y151256961D01*
X104740599Y151273437D01*
X104724123Y151291616D01*
X104709509Y151311321D01*
X104696896Y151332365D01*
X104686406Y151354543D01*
X104678141Y151377643D01*
X104672180Y151401441D01*
X104668580Y151425710D01*
X104667376Y151450214D01*
X104667376Y152375214D01*
X104668580Y152399718D01*
X104672180Y152423987D01*
X104678141Y152447785D01*
X104686406Y152470885D01*
X104696896Y152493063D01*
X104709509Y152514107D01*
X104724123Y152533812D01*
X104740599Y152551991D01*
X104758778Y152568467D01*
X104778483Y152583081D01*
X104799527Y152595694D01*
X104821705Y152606184D01*
X104844805Y152614449D01*
X104868603Y152620410D01*
X104892872Y152624010D01*
X104917376Y152625214D01*
X106167376Y152625214D01*
X106191880Y152624010D01*
X106191880Y152624010D01*
G37*
D36*
X105542376Y151912714D03*
D34*
X52319384Y151730255D03*
D35*
X52319384Y154270255D03*
D34*
X52319633Y145330216D03*
D35*
X52319633Y147870216D03*
D17*
X138637435Y143432610D03*
X141177435Y143432610D03*
X143717435Y143432610D03*
X146257435Y143432610D03*
X148797435Y143432610D03*
X151337435Y143432610D03*
X153877435Y143432610D03*
X156417435Y143432610D03*
X158957435Y143432610D03*
D37*
X161497435Y143432610D03*
X164037435Y143432610D03*
X166577435Y143432610D03*
D17*
X169117435Y143432610D03*
X171657435Y143432610D03*
D16*
X138637435Y151052610D03*
D17*
X171657435Y151052610D03*
X169117435Y151052610D03*
X166577435Y151052610D03*
X164037435Y151052610D03*
X161497435Y151052610D03*
X158957435Y151052610D03*
X156417435Y151052610D03*
X153877435Y151052610D03*
X151337435Y151052610D03*
X148797435Y151052610D03*
X146257435Y151052610D03*
X143717435Y151052610D03*
X141177435Y151052610D03*
D29*
G36*
X172352672Y148062598D02*
G01*
X172376941Y148058998D01*
X172400739Y148053037D01*
X172423839Y148044772D01*
X172446017Y148034282D01*
X172467061Y148021669D01*
X172486766Y148007055D01*
X172504945Y147990579D01*
X172521421Y147972400D01*
X172536035Y147952695D01*
X172548648Y147931651D01*
X172559138Y147909473D01*
X172567403Y147886373D01*
X172573364Y147862575D01*
X172576964Y147838306D01*
X172578168Y147813802D01*
X172578168Y146563802D01*
X172576964Y146539298D01*
X172573364Y146515029D01*
X172567403Y146491231D01*
X172559138Y146468131D01*
X172548648Y146445953D01*
X172536035Y146424909D01*
X172521421Y146405204D01*
X172504945Y146387025D01*
X172486766Y146370549D01*
X172467061Y146355935D01*
X172446017Y146343322D01*
X172423839Y146332832D01*
X172400739Y146324567D01*
X172376941Y146318606D01*
X172352672Y146315006D01*
X172328168Y146313802D01*
X171578168Y146313802D01*
X171553664Y146315006D01*
X171529395Y146318606D01*
X171505597Y146324567D01*
X171482497Y146332832D01*
X171460319Y146343322D01*
X171439275Y146355935D01*
X171419570Y146370549D01*
X171401391Y146387025D01*
X171384915Y146405204D01*
X171370301Y146424909D01*
X171357688Y146445953D01*
X171347198Y146468131D01*
X171338933Y146491231D01*
X171332972Y146515029D01*
X171329372Y146539298D01*
X171328168Y146563802D01*
X171328168Y147813802D01*
X171329372Y147838306D01*
X171332972Y147862575D01*
X171338933Y147886373D01*
X171347198Y147909473D01*
X171357688Y147931651D01*
X171370301Y147952695D01*
X171384915Y147972400D01*
X171401391Y147990579D01*
X171419570Y148007055D01*
X171439275Y148021669D01*
X171460319Y148034282D01*
X171482497Y148044772D01*
X171505597Y148053037D01*
X171529395Y148058998D01*
X171553664Y148062598D01*
X171578168Y148063802D01*
X172328168Y148063802D01*
X172352672Y148062598D01*
X172352672Y148062598D01*
G37*
D38*
X171953168Y147188802D03*
D29*
G36*
X169552672Y148062598D02*
G01*
X169576941Y148058998D01*
X169600739Y148053037D01*
X169623839Y148044772D01*
X169646017Y148034282D01*
X169667061Y148021669D01*
X169686766Y148007055D01*
X169704945Y147990579D01*
X169721421Y147972400D01*
X169736035Y147952695D01*
X169748648Y147931651D01*
X169759138Y147909473D01*
X169767403Y147886373D01*
X169773364Y147862575D01*
X169776964Y147838306D01*
X169778168Y147813802D01*
X169778168Y146563802D01*
X169776964Y146539298D01*
X169773364Y146515029D01*
X169767403Y146491231D01*
X169759138Y146468131D01*
X169748648Y146445953D01*
X169736035Y146424909D01*
X169721421Y146405204D01*
X169704945Y146387025D01*
X169686766Y146370549D01*
X169667061Y146355935D01*
X169646017Y146343322D01*
X169623839Y146332832D01*
X169600739Y146324567D01*
X169576941Y146318606D01*
X169552672Y146315006D01*
X169528168Y146313802D01*
X168778168Y146313802D01*
X168753664Y146315006D01*
X168729395Y146318606D01*
X168705597Y146324567D01*
X168682497Y146332832D01*
X168660319Y146343322D01*
X168639275Y146355935D01*
X168619570Y146370549D01*
X168601391Y146387025D01*
X168584915Y146405204D01*
X168570301Y146424909D01*
X168557688Y146445953D01*
X168547198Y146468131D01*
X168538933Y146491231D01*
X168532972Y146515029D01*
X168529372Y146539298D01*
X168528168Y146563802D01*
X168528168Y147813802D01*
X168529372Y147838306D01*
X168532972Y147862575D01*
X168538933Y147886373D01*
X168547198Y147909473D01*
X168557688Y147931651D01*
X168570301Y147952695D01*
X168584915Y147972400D01*
X168601391Y147990579D01*
X168619570Y148007055D01*
X168639275Y148021669D01*
X168660319Y148034282D01*
X168682497Y148044772D01*
X168705597Y148053037D01*
X168729395Y148058998D01*
X168753664Y148062598D01*
X168778168Y148063802D01*
X169528168Y148063802D01*
X169552672Y148062598D01*
X169552672Y148062598D01*
G37*
D38*
X169153168Y147188802D03*
D29*
G36*
X76614570Y152568870D02*
G01*
X76638839Y152565270D01*
X76662637Y152559309D01*
X76685737Y152551044D01*
X76707915Y152540554D01*
X76728959Y152527941D01*
X76748664Y152513327D01*
X76766843Y152496851D01*
X76783319Y152478672D01*
X76797933Y152458967D01*
X76810546Y152437923D01*
X76821036Y152415745D01*
X76829301Y152392645D01*
X76835262Y152368847D01*
X76838862Y152344578D01*
X76840066Y152320074D01*
X76840066Y151395074D01*
X76838862Y151370570D01*
X76835262Y151346301D01*
X76829301Y151322503D01*
X76821036Y151299403D01*
X76810546Y151277225D01*
X76797933Y151256181D01*
X76783319Y151236476D01*
X76766843Y151218297D01*
X76748664Y151201821D01*
X76728959Y151187207D01*
X76707915Y151174594D01*
X76685737Y151164104D01*
X76662637Y151155839D01*
X76638839Y151149878D01*
X76614570Y151146278D01*
X76590066Y151145074D01*
X75340066Y151145074D01*
X75315562Y151146278D01*
X75291293Y151149878D01*
X75267495Y151155839D01*
X75244395Y151164104D01*
X75222217Y151174594D01*
X75201173Y151187207D01*
X75181468Y151201821D01*
X75163289Y151218297D01*
X75146813Y151236476D01*
X75132199Y151256181D01*
X75119586Y151277225D01*
X75109096Y151299403D01*
X75100831Y151322503D01*
X75094870Y151346301D01*
X75091270Y151370570D01*
X75090066Y151395074D01*
X75090066Y152320074D01*
X75091270Y152344578D01*
X75094870Y152368847D01*
X75100831Y152392645D01*
X75109096Y152415745D01*
X75119586Y152437923D01*
X75132199Y152458967D01*
X75146813Y152478672D01*
X75163289Y152496851D01*
X75181468Y152513327D01*
X75201173Y152527941D01*
X75222217Y152540554D01*
X75244395Y152551044D01*
X75267495Y152559309D01*
X75291293Y152565270D01*
X75315562Y152568870D01*
X75340066Y152570074D01*
X76590066Y152570074D01*
X76614570Y152568870D01*
X76614570Y152568870D01*
G37*
D36*
X75965066Y151857574D03*
D29*
G36*
X76614570Y149593870D02*
G01*
X76638839Y149590270D01*
X76662637Y149584309D01*
X76685737Y149576044D01*
X76707915Y149565554D01*
X76728959Y149552941D01*
X76748664Y149538327D01*
X76766843Y149521851D01*
X76783319Y149503672D01*
X76797933Y149483967D01*
X76810546Y149462923D01*
X76821036Y149440745D01*
X76829301Y149417645D01*
X76835262Y149393847D01*
X76838862Y149369578D01*
X76840066Y149345074D01*
X76840066Y148420074D01*
X76838862Y148395570D01*
X76835262Y148371301D01*
X76829301Y148347503D01*
X76821036Y148324403D01*
X76810546Y148302225D01*
X76797933Y148281181D01*
X76783319Y148261476D01*
X76766843Y148243297D01*
X76748664Y148226821D01*
X76728959Y148212207D01*
X76707915Y148199594D01*
X76685737Y148189104D01*
X76662637Y148180839D01*
X76638839Y148174878D01*
X76614570Y148171278D01*
X76590066Y148170074D01*
X75340066Y148170074D01*
X75315562Y148171278D01*
X75291293Y148174878D01*
X75267495Y148180839D01*
X75244395Y148189104D01*
X75222217Y148199594D01*
X75201173Y148212207D01*
X75181468Y148226821D01*
X75163289Y148243297D01*
X75146813Y148261476D01*
X75132199Y148281181D01*
X75119586Y148302225D01*
X75109096Y148324403D01*
X75100831Y148347503D01*
X75094870Y148371301D01*
X75091270Y148395570D01*
X75090066Y148420074D01*
X75090066Y149345074D01*
X75091270Y149369578D01*
X75094870Y149393847D01*
X75100831Y149417645D01*
X75109096Y149440745D01*
X75119586Y149462923D01*
X75132199Y149483967D01*
X75146813Y149503672D01*
X75163289Y149521851D01*
X75181468Y149538327D01*
X75201173Y149552941D01*
X75222217Y149565554D01*
X75244395Y149576044D01*
X75267495Y149584309D01*
X75291293Y149590270D01*
X75315562Y149593870D01*
X75340066Y149595074D01*
X76590066Y149595074D01*
X76614570Y149593870D01*
X76614570Y149593870D01*
G37*
D36*
X75965066Y148882574D03*
D29*
G36*
X73325338Y152568968D02*
G01*
X73349607Y152565368D01*
X73373405Y152559407D01*
X73396505Y152551142D01*
X73418683Y152540652D01*
X73439727Y152528039D01*
X73459432Y152513425D01*
X73477611Y152496949D01*
X73494087Y152478770D01*
X73508701Y152459065D01*
X73521314Y152438021D01*
X73531804Y152415843D01*
X73540069Y152392743D01*
X73546030Y152368945D01*
X73549630Y152344676D01*
X73550834Y152320172D01*
X73550834Y151395172D01*
X73549630Y151370668D01*
X73546030Y151346399D01*
X73540069Y151322601D01*
X73531804Y151299501D01*
X73521314Y151277323D01*
X73508701Y151256279D01*
X73494087Y151236574D01*
X73477611Y151218395D01*
X73459432Y151201919D01*
X73439727Y151187305D01*
X73418683Y151174692D01*
X73396505Y151164202D01*
X73373405Y151155937D01*
X73349607Y151149976D01*
X73325338Y151146376D01*
X73300834Y151145172D01*
X72050834Y151145172D01*
X72026330Y151146376D01*
X72002061Y151149976D01*
X71978263Y151155937D01*
X71955163Y151164202D01*
X71932985Y151174692D01*
X71911941Y151187305D01*
X71892236Y151201919D01*
X71874057Y151218395D01*
X71857581Y151236574D01*
X71842967Y151256279D01*
X71830354Y151277323D01*
X71819864Y151299501D01*
X71811599Y151322601D01*
X71805638Y151346399D01*
X71802038Y151370668D01*
X71800834Y151395172D01*
X71800834Y152320172D01*
X71802038Y152344676D01*
X71805638Y152368945D01*
X71811599Y152392743D01*
X71819864Y152415843D01*
X71830354Y152438021D01*
X71842967Y152459065D01*
X71857581Y152478770D01*
X71874057Y152496949D01*
X71892236Y152513425D01*
X71911941Y152528039D01*
X71932985Y152540652D01*
X71955163Y152551142D01*
X71978263Y152559407D01*
X72002061Y152565368D01*
X72026330Y152568968D01*
X72050834Y152570172D01*
X73300834Y152570172D01*
X73325338Y152568968D01*
X73325338Y152568968D01*
G37*
D36*
X72675834Y151857672D03*
D29*
G36*
X73325338Y149593968D02*
G01*
X73349607Y149590368D01*
X73373405Y149584407D01*
X73396505Y149576142D01*
X73418683Y149565652D01*
X73439727Y149553039D01*
X73459432Y149538425D01*
X73477611Y149521949D01*
X73494087Y149503770D01*
X73508701Y149484065D01*
X73521314Y149463021D01*
X73531804Y149440843D01*
X73540069Y149417743D01*
X73546030Y149393945D01*
X73549630Y149369676D01*
X73550834Y149345172D01*
X73550834Y148420172D01*
X73549630Y148395668D01*
X73546030Y148371399D01*
X73540069Y148347601D01*
X73531804Y148324501D01*
X73521314Y148302323D01*
X73508701Y148281279D01*
X73494087Y148261574D01*
X73477611Y148243395D01*
X73459432Y148226919D01*
X73439727Y148212305D01*
X73418683Y148199692D01*
X73396505Y148189202D01*
X73373405Y148180937D01*
X73349607Y148174976D01*
X73325338Y148171376D01*
X73300834Y148170172D01*
X72050834Y148170172D01*
X72026330Y148171376D01*
X72002061Y148174976D01*
X71978263Y148180937D01*
X71955163Y148189202D01*
X71932985Y148199692D01*
X71911941Y148212305D01*
X71892236Y148226919D01*
X71874057Y148243395D01*
X71857581Y148261574D01*
X71842967Y148281279D01*
X71830354Y148302323D01*
X71819864Y148324501D01*
X71811599Y148347601D01*
X71805638Y148371399D01*
X71802038Y148395668D01*
X71800834Y148420172D01*
X71800834Y149345172D01*
X71802038Y149369676D01*
X71805638Y149393945D01*
X71811599Y149417743D01*
X71819864Y149440843D01*
X71830354Y149463021D01*
X71842967Y149484065D01*
X71857581Y149503770D01*
X71874057Y149521949D01*
X71892236Y149538425D01*
X71911941Y149553039D01*
X71932985Y149565652D01*
X71955163Y149576142D01*
X71978263Y149584407D01*
X72002061Y149590368D01*
X72026330Y149593968D01*
X72050834Y149595172D01*
X73300834Y149595172D01*
X73325338Y149593968D01*
X73325338Y149593968D01*
G37*
D36*
X72675834Y148882672D03*
D29*
G36*
X89630715Y152583670D02*
G01*
X89654984Y152580070D01*
X89678782Y152574109D01*
X89701882Y152565844D01*
X89724060Y152555354D01*
X89745104Y152542741D01*
X89764809Y152528127D01*
X89782988Y152511651D01*
X89799464Y152493472D01*
X89814078Y152473767D01*
X89826691Y152452723D01*
X89837181Y152430545D01*
X89845446Y152407445D01*
X89851407Y152383647D01*
X89855007Y152359378D01*
X89856211Y152334874D01*
X89856211Y151409874D01*
X89855007Y151385370D01*
X89851407Y151361101D01*
X89845446Y151337303D01*
X89837181Y151314203D01*
X89826691Y151292025D01*
X89814078Y151270981D01*
X89799464Y151251276D01*
X89782988Y151233097D01*
X89764809Y151216621D01*
X89745104Y151202007D01*
X89724060Y151189394D01*
X89701882Y151178904D01*
X89678782Y151170639D01*
X89654984Y151164678D01*
X89630715Y151161078D01*
X89606211Y151159874D01*
X88356211Y151159874D01*
X88331707Y151161078D01*
X88307438Y151164678D01*
X88283640Y151170639D01*
X88260540Y151178904D01*
X88238362Y151189394D01*
X88217318Y151202007D01*
X88197613Y151216621D01*
X88179434Y151233097D01*
X88162958Y151251276D01*
X88148344Y151270981D01*
X88135731Y151292025D01*
X88125241Y151314203D01*
X88116976Y151337303D01*
X88111015Y151361101D01*
X88107415Y151385370D01*
X88106211Y151409874D01*
X88106211Y152334874D01*
X88107415Y152359378D01*
X88111015Y152383647D01*
X88116976Y152407445D01*
X88125241Y152430545D01*
X88135731Y152452723D01*
X88148344Y152473767D01*
X88162958Y152493472D01*
X88179434Y152511651D01*
X88197613Y152528127D01*
X88217318Y152542741D01*
X88238362Y152555354D01*
X88260540Y152565844D01*
X88283640Y152574109D01*
X88307438Y152580070D01*
X88331707Y152583670D01*
X88356211Y152584874D01*
X89606211Y152584874D01*
X89630715Y152583670D01*
X89630715Y152583670D01*
G37*
D36*
X88981211Y151872374D03*
D29*
G36*
X89630715Y149608670D02*
G01*
X89654984Y149605070D01*
X89678782Y149599109D01*
X89701882Y149590844D01*
X89724060Y149580354D01*
X89745104Y149567741D01*
X89764809Y149553127D01*
X89782988Y149536651D01*
X89799464Y149518472D01*
X89814078Y149498767D01*
X89826691Y149477723D01*
X89837181Y149455545D01*
X89845446Y149432445D01*
X89851407Y149408647D01*
X89855007Y149384378D01*
X89856211Y149359874D01*
X89856211Y148434874D01*
X89855007Y148410370D01*
X89851407Y148386101D01*
X89845446Y148362303D01*
X89837181Y148339203D01*
X89826691Y148317025D01*
X89814078Y148295981D01*
X89799464Y148276276D01*
X89782988Y148258097D01*
X89764809Y148241621D01*
X89745104Y148227007D01*
X89724060Y148214394D01*
X89701882Y148203904D01*
X89678782Y148195639D01*
X89654984Y148189678D01*
X89630715Y148186078D01*
X89606211Y148184874D01*
X88356211Y148184874D01*
X88331707Y148186078D01*
X88307438Y148189678D01*
X88283640Y148195639D01*
X88260540Y148203904D01*
X88238362Y148214394D01*
X88217318Y148227007D01*
X88197613Y148241621D01*
X88179434Y148258097D01*
X88162958Y148276276D01*
X88148344Y148295981D01*
X88135731Y148317025D01*
X88125241Y148339203D01*
X88116976Y148362303D01*
X88111015Y148386101D01*
X88107415Y148410370D01*
X88106211Y148434874D01*
X88106211Y149359874D01*
X88107415Y149384378D01*
X88111015Y149408647D01*
X88116976Y149432445D01*
X88125241Y149455545D01*
X88135731Y149477723D01*
X88148344Y149498767D01*
X88162958Y149518472D01*
X88179434Y149536651D01*
X88197613Y149553127D01*
X88217318Y149567741D01*
X88238362Y149580354D01*
X88260540Y149590844D01*
X88283640Y149599109D01*
X88307438Y149605070D01*
X88331707Y149608670D01*
X88356211Y149609874D01*
X89606211Y149609874D01*
X89630715Y149608670D01*
X89630715Y149608670D01*
G37*
D36*
X88981211Y148897374D03*
D29*
G36*
X86329562Y152583495D02*
G01*
X86353831Y152579895D01*
X86377629Y152573934D01*
X86400729Y152565669D01*
X86422907Y152555179D01*
X86443951Y152542566D01*
X86463656Y152527952D01*
X86481835Y152511476D01*
X86498311Y152493297D01*
X86512925Y152473592D01*
X86525538Y152452548D01*
X86536028Y152430370D01*
X86544293Y152407270D01*
X86550254Y152383472D01*
X86553854Y152359203D01*
X86555058Y152334699D01*
X86555058Y151409699D01*
X86553854Y151385195D01*
X86550254Y151360926D01*
X86544293Y151337128D01*
X86536028Y151314028D01*
X86525538Y151291850D01*
X86512925Y151270806D01*
X86498311Y151251101D01*
X86481835Y151232922D01*
X86463656Y151216446D01*
X86443951Y151201832D01*
X86422907Y151189219D01*
X86400729Y151178729D01*
X86377629Y151170464D01*
X86353831Y151164503D01*
X86329562Y151160903D01*
X86305058Y151159699D01*
X85055058Y151159699D01*
X85030554Y151160903D01*
X85006285Y151164503D01*
X84982487Y151170464D01*
X84959387Y151178729D01*
X84937209Y151189219D01*
X84916165Y151201832D01*
X84896460Y151216446D01*
X84878281Y151232922D01*
X84861805Y151251101D01*
X84847191Y151270806D01*
X84834578Y151291850D01*
X84824088Y151314028D01*
X84815823Y151337128D01*
X84809862Y151360926D01*
X84806262Y151385195D01*
X84805058Y151409699D01*
X84805058Y152334699D01*
X84806262Y152359203D01*
X84809862Y152383472D01*
X84815823Y152407270D01*
X84824088Y152430370D01*
X84834578Y152452548D01*
X84847191Y152473592D01*
X84861805Y152493297D01*
X84878281Y152511476D01*
X84896460Y152527952D01*
X84916165Y152542566D01*
X84937209Y152555179D01*
X84959387Y152565669D01*
X84982487Y152573934D01*
X85006285Y152579895D01*
X85030554Y152583495D01*
X85055058Y152584699D01*
X86305058Y152584699D01*
X86329562Y152583495D01*
X86329562Y152583495D01*
G37*
D36*
X85680058Y151872199D03*
D29*
G36*
X86329562Y149608495D02*
G01*
X86353831Y149604895D01*
X86377629Y149598934D01*
X86400729Y149590669D01*
X86422907Y149580179D01*
X86443951Y149567566D01*
X86463656Y149552952D01*
X86481835Y149536476D01*
X86498311Y149518297D01*
X86512925Y149498592D01*
X86525538Y149477548D01*
X86536028Y149455370D01*
X86544293Y149432270D01*
X86550254Y149408472D01*
X86553854Y149384203D01*
X86555058Y149359699D01*
X86555058Y148434699D01*
X86553854Y148410195D01*
X86550254Y148385926D01*
X86544293Y148362128D01*
X86536028Y148339028D01*
X86525538Y148316850D01*
X86512925Y148295806D01*
X86498311Y148276101D01*
X86481835Y148257922D01*
X86463656Y148241446D01*
X86443951Y148226832D01*
X86422907Y148214219D01*
X86400729Y148203729D01*
X86377629Y148195464D01*
X86353831Y148189503D01*
X86329562Y148185903D01*
X86305058Y148184699D01*
X85055058Y148184699D01*
X85030554Y148185903D01*
X85006285Y148189503D01*
X84982487Y148195464D01*
X84959387Y148203729D01*
X84937209Y148214219D01*
X84916165Y148226832D01*
X84896460Y148241446D01*
X84878281Y148257922D01*
X84861805Y148276101D01*
X84847191Y148295806D01*
X84834578Y148316850D01*
X84824088Y148339028D01*
X84815823Y148362128D01*
X84809862Y148385926D01*
X84806262Y148410195D01*
X84805058Y148434699D01*
X84805058Y149359699D01*
X84806262Y149384203D01*
X84809862Y149408472D01*
X84815823Y149432270D01*
X84824088Y149455370D01*
X84834578Y149477548D01*
X84847191Y149498592D01*
X84861805Y149518297D01*
X84878281Y149536476D01*
X84896460Y149552952D01*
X84916165Y149567566D01*
X84937209Y149580179D01*
X84959387Y149590669D01*
X84982487Y149598934D01*
X85006285Y149604895D01*
X85030554Y149608495D01*
X85055058Y149609699D01*
X86305058Y149609699D01*
X86329562Y149608495D01*
X86329562Y149608495D01*
G37*
D36*
X85680058Y148897199D03*
D29*
G36*
X83032638Y152583618D02*
G01*
X83056907Y152580018D01*
X83080705Y152574057D01*
X83103805Y152565792D01*
X83125983Y152555302D01*
X83147027Y152542689D01*
X83166732Y152528075D01*
X83184911Y152511599D01*
X83201387Y152493420D01*
X83216001Y152473715D01*
X83228614Y152452671D01*
X83239104Y152430493D01*
X83247369Y152407393D01*
X83253330Y152383595D01*
X83256930Y152359326D01*
X83258134Y152334822D01*
X83258134Y151409822D01*
X83256930Y151385318D01*
X83253330Y151361049D01*
X83247369Y151337251D01*
X83239104Y151314151D01*
X83228614Y151291973D01*
X83216001Y151270929D01*
X83201387Y151251224D01*
X83184911Y151233045D01*
X83166732Y151216569D01*
X83147027Y151201955D01*
X83125983Y151189342D01*
X83103805Y151178852D01*
X83080705Y151170587D01*
X83056907Y151164626D01*
X83032638Y151161026D01*
X83008134Y151159822D01*
X81758134Y151159822D01*
X81733630Y151161026D01*
X81709361Y151164626D01*
X81685563Y151170587D01*
X81662463Y151178852D01*
X81640285Y151189342D01*
X81619241Y151201955D01*
X81599536Y151216569D01*
X81581357Y151233045D01*
X81564881Y151251224D01*
X81550267Y151270929D01*
X81537654Y151291973D01*
X81527164Y151314151D01*
X81518899Y151337251D01*
X81512938Y151361049D01*
X81509338Y151385318D01*
X81508134Y151409822D01*
X81508134Y152334822D01*
X81509338Y152359326D01*
X81512938Y152383595D01*
X81518899Y152407393D01*
X81527164Y152430493D01*
X81537654Y152452671D01*
X81550267Y152473715D01*
X81564881Y152493420D01*
X81581357Y152511599D01*
X81599536Y152528075D01*
X81619241Y152542689D01*
X81640285Y152555302D01*
X81662463Y152565792D01*
X81685563Y152574057D01*
X81709361Y152580018D01*
X81733630Y152583618D01*
X81758134Y152584822D01*
X83008134Y152584822D01*
X83032638Y152583618D01*
X83032638Y152583618D01*
G37*
D36*
X82383134Y151872322D03*
D29*
G36*
X83032638Y149608618D02*
G01*
X83056907Y149605018D01*
X83080705Y149599057D01*
X83103805Y149590792D01*
X83125983Y149580302D01*
X83147027Y149567689D01*
X83166732Y149553075D01*
X83184911Y149536599D01*
X83201387Y149518420D01*
X83216001Y149498715D01*
X83228614Y149477671D01*
X83239104Y149455493D01*
X83247369Y149432393D01*
X83253330Y149408595D01*
X83256930Y149384326D01*
X83258134Y149359822D01*
X83258134Y148434822D01*
X83256930Y148410318D01*
X83253330Y148386049D01*
X83247369Y148362251D01*
X83239104Y148339151D01*
X83228614Y148316973D01*
X83216001Y148295929D01*
X83201387Y148276224D01*
X83184911Y148258045D01*
X83166732Y148241569D01*
X83147027Y148226955D01*
X83125983Y148214342D01*
X83103805Y148203852D01*
X83080705Y148195587D01*
X83056907Y148189626D01*
X83032638Y148186026D01*
X83008134Y148184822D01*
X81758134Y148184822D01*
X81733630Y148186026D01*
X81709361Y148189626D01*
X81685563Y148195587D01*
X81662463Y148203852D01*
X81640285Y148214342D01*
X81619241Y148226955D01*
X81599536Y148241569D01*
X81581357Y148258045D01*
X81564881Y148276224D01*
X81550267Y148295929D01*
X81537654Y148316973D01*
X81527164Y148339151D01*
X81518899Y148362251D01*
X81512938Y148386049D01*
X81509338Y148410318D01*
X81508134Y148434822D01*
X81508134Y149359822D01*
X81509338Y149384326D01*
X81512938Y149408595D01*
X81518899Y149432393D01*
X81527164Y149455493D01*
X81537654Y149477671D01*
X81550267Y149498715D01*
X81564881Y149518420D01*
X81581357Y149536599D01*
X81599536Y149553075D01*
X81619241Y149567689D01*
X81640285Y149580302D01*
X81662463Y149590792D01*
X81685563Y149599057D01*
X81709361Y149605018D01*
X81733630Y149608618D01*
X81758134Y149609822D01*
X83008134Y149609822D01*
X83032638Y149608618D01*
X83032638Y149608618D01*
G37*
D36*
X82383134Y148897322D03*
D14*
X88981211Y155405637D03*
D15*
X88981211Y145245637D03*
D14*
X85680058Y155406701D03*
D15*
X85680058Y145246701D03*
D14*
X82383134Y155404501D03*
D15*
X82383134Y145244501D03*
M02*
