G04 #@! TF.GenerationSoftware,KiCad,Pcbnew,(5.1.4)-1*
G04 #@! TF.CreationDate,2019-10-18T00:21:39+08:00*
G04 #@! TF.ProjectId,ErgoDoxTW,4572676f-446f-4785-9457-2e6b69636164,rev?*
G04 #@! TF.SameCoordinates,PX15feaa0PYb4cd8c0*
G04 #@! TF.FileFunction,Legend,Bot*
G04 #@! TF.FilePolarity,Positive*
%FSLAX46Y46*%
G04 Gerber Fmt 4.6, Leading zero omitted, Abs format (unit mm)*
G04 Created by KiCad (PCBNEW (5.1.4)-1) date 2019-10-18 00:21:39*
%MOMM*%
%LPD*%
G04 APERTURE LIST*
%ADD10C,0.250000*%
%ADD11C,0.750000*%
%ADD12C,0.508000*%
%ADD13C,0.120000*%
%ADD14C,0.150000*%
%ADD15C,0.381000*%
%ADD16C,0.100000*%
%ADD17C,0.457200*%
G04 APERTURE END LIST*
D10*
X168615131Y135894804D02*
X169115131Y135894804D01*
X169115131Y135109090D02*
X169115131Y136609090D01*
X168400845Y136609090D01*
X166972274Y135109090D02*
X167472274Y135823376D01*
X167829417Y135109090D02*
X167829417Y136609090D01*
X167257988Y136609090D01*
X167115131Y136537661D01*
X167043702Y136466233D01*
X166972274Y136323376D01*
X166972274Y136109090D01*
X167043702Y135966233D01*
X167115131Y135894804D01*
X167257988Y135823376D01*
X167829417Y135823376D01*
X165686560Y136109090D02*
X165686560Y135109090D01*
X166043702Y136680519D02*
X166400845Y135609090D01*
X165472274Y135609090D01*
X163972274Y136609090D02*
X163115131Y136609090D01*
X163543702Y135109090D02*
X163543702Y136609090D01*
X161972274Y136109090D02*
X161972274Y134894804D01*
X162043702Y134751947D01*
X162115131Y134680519D01*
X162257988Y134609090D01*
X162472274Y134609090D01*
X162615131Y134680519D01*
X161972274Y135180519D02*
X162115131Y135109090D01*
X162400845Y135109090D01*
X162543702Y135180519D01*
X162615131Y135251947D01*
X162686560Y135394804D01*
X162686560Y135823376D01*
X162615131Y135966233D01*
X162543702Y136037661D01*
X162400845Y136109090D01*
X162115131Y136109090D01*
X161972274Y136037661D01*
X160472274Y135109090D02*
X161329417Y135109090D01*
X160900845Y135109090D02*
X160900845Y136609090D01*
X161043702Y136394804D01*
X161186560Y136251947D01*
X161329417Y136180519D01*
X159972274Y136609090D02*
X158972274Y136609090D01*
X159615131Y135109090D01*
X158115131Y136609090D02*
X157972274Y136609090D01*
X157829417Y136537661D01*
X157757988Y136466233D01*
X157686560Y136323376D01*
X157615131Y136037661D01*
X157615131Y135680519D01*
X157686560Y135394804D01*
X157757988Y135251947D01*
X157829417Y135180519D01*
X157972274Y135109090D01*
X158115131Y135109090D01*
X158257988Y135180519D01*
X158329417Y135251947D01*
X158400845Y135394804D01*
X158472274Y135680519D01*
X158472274Y136037661D01*
X158400845Y136323376D01*
X158329417Y136466233D01*
X158257988Y136537661D01*
X158115131Y136609090D01*
X156757988Y136609090D02*
X156900845Y136537661D01*
X156972274Y136394804D01*
X156900845Y136251947D01*
X156757988Y136180519D01*
X156615131Y136251947D01*
X156543702Y136394804D01*
X156615131Y136537661D01*
X156757988Y136609090D01*
X153972274Y135109090D02*
X154686560Y135109090D01*
X154686560Y136609090D01*
X152829417Y135109090D02*
X152829417Y135894804D01*
X152900845Y136037661D01*
X153043702Y136109090D01*
X153329417Y136109090D01*
X153472274Y136037661D01*
X152829417Y135180519D02*
X152972274Y135109090D01*
X153329417Y135109090D01*
X153472274Y135180519D01*
X153543702Y135323376D01*
X153543702Y135466233D01*
X153472274Y135609090D01*
X153329417Y135680519D01*
X152972274Y135680519D01*
X152829417Y135751947D01*
X152115131Y135109090D02*
X152115131Y136109090D01*
X152115131Y135966233D02*
X152043702Y136037661D01*
X151900845Y136109090D01*
X151686560Y136109090D01*
X151543702Y136037661D01*
X151472274Y135894804D01*
X151472274Y135109090D01*
X151472274Y135894804D02*
X151400845Y136037661D01*
X151257988Y136109090D01*
X151043702Y136109090D01*
X150900845Y136037661D01*
X150829417Y135894804D01*
X150829417Y135109090D01*
X150115131Y135109090D02*
X150115131Y136109090D01*
X150115131Y136609090D02*
X150186560Y136537661D01*
X150115131Y136466233D01*
X150043702Y136537661D01*
X150115131Y136609090D01*
X150115131Y136466233D01*
X149400845Y136109090D02*
X149400845Y135109090D01*
X149400845Y135966233D02*
X149329417Y136037661D01*
X149186560Y136109090D01*
X148972274Y136109090D01*
X148829417Y136037661D01*
X148757988Y135894804D01*
X148757988Y135109090D01*
X147400845Y135109090D02*
X147400845Y135894804D01*
X147472274Y136037661D01*
X147615131Y136109090D01*
X147900845Y136109090D01*
X148043702Y136037661D01*
X147400845Y135180519D02*
X147543702Y135109090D01*
X147900845Y135109090D01*
X148043702Y135180519D01*
X148115131Y135323376D01*
X148115131Y135466233D01*
X148043702Y135609090D01*
X147900845Y135680519D01*
X147543702Y135680519D01*
X147400845Y135751947D01*
X146900845Y136109090D02*
X146329417Y136109090D01*
X146686560Y136609090D02*
X146686560Y135323376D01*
X146615131Y135180519D01*
X146472274Y135109090D01*
X146329417Y135109090D01*
X145257988Y135180519D02*
X145400845Y135109090D01*
X145686560Y135109090D01*
X145829417Y135180519D01*
X145900845Y135323376D01*
X145900845Y135894804D01*
X145829417Y136037661D01*
X145686560Y136109090D01*
X145400845Y136109090D01*
X145257988Y136037661D01*
X145186560Y135894804D01*
X145186560Y135751947D01*
X145900845Y135609090D01*
X173543702Y133966233D02*
X173472274Y134037661D01*
X173329417Y134109090D01*
X172972274Y134109090D01*
X172829417Y134037661D01*
X172757988Y133966233D01*
X172686560Y133823376D01*
X172686560Y133680519D01*
X172757988Y133466233D01*
X173615131Y132609090D01*
X172686560Y132609090D01*
X171400845Y133609090D02*
X171400845Y132609090D01*
X171757988Y134180519D02*
X172115131Y133109090D01*
X171186560Y133109090D01*
X170615131Y132609090D02*
X170615131Y133609090D01*
X170615131Y133466233D02*
X170543702Y133537661D01*
X170400845Y133609090D01*
X170186560Y133609090D01*
X170043702Y133537661D01*
X169972274Y133394804D01*
X169972274Y132609090D01*
X169972274Y133394804D02*
X169900845Y133537661D01*
X169757988Y133609090D01*
X169543702Y133609090D01*
X169400845Y133537661D01*
X169329417Y133394804D01*
X169329417Y132609090D01*
X168615131Y132609090D02*
X168615131Y133609090D01*
X168615131Y134109090D02*
X168686560Y134037661D01*
X168615131Y133966233D01*
X168543702Y134037661D01*
X168615131Y134109090D01*
X168615131Y133966233D01*
X167686560Y132609090D02*
X167829417Y132680519D01*
X167900845Y132823376D01*
X167900845Y134109090D01*
X166186560Y133609090D02*
X165615131Y133609090D01*
X165972274Y134109090D02*
X165972274Y132823376D01*
X165900845Y132680519D01*
X165757988Y132609090D01*
X165615131Y132609090D01*
X165115131Y132609090D02*
X165115131Y133609090D01*
X165115131Y133323376D02*
X165043702Y133466233D01*
X164972274Y133537661D01*
X164829417Y133609090D01*
X164686560Y133609090D01*
X163543702Y132609090D02*
X163543702Y133394804D01*
X163615131Y133537661D01*
X163757988Y133609090D01*
X164043702Y133609090D01*
X164186560Y133537661D01*
X163543702Y132680519D02*
X163686560Y132609090D01*
X164043702Y132609090D01*
X164186560Y132680519D01*
X164257988Y132823376D01*
X164257988Y132966233D01*
X164186560Y133109090D01*
X164043702Y133180519D01*
X163686560Y133180519D01*
X163543702Y133251947D01*
X162186560Y132680519D02*
X162329417Y132609090D01*
X162615131Y132609090D01*
X162757988Y132680519D01*
X162829417Y132751947D01*
X162900845Y132894804D01*
X162900845Y133323376D01*
X162829417Y133466233D01*
X162757988Y133537661D01*
X162615131Y133609090D01*
X162329417Y133609090D01*
X162186560Y133537661D01*
X160972274Y132680519D02*
X161115131Y132609090D01*
X161400845Y132609090D01*
X161543702Y132680519D01*
X161615131Y132823376D01*
X161615131Y133394804D01*
X161543702Y133537661D01*
X161400845Y133609090D01*
X161115131Y133609090D01*
X160972274Y133537661D01*
X160900845Y133394804D01*
X160900845Y133251947D01*
X161615131Y133109090D01*
X160329417Y132680519D02*
X160186560Y132609090D01*
X159900845Y132609090D01*
X159757988Y132680519D01*
X159686560Y132823376D01*
X159686560Y132894804D01*
X159757988Y133037661D01*
X159900845Y133109090D01*
X160115131Y133109090D01*
X160257988Y133180519D01*
X160329417Y133323376D01*
X160329417Y133394804D01*
X160257988Y133537661D01*
X160115131Y133609090D01*
X159900845Y133609090D01*
X159757988Y133537661D01*
X157686560Y132609090D02*
X157829417Y132680519D01*
X157900845Y132751947D01*
X157972274Y132894804D01*
X157972274Y133323376D01*
X157900845Y133466233D01*
X157829417Y133537661D01*
X157686560Y133609090D01*
X157472274Y133609090D01*
X157329417Y133537661D01*
X157257988Y133466233D01*
X157186560Y133323376D01*
X157186560Y132894804D01*
X157257988Y132751947D01*
X157329417Y132680519D01*
X157472274Y132609090D01*
X157686560Y132609090D01*
X156543702Y133609090D02*
X156543702Y132609090D01*
X156543702Y133466233D02*
X156472274Y133537661D01*
X156329417Y133609090D01*
X156115131Y133609090D01*
X155972274Y133537661D01*
X155900845Y133394804D01*
X155900845Y132609090D01*
X153257988Y132609090D02*
X154115131Y132609090D01*
X153686560Y132609090D02*
X153686560Y134109090D01*
X153829417Y133894804D01*
X153972274Y133751947D01*
X154115131Y133680519D01*
X152400845Y132609090D02*
X152543702Y132680519D01*
X152615131Y132751947D01*
X152686560Y132894804D01*
X152686560Y133323376D01*
X152615131Y133466233D01*
X152543702Y133537661D01*
X152400845Y133609090D01*
X152186560Y133609090D01*
X152043702Y133537661D01*
X151972274Y133466233D01*
X151900845Y133323376D01*
X151900845Y132894804D01*
X151972274Y132751947D01*
X152043702Y132680519D01*
X152186560Y132609090D01*
X152400845Y132609090D01*
X151400845Y133609090D02*
X150615131Y133609090D01*
X151400845Y132609090D01*
X150615131Y132609090D01*
X148257988Y132680519D02*
X148400845Y132609090D01*
X148686560Y132609090D01*
X148829417Y132680519D01*
X148900845Y132751947D01*
X148972274Y132894804D01*
X148972274Y133323376D01*
X148900845Y133466233D01*
X148829417Y133537661D01*
X148686560Y133609090D01*
X148400845Y133609090D01*
X148257988Y133537661D01*
X147400845Y132609090D02*
X147543702Y132680519D01*
X147615131Y132751947D01*
X147686560Y132894804D01*
X147686560Y133323376D01*
X147615131Y133466233D01*
X147543702Y133537661D01*
X147400845Y133609090D01*
X147186560Y133609090D01*
X147043702Y133537661D01*
X146972274Y133466233D01*
X146900845Y133323376D01*
X146900845Y132894804D01*
X146972274Y132751947D01*
X147043702Y132680519D01*
X147186560Y132609090D01*
X147400845Y132609090D01*
X146257988Y133609090D02*
X146257988Y132109090D01*
X146257988Y133537661D02*
X146115131Y133609090D01*
X145829417Y133609090D01*
X145686560Y133537661D01*
X145615131Y133466233D01*
X145543702Y133323376D01*
X145543702Y132894804D01*
X145615131Y132751947D01*
X145686560Y132680519D01*
X145829417Y132609090D01*
X146115131Y132609090D01*
X146257988Y132680519D01*
X144900845Y133609090D02*
X144900845Y132109090D01*
X144900845Y133537661D02*
X144757988Y133609090D01*
X144472274Y133609090D01*
X144329417Y133537661D01*
X144257988Y133466233D01*
X144186560Y133323376D01*
X144186560Y132894804D01*
X144257988Y132751947D01*
X144329417Y132680519D01*
X144472274Y132609090D01*
X144757988Y132609090D01*
X144900845Y132680519D01*
X142972274Y132680519D02*
X143115131Y132609090D01*
X143400845Y132609090D01*
X143543702Y132680519D01*
X143615131Y132823376D01*
X143615131Y133394804D01*
X143543702Y133537661D01*
X143400845Y133609090D01*
X143115131Y133609090D01*
X142972274Y133537661D01*
X142900845Y133394804D01*
X142900845Y133251947D01*
X143615131Y133109090D01*
X142257988Y132609090D02*
X142257988Y133609090D01*
X142257988Y133323376D02*
X142186560Y133466233D01*
X142115131Y133537661D01*
X141972274Y133609090D01*
X141829417Y133609090D01*
D11*
X125997358Y139391882D02*
X124330692Y139391882D01*
X123616406Y136772835D02*
X125997358Y136772835D01*
X125997358Y141772835D01*
X123616406Y141772835D01*
X121473549Y136772835D02*
X121473549Y140106168D01*
X121473549Y139153787D02*
X121235454Y139629978D01*
X120997358Y139868073D01*
X120521168Y140106168D01*
X120044978Y140106168D01*
X116235454Y140106168D02*
X116235454Y136058549D01*
X116473549Y135582359D01*
X116711644Y135344263D01*
X117187835Y135106168D01*
X117902120Y135106168D01*
X118378311Y135344263D01*
X116235454Y137010930D02*
X116711644Y136772835D01*
X117664025Y136772835D01*
X118140216Y137010930D01*
X118378311Y137249025D01*
X118616406Y137725216D01*
X118616406Y139153787D01*
X118378311Y139629978D01*
X118140216Y139868073D01*
X117664025Y140106168D01*
X116711644Y140106168D01*
X116235454Y139868073D01*
X113140216Y136772835D02*
X113616406Y137010930D01*
X113854501Y137249025D01*
X114092597Y137725216D01*
X114092597Y139153787D01*
X113854501Y139629978D01*
X113616406Y139868073D01*
X113140216Y140106168D01*
X112425930Y140106168D01*
X111949739Y139868073D01*
X111711644Y139629978D01*
X111473549Y139153787D01*
X111473549Y137725216D01*
X111711644Y137249025D01*
X111949739Y137010930D01*
X112425930Y136772835D01*
X113140216Y136772835D01*
X109330692Y136772835D02*
X109330692Y141772835D01*
X108140216Y141772835D01*
X107425930Y141534739D01*
X106949739Y141058549D01*
X106711644Y140582359D01*
X106473549Y139629978D01*
X106473549Y138915692D01*
X106711644Y137963311D01*
X106949739Y137487120D01*
X107425930Y137010930D01*
X108140216Y136772835D01*
X109330692Y136772835D01*
X103616406Y136772835D02*
X104092597Y137010930D01*
X104330692Y137249025D01*
X104568787Y137725216D01*
X104568787Y139153787D01*
X104330692Y139629978D01*
X104092597Y139868073D01*
X103616406Y140106168D01*
X102902120Y140106168D01*
X102425930Y139868073D01*
X102187835Y139629978D01*
X101949739Y139153787D01*
X101949739Y137725216D01*
X102187835Y137249025D01*
X102425930Y137010930D01*
X102902120Y136772835D01*
X103616406Y136772835D01*
X100283073Y136772835D02*
X97664025Y140106168D01*
X100283073Y140106168D02*
X97664025Y136772835D01*
X96473549Y141772835D02*
X93616406Y141772835D01*
X95044978Y136772835D02*
X95044978Y141772835D01*
X92425930Y141772835D02*
X91235454Y136772835D01*
X90283073Y140344263D01*
X89330692Y136772835D01*
X88140216Y141772835D01*
X82902120Y140106168D02*
X81711644Y136772835D01*
X80521168Y140106168D01*
X75997358Y136772835D02*
X78854501Y136772835D01*
X77425930Y136772835D02*
X77425930Y141772835D01*
X77902120Y141058549D01*
X78378311Y140582359D01*
X78854501Y140344263D01*
X73854501Y137249025D02*
X73616406Y137010930D01*
X73854501Y136772835D01*
X74092597Y137010930D01*
X73854501Y137249025D01*
X73854501Y136772835D01*
X69330692Y140106168D02*
X69330692Y136772835D01*
X70521168Y142010930D02*
X71711644Y138439501D01*
X68616406Y138439501D01*
D12*
X52487792Y87598763D02*
X53697316Y87598763D01*
X53697316Y90646763D01*
X51641125Y89195335D02*
X50794458Y89195335D01*
X50431601Y87598763D02*
X51641125Y87598763D01*
X51641125Y90646763D01*
X50431601Y90646763D01*
X48496363Y89195335D02*
X49343030Y89195335D01*
X49343030Y87598763D02*
X49343030Y90646763D01*
X48133506Y90646763D01*
X47528744Y90646763D02*
X46077316Y90646763D01*
X46803030Y87598763D02*
X46803030Y90646763D01*
X53697316Y82518763D02*
X53697316Y85566763D01*
X53697316Y84115335D02*
X52245887Y84115335D01*
X52245887Y82518763D02*
X52245887Y85566763D01*
X51157316Y83389620D02*
X49947792Y83389620D01*
X51399220Y82518763D02*
X50552554Y85566763D01*
X49705887Y82518763D01*
X48859220Y82518763D02*
X48859220Y85566763D01*
X47407792Y82518763D01*
X47407792Y85566763D01*
X46198268Y82518763D02*
X46198268Y85566763D01*
X45593506Y85566763D01*
X45230649Y85421620D01*
X44988744Y85131335D01*
X44867792Y84841049D01*
X44746839Y84260478D01*
X44746839Y83825049D01*
X44867792Y83244478D01*
X44988744Y82954192D01*
X45230649Y82663906D01*
X45593506Y82518763D01*
X46198268Y82518763D01*
D13*
X57360708Y157983921D02*
X57360708Y146583921D01*
X58560708Y157983921D02*
X57360708Y157983921D01*
X57360708Y146583921D02*
X58413248Y146583921D01*
X60113248Y146583921D02*
X67413248Y146580801D01*
X70160708Y146583921D02*
X69113248Y146583921D01*
X70160708Y157983921D02*
X70160708Y146583921D01*
X68960708Y157983921D02*
X70160708Y157983921D01*
X68960708Y157983921D02*
X68960708Y160783921D01*
X58560708Y160783921D02*
X68960708Y160783921D01*
D14*
X63013248Y158696601D02*
X63013248Y146606201D01*
X58581648Y158696601D02*
X68944848Y158696601D01*
X64513308Y158696601D02*
X64513308Y146606201D01*
D13*
X58560708Y157983921D02*
X58560708Y160783921D01*
D14*
X75166993Y131662065D02*
X75166993Y130662065D01*
X61166993Y130662065D02*
X61166993Y131662065D01*
X61166993Y131662065D02*
X62166993Y131662065D01*
X74166993Y131662065D02*
X75166993Y131662065D01*
X75166993Y117662065D02*
X74166993Y117662065D01*
X75166993Y118662065D02*
X75166993Y117662065D01*
X62166993Y117662065D02*
X61166993Y117662065D01*
X61166993Y117662065D02*
X61166993Y118662065D01*
X22861270Y38531694D02*
X23283888Y37625387D01*
X10595579Y31708731D02*
X10172961Y32615039D01*
X10172961Y32615039D02*
X11079268Y33037657D01*
X21954962Y38109076D02*
X22861270Y38531694D01*
X28777925Y25843385D02*
X27871618Y25420767D01*
X28355307Y26749693D02*
X28777925Y25843385D01*
X16995924Y20349348D02*
X16089616Y19926730D01*
X16089616Y19926730D02*
X15666998Y20833037D01*
X175247006Y129756577D02*
X175247006Y128756577D01*
X161247006Y128756577D02*
X161247006Y129756577D01*
X161247006Y129756577D02*
X162247006Y129756577D01*
X174247006Y129756577D02*
X175247006Y129756577D01*
X175247006Y115756577D02*
X174247006Y115756577D01*
X175247006Y116756577D02*
X175247006Y115756577D01*
X162247006Y115756577D02*
X161247006Y115756577D01*
X161247006Y115756577D02*
X161247006Y116756577D01*
X151367208Y129757638D02*
X151367208Y128757638D01*
X137367208Y128757638D02*
X137367208Y129757638D01*
X137367208Y129757638D02*
X138367208Y129757638D01*
X150367208Y129757638D02*
X151367208Y129757638D01*
X151367208Y115757638D02*
X150367208Y115757638D01*
X151367208Y116757638D02*
X151367208Y115757638D01*
X138367208Y115757638D02*
X137367208Y115757638D01*
X137367208Y115757638D02*
X137367208Y116757638D01*
X132316852Y132934230D02*
X132316852Y131934230D01*
X118316852Y131934230D02*
X118316852Y132934230D01*
X118316852Y132934230D02*
X119316852Y132934230D01*
X131316852Y132934230D02*
X132316852Y132934230D01*
X132316852Y118934230D02*
X131316852Y118934230D01*
X132316852Y119934230D02*
X132316852Y118934230D01*
X119316852Y118934230D02*
X118316852Y118934230D01*
X118316852Y118934230D02*
X118316852Y119934230D01*
X113267661Y134532434D02*
X113267661Y133532434D01*
X99267661Y133532434D02*
X99267661Y134532434D01*
X99267661Y134532434D02*
X100267661Y134532434D01*
X112267661Y134532434D02*
X113267661Y134532434D01*
X113267661Y120532434D02*
X112267661Y120532434D01*
X113267661Y121532434D02*
X113267661Y120532434D01*
X100267661Y120532434D02*
X99267661Y120532434D01*
X99267661Y120532434D02*
X99267661Y121532434D01*
X94217043Y132934590D02*
X94217043Y131934590D01*
X80217043Y131934590D02*
X80217043Y132934590D01*
X80217043Y132934590D02*
X81217043Y132934590D01*
X93217043Y132934590D02*
X94217043Y132934590D01*
X94217043Y118934590D02*
X93217043Y118934590D01*
X94217043Y119934590D02*
X94217043Y118934590D01*
X81217043Y118934590D02*
X80217043Y118934590D01*
X80217043Y118934590D02*
X80217043Y119934590D01*
X56117133Y131662155D02*
X56117133Y130662155D01*
X42117133Y130662155D02*
X42117133Y131662155D01*
X42117133Y131662155D02*
X43117133Y131662155D01*
X55117133Y131662155D02*
X56117133Y131662155D01*
X56117133Y117662155D02*
X55117133Y117662155D01*
X56117133Y118662155D02*
X56117133Y117662155D01*
X43117133Y117662155D02*
X42117133Y117662155D01*
X42117133Y117662155D02*
X42117133Y118662155D01*
X175247371Y110710238D02*
X175247371Y109710238D01*
X161247371Y109710238D02*
X161247371Y110710238D01*
X161247371Y110710238D02*
X162247371Y110710238D01*
X174247371Y110710238D02*
X175247371Y110710238D01*
X175247371Y96710238D02*
X174247371Y96710238D01*
X175247371Y97710238D02*
X175247371Y96710238D01*
X162247371Y96710238D02*
X161247371Y96710238D01*
X161247371Y96710238D02*
X161247371Y97710238D01*
X151367089Y110709968D02*
X151367089Y109709968D01*
X137367089Y109709968D02*
X137367089Y110709968D01*
X137367089Y110709968D02*
X138367089Y110709968D01*
X150367089Y110709968D02*
X151367089Y110709968D01*
X151367089Y96709968D02*
X150367089Y96709968D01*
X151367089Y97709968D02*
X151367089Y96709968D01*
X138367089Y96709968D02*
X137367089Y96709968D01*
X137367089Y96709968D02*
X137367089Y97709968D01*
X132317576Y113884749D02*
X132317576Y112884749D01*
X118317576Y112884749D02*
X118317576Y113884749D01*
X118317576Y113884749D02*
X119317576Y113884749D01*
X131317576Y113884749D02*
X132317576Y113884749D01*
X132317576Y99884749D02*
X131317576Y99884749D01*
X132317576Y100884749D02*
X132317576Y99884749D01*
X119317576Y99884749D02*
X118317576Y99884749D01*
X118317576Y99884749D02*
X118317576Y100884749D01*
X113267480Y115482531D02*
X113267480Y114482531D01*
X99267480Y114482531D02*
X99267480Y115482531D01*
X99267480Y115482531D02*
X100267480Y115482531D01*
X112267480Y115482531D02*
X113267480Y115482531D01*
X113267480Y101482531D02*
X112267480Y101482531D01*
X113267480Y102482531D02*
X113267480Y101482531D01*
X100267480Y101482531D02*
X99267480Y101482531D01*
X99267480Y101482531D02*
X99267480Y102482531D01*
X94216865Y113884686D02*
X94216865Y112884686D01*
X80216865Y112884686D02*
X80216865Y113884686D01*
X80216865Y113884686D02*
X81216865Y113884686D01*
X93216865Y113884686D02*
X94216865Y113884686D01*
X94216865Y99884686D02*
X93216865Y99884686D01*
X94216865Y100884686D02*
X94216865Y99884686D01*
X81216865Y99884686D02*
X80216865Y99884686D01*
X80216865Y99884686D02*
X80216865Y100884686D01*
X75166708Y112614760D02*
X75166708Y111614760D01*
X61166708Y111614760D02*
X61166708Y112614760D01*
X61166708Y112614760D02*
X62166708Y112614760D01*
X74166708Y112614760D02*
X75166708Y112614760D01*
X75166708Y98614760D02*
X74166708Y98614760D01*
X75166708Y99614760D02*
X75166708Y98614760D01*
X62166708Y98614760D02*
X61166708Y98614760D01*
X61166708Y98614760D02*
X61166708Y99614760D01*
X42116848Y107851679D02*
X43116848Y107851679D01*
X43116848Y93851679D02*
X42116848Y93851679D01*
X42116848Y93851679D02*
X42116848Y94851679D01*
X42116848Y106851679D02*
X42116848Y107851679D01*
X56116848Y107851679D02*
X56116848Y106851679D01*
X55116848Y107851679D02*
X56116848Y107851679D01*
X56116848Y94851679D02*
X56116848Y93851679D01*
X56116848Y93851679D02*
X55116848Y93851679D01*
X175247613Y91659427D02*
X175247613Y90659427D01*
X161247613Y90659427D02*
X161247613Y91659427D01*
X161247613Y91659427D02*
X162247613Y91659427D01*
X174247613Y91659427D02*
X175247613Y91659427D01*
X175247613Y77659427D02*
X174247613Y77659427D01*
X175247613Y78659427D02*
X175247613Y77659427D01*
X162247613Y77659427D02*
X161247613Y77659427D01*
X161247613Y77659427D02*
X161247613Y78659427D01*
X151367330Y91659159D02*
X151367330Y90659159D01*
X137367330Y90659159D02*
X137367330Y91659159D01*
X137367330Y91659159D02*
X138367330Y91659159D01*
X150367330Y91659159D02*
X151367330Y91659159D01*
X151367330Y77659159D02*
X150367330Y77659159D01*
X151367330Y78659159D02*
X151367330Y77659159D01*
X138367330Y77659159D02*
X137367330Y77659159D01*
X137367330Y77659159D02*
X137367330Y78659159D01*
X132317398Y94834847D02*
X132317398Y93834847D01*
X118317398Y93834847D02*
X118317398Y94834847D01*
X118317398Y94834847D02*
X119317398Y94834847D01*
X131317398Y94834847D02*
X132317398Y94834847D01*
X132317398Y80834847D02*
X131317398Y80834847D01*
X132317398Y81834847D02*
X132317398Y80834847D01*
X119317398Y80834847D02*
X118317398Y80834847D01*
X118317398Y80834847D02*
X118317398Y81834847D01*
X113267301Y96432627D02*
X113267301Y95432627D01*
X99267301Y95432627D02*
X99267301Y96432627D01*
X99267301Y96432627D02*
X100267301Y96432627D01*
X112267301Y96432627D02*
X113267301Y96432627D01*
X113267301Y82432627D02*
X112267301Y82432627D01*
X113267301Y83432627D02*
X113267301Y82432627D01*
X100267301Y82432627D02*
X99267301Y82432627D01*
X99267301Y82432627D02*
X99267301Y83432627D01*
X94217108Y94833876D02*
X94217108Y93833876D01*
X80217108Y93833876D02*
X80217108Y94833876D01*
X80217108Y94833876D02*
X81217108Y94833876D01*
X93217108Y94833876D02*
X94217108Y94833876D01*
X94217108Y80833876D02*
X93217108Y80833876D01*
X94217108Y81833876D02*
X94217108Y80833876D01*
X81217108Y80833876D02*
X80217108Y80833876D01*
X80217108Y80833876D02*
X80217108Y81833876D01*
X75166949Y93563950D02*
X75166949Y92563950D01*
X61166949Y92563950D02*
X61166949Y93563950D01*
X61166949Y93563950D02*
X62166949Y93563950D01*
X74166949Y93563950D02*
X75166949Y93563950D01*
X75166949Y79563950D02*
X74166949Y79563950D01*
X75166949Y80563950D02*
X75166949Y79563950D01*
X62166949Y79563950D02*
X61166949Y79563950D01*
X61166949Y79563950D02*
X61166949Y80563950D01*
X175247435Y72609525D02*
X175247435Y71609525D01*
X161247435Y71609525D02*
X161247435Y72609525D01*
X161247435Y72609525D02*
X162247435Y72609525D01*
X174247435Y72609525D02*
X175247435Y72609525D01*
X175247435Y58609525D02*
X174247435Y58609525D01*
X175247435Y59609525D02*
X175247435Y58609525D01*
X162247435Y58609525D02*
X161247435Y58609525D01*
X161247435Y58609525D02*
X161247435Y59609525D01*
X151367152Y72609256D02*
X151367152Y71609256D01*
X137367152Y71609256D02*
X137367152Y72609256D01*
X137367152Y72609256D02*
X138367152Y72609256D01*
X150367152Y72609256D02*
X151367152Y72609256D01*
X151367152Y58609256D02*
X150367152Y58609256D01*
X151367152Y59609256D02*
X151367152Y58609256D01*
X138367152Y58609256D02*
X137367152Y58609256D01*
X137367152Y58609256D02*
X137367152Y59609256D01*
X132317640Y75784036D02*
X132317640Y74784036D01*
X118317640Y74784036D02*
X118317640Y75784036D01*
X118317640Y75784036D02*
X119317640Y75784036D01*
X131317640Y75784036D02*
X132317640Y75784036D01*
X132317640Y61784036D02*
X131317640Y61784036D01*
X132317640Y62784036D02*
X132317640Y61784036D01*
X119317640Y61784036D02*
X118317640Y61784036D01*
X118317640Y61784036D02*
X118317640Y62784036D01*
X113267121Y77382724D02*
X113267121Y76382724D01*
X99267121Y76382724D02*
X99267121Y77382724D01*
X99267121Y77382724D02*
X100267121Y77382724D01*
X112267121Y77382724D02*
X113267121Y77382724D01*
X113267121Y63382724D02*
X112267121Y63382724D01*
X113267121Y64382724D02*
X113267121Y63382724D01*
X100267121Y63382724D02*
X99267121Y63382724D01*
X99267121Y63382724D02*
X99267121Y64382724D01*
X94216928Y75783974D02*
X94216928Y74783974D01*
X80216928Y74783974D02*
X80216928Y75783974D01*
X80216928Y75783974D02*
X81216928Y75783974D01*
X93216928Y75783974D02*
X94216928Y75783974D01*
X94216928Y61783974D02*
X93216928Y61783974D01*
X94216928Y62783974D02*
X94216928Y61783974D01*
X81216928Y61783974D02*
X80216928Y61783974D01*
X80216928Y61783974D02*
X80216928Y62783974D01*
X75166771Y74514046D02*
X75166771Y73514046D01*
X61166771Y73514046D02*
X61166771Y74514046D01*
X61166771Y74514046D02*
X62166771Y74514046D01*
X74166771Y74514046D02*
X75166771Y74514046D01*
X75166771Y60514046D02*
X74166771Y60514046D01*
X75166771Y61514046D02*
X75166771Y60514046D01*
X62166771Y60514046D02*
X61166771Y60514046D01*
X61166771Y60514046D02*
X61166771Y61514046D01*
X42117093Y79277615D02*
X43117093Y79277615D01*
X43117093Y65277615D02*
X42117093Y65277615D01*
X42117093Y65277615D02*
X42117093Y66277615D01*
X42117093Y78277615D02*
X42117093Y79277615D01*
X56117093Y79277615D02*
X56117093Y78277615D01*
X55117093Y79277615D02*
X56117093Y79277615D01*
X56117093Y66277615D02*
X56117093Y65277615D01*
X56117093Y65277615D02*
X55117093Y65277615D01*
X170416876Y53559173D02*
X170416876Y52559173D01*
X156416876Y52559173D02*
X156416876Y53559173D01*
X156416876Y53559173D02*
X157416876Y53559173D01*
X169416876Y53559173D02*
X170416876Y53559173D01*
X170416876Y39559173D02*
X169416876Y39559173D01*
X170416876Y40559173D02*
X170416876Y39559173D01*
X157416876Y39559173D02*
X156416876Y39559173D01*
X156416876Y39559173D02*
X156416876Y40559173D01*
X151366973Y53559352D02*
X151366973Y52559352D01*
X137366973Y52559352D02*
X137366973Y53559352D01*
X137366973Y53559352D02*
X138366973Y53559352D01*
X150366973Y53559352D02*
X151366973Y53559352D01*
X151366973Y39559352D02*
X150366973Y39559352D01*
X151366973Y40559352D02*
X151366973Y39559352D01*
X138366973Y39559352D02*
X137366973Y39559352D01*
X137366973Y39559352D02*
X137366973Y40559352D01*
X132317462Y56734132D02*
X132317462Y55734132D01*
X118317462Y55734132D02*
X118317462Y56734132D01*
X118317462Y56734132D02*
X119317462Y56734132D01*
X131317462Y56734132D02*
X132317462Y56734132D01*
X132317462Y42734132D02*
X131317462Y42734132D01*
X132317462Y43734132D02*
X132317462Y42734132D01*
X119317462Y42734132D02*
X118317462Y42734132D01*
X118317462Y42734132D02*
X118317462Y43734132D01*
X113267365Y58331913D02*
X113267365Y57331913D01*
X99267365Y57331913D02*
X99267365Y58331913D01*
X99267365Y58331913D02*
X100267365Y58331913D01*
X112267365Y58331913D02*
X113267365Y58331913D01*
X113267365Y44331913D02*
X112267365Y44331913D01*
X113267365Y45331913D02*
X113267365Y44331913D01*
X100267365Y44331913D02*
X99267365Y44331913D01*
X99267365Y44331913D02*
X99267365Y45331913D01*
X94217654Y56734493D02*
X94217654Y55734493D01*
X80217654Y55734493D02*
X80217654Y56734493D01*
X80217654Y56734493D02*
X81217654Y56734493D01*
X93217654Y56734493D02*
X94217654Y56734493D01*
X94217654Y42734493D02*
X93217654Y42734493D01*
X94217654Y43734493D02*
X94217654Y42734493D01*
X81217654Y42734493D02*
X80217654Y42734493D01*
X80217654Y42734493D02*
X80217654Y43734493D01*
X30913084Y21264759D02*
X31335702Y20358452D01*
X18647393Y14441796D02*
X18224775Y15348104D01*
X18224775Y15348104D02*
X19131082Y15770722D01*
X30006776Y20842141D02*
X30913084Y21264759D01*
X36829739Y8576450D02*
X35923432Y8153832D01*
X36407121Y9482758D02*
X36829739Y8576450D01*
X25047738Y3082413D02*
X24141430Y2659795D01*
X24141430Y2659795D02*
X23718812Y3566102D01*
X31463321Y32031014D02*
X32369628Y32453632D01*
X38286284Y19765323D02*
X37379976Y19342705D01*
X37379976Y19342705D02*
X36957358Y20249012D01*
X31885939Y31124706D02*
X31463321Y32031014D01*
X44151630Y37947669D02*
X44574248Y37041362D01*
X43245322Y37525051D02*
X44151630Y37947669D01*
X49645667Y26165668D02*
X50068285Y25259360D01*
X50068285Y25259360D02*
X49161978Y24836742D01*
X48727366Y40083579D02*
X49633673Y40506197D01*
X55550329Y27817888D02*
X54644021Y27395270D01*
X54644021Y27395270D02*
X54221403Y28301577D01*
X49149984Y39177271D02*
X48727366Y40083579D01*
X61415675Y46000234D02*
X61838293Y45093927D01*
X60509367Y45577616D02*
X61415675Y46000234D01*
X66909712Y34218233D02*
X67332330Y33311925D01*
X67332330Y33311925D02*
X66426023Y32889307D01*
X32076309Y63845879D02*
X32498927Y62939572D01*
X19810618Y57022916D02*
X19388000Y57929224D01*
X19388000Y57929224D02*
X20294307Y58351842D01*
X31170001Y63423261D02*
X32076309Y63845879D01*
X37992964Y51157570D02*
X37086657Y50734952D01*
X37570346Y52063878D02*
X37992964Y51157570D01*
X26210963Y45663533D02*
X25304655Y45240915D01*
X25304655Y45240915D02*
X24882037Y46147222D01*
X14812053Y55795425D02*
X15234671Y54889118D01*
X2546362Y48972462D02*
X2123744Y49878770D01*
X2123744Y49878770D02*
X3030051Y50301388D01*
X13905745Y55372807D02*
X14812053Y55795425D01*
X20728708Y43107116D02*
X19822401Y42684498D01*
X20306090Y44013424D02*
X20728708Y43107116D01*
X8946707Y37613079D02*
X8040399Y37190461D01*
X8040399Y37190461D02*
X7617781Y38096768D01*
D15*
X137367435Y148512610D02*
X136097435Y148512610D01*
X137367435Y145972610D02*
X137367435Y148512610D01*
X136097435Y145972610D02*
X137367435Y145972610D01*
X136097435Y149782610D02*
X136097435Y144702610D01*
X174197435Y149782610D02*
X136097435Y149782610D01*
X174197435Y144702610D02*
X174197435Y149782610D01*
X136097435Y144702610D02*
X174197435Y144702610D01*
D14*
X59360867Y149553744D02*
X60360867Y149553744D01*
X60360867Y149934697D01*
X60313248Y150029935D01*
X60265628Y150077554D01*
X60170390Y150125173D01*
X60027533Y150125173D01*
X59932295Y150077554D01*
X59884676Y150029935D01*
X59837057Y149934697D01*
X59837057Y149553744D01*
X60360867Y150839459D02*
X59646581Y150839459D01*
X59503724Y150791840D01*
X59408486Y150696601D01*
X59360867Y150553744D01*
X59360867Y150458506D01*
X59741819Y151315649D02*
X59741819Y152077554D01*
X60360867Y152458506D02*
X60360867Y153077554D01*
X59979914Y152744221D01*
X59979914Y152887078D01*
X59932295Y152982316D01*
X59884676Y153029935D01*
X59789438Y153077554D01*
X59551343Y153077554D01*
X59456105Y153029935D01*
X59408486Y152982316D01*
X59360867Y152887078D01*
X59360867Y152601363D01*
X59408486Y152506125D01*
X59456105Y152458506D01*
X60265628Y153458506D02*
X60313248Y153506125D01*
X60360867Y153601363D01*
X60360867Y153839459D01*
X60313248Y153934697D01*
X60265628Y153982316D01*
X60170390Y154029935D01*
X60075152Y154029935D01*
X59932295Y153982316D01*
X59360867Y153410887D01*
X59360867Y154029935D01*
X60360867Y154648982D02*
X60360867Y154744221D01*
X60313248Y154839459D01*
X60265628Y154887078D01*
X60170390Y154934697D01*
X59979914Y154982316D01*
X59741819Y154982316D01*
X59551343Y154934697D01*
X59456105Y154887078D01*
X59408486Y154839459D01*
X59360867Y154744221D01*
X59360867Y154648982D01*
X59408486Y154553744D01*
X59456105Y154506125D01*
X59551343Y154458506D01*
X59741819Y154410887D01*
X59979914Y154410887D01*
X60170390Y154458506D01*
X60265628Y154506125D01*
X60313248Y154553744D01*
X60360867Y154648982D01*
X59884676Y155410887D02*
X59884676Y155744221D01*
X59360867Y155887078D02*
X59360867Y155410887D01*
X60360867Y155410887D01*
X60360867Y155887078D01*
X67260867Y149652554D02*
X68260867Y149652554D01*
X68260867Y150033506D01*
X68213248Y150128744D01*
X68165628Y150176363D01*
X68070390Y150223982D01*
X67927533Y150223982D01*
X67832295Y150176363D01*
X67784676Y150128744D01*
X67737057Y150033506D01*
X67737057Y149652554D01*
X68260867Y150938268D02*
X67546581Y150938268D01*
X67403724Y150890649D01*
X67308486Y150795411D01*
X67260867Y150652554D01*
X67260867Y150557316D01*
X67641819Y151414459D02*
X67641819Y152176363D01*
X68260867Y152557316D02*
X68260867Y153176363D01*
X67879914Y152843030D01*
X67879914Y152985887D01*
X67832295Y153081125D01*
X67784676Y153128744D01*
X67689438Y153176363D01*
X67451343Y153176363D01*
X67356105Y153128744D01*
X67308486Y153081125D01*
X67260867Y152985887D01*
X67260867Y152700173D01*
X67308486Y152604935D01*
X67356105Y152557316D01*
X68165628Y153557316D02*
X68213248Y153604935D01*
X68260867Y153700173D01*
X68260867Y153938268D01*
X68213248Y154033506D01*
X68165628Y154081125D01*
X68070390Y154128744D01*
X67975152Y154128744D01*
X67832295Y154081125D01*
X67260867Y153509697D01*
X67260867Y154128744D01*
X68260867Y154747792D02*
X68260867Y154843030D01*
X68213248Y154938268D01*
X68165628Y154985887D01*
X68070390Y155033506D01*
X67879914Y155081125D01*
X67641819Y155081125D01*
X67451343Y155033506D01*
X67356105Y154985887D01*
X67308486Y154938268D01*
X67260867Y154843030D01*
X67260867Y154747792D01*
X67308486Y154652554D01*
X67356105Y154604935D01*
X67451343Y154557316D01*
X67641819Y154509697D01*
X67879914Y154509697D01*
X68070390Y154557316D01*
X68165628Y154604935D01*
X68213248Y154652554D01*
X68260867Y154747792D01*
X67546581Y155462078D02*
X67546581Y155938268D01*
X67260867Y155366840D02*
X68260867Y155700173D01*
X67260867Y156033506D01*
D16*
X69600326Y121584732D02*
X69500326Y121551399D01*
X69333659Y121551399D01*
X69266993Y121584732D01*
X69233659Y121618065D01*
X69200326Y121684732D01*
X69200326Y121751399D01*
X69233659Y121818065D01*
X69266993Y121851399D01*
X69333659Y121884732D01*
X69466993Y121918065D01*
X69533659Y121951399D01*
X69566993Y121984732D01*
X69600326Y122051399D01*
X69600326Y122118065D01*
X69566993Y122184732D01*
X69533659Y122218065D01*
X69466993Y122251399D01*
X69300326Y122251399D01*
X69200326Y122218065D01*
X68966993Y122251399D02*
X68800326Y121551399D01*
X68666993Y122051399D01*
X68533659Y121551399D01*
X68366993Y122251399D01*
X67766993Y122251399D02*
X68100326Y122251399D01*
X68133659Y121918065D01*
X68100326Y121951399D01*
X68033659Y121984732D01*
X67866993Y121984732D01*
X67800326Y121951399D01*
X67766993Y121918065D01*
X67733659Y121851399D01*
X67733659Y121684732D01*
X67766993Y121618065D01*
X67800326Y121584732D01*
X67866993Y121551399D01*
X68033659Y121551399D01*
X68100326Y121584732D01*
X68133659Y121618065D01*
X67433659Y121618065D02*
X67400326Y121584732D01*
X67433659Y121551399D01*
X67466993Y121584732D01*
X67433659Y121618065D01*
X67433659Y121551399D01*
X67433659Y121984732D02*
X67400326Y121951399D01*
X67433659Y121918065D01*
X67466993Y121951399D01*
X67433659Y121984732D01*
X67433659Y121918065D01*
X66766993Y122251399D02*
X67100326Y122251399D01*
X67133659Y121918065D01*
X67100326Y121951399D01*
X67033659Y121984732D01*
X66866993Y121984732D01*
X66800326Y121951399D01*
X66766993Y121918065D01*
X66733659Y121851399D01*
X66733659Y121684732D01*
X66766993Y121618065D01*
X66800326Y121584732D01*
X66866993Y121551399D01*
X67033659Y121551399D01*
X67100326Y121584732D01*
X67133659Y121618065D01*
X22075021Y27045954D02*
X21998477Y26973482D01*
X21847426Y26903046D01*
X21772918Y26905081D01*
X21728620Y26921204D01*
X21670236Y26967538D01*
X21642061Y27027958D01*
X21644097Y27102466D01*
X21660220Y27146763D01*
X21706553Y27205148D01*
X21813307Y27291708D01*
X21859640Y27350092D01*
X21875763Y27394390D01*
X21877799Y27468898D01*
X21849624Y27529318D01*
X21791239Y27575652D01*
X21746942Y27591775D01*
X21672434Y27593810D01*
X21521383Y27523374D01*
X21444839Y27450902D01*
X21219280Y27382501D02*
X21364062Y26677649D01*
X21031911Y27074454D01*
X21122379Y26564951D01*
X20675495Y27128930D01*
X20312972Y26959883D02*
X20252552Y26931708D01*
X20206219Y26873323D01*
X20190096Y26829026D01*
X20188060Y26754518D01*
X20214199Y26619590D01*
X20284635Y26468539D01*
X20371194Y26361785D01*
X20429579Y26315452D01*
X20473877Y26299329D01*
X20548385Y26297293D01*
X20608805Y26325467D01*
X20655138Y26383852D01*
X20671261Y26428150D01*
X20673297Y26502658D01*
X20647158Y26637586D01*
X20576722Y26788637D01*
X20490162Y26895391D01*
X20431778Y26941724D01*
X20387480Y26957847D01*
X20312972Y26959883D01*
X20097266Y26160491D02*
X20081143Y26116194D01*
X20125441Y26100071D01*
X20141564Y26144369D01*
X20097266Y26160491D01*
X20125441Y26100071D01*
X19942306Y26492804D02*
X19926183Y26448507D01*
X19970481Y26432384D01*
X19986604Y26476681D01*
X19942306Y26492804D01*
X19970481Y26432384D01*
X19354224Y26255356D02*
X19551446Y25832413D01*
X19392577Y26567475D02*
X19754938Y26184757D01*
X19362204Y26001623D01*
X169680339Y119679244D02*
X169580339Y119645911D01*
X169413672Y119645911D01*
X169347006Y119679244D01*
X169313672Y119712577D01*
X169280339Y119779244D01*
X169280339Y119845911D01*
X169313672Y119912577D01*
X169347006Y119945911D01*
X169413672Y119979244D01*
X169547006Y120012577D01*
X169613672Y120045911D01*
X169647006Y120079244D01*
X169680339Y120145911D01*
X169680339Y120212577D01*
X169647006Y120279244D01*
X169613672Y120312577D01*
X169547006Y120345911D01*
X169380339Y120345911D01*
X169280339Y120312577D01*
X169047006Y120345911D02*
X168880339Y119645911D01*
X168747006Y120145911D01*
X168613672Y119645911D01*
X168447006Y120345911D01*
X167847006Y120345911D02*
X168180339Y120345911D01*
X168213672Y120012577D01*
X168180339Y120045911D01*
X168113672Y120079244D01*
X167947006Y120079244D01*
X167880339Y120045911D01*
X167847006Y120012577D01*
X167813672Y119945911D01*
X167813672Y119779244D01*
X167847006Y119712577D01*
X167880339Y119679244D01*
X167947006Y119645911D01*
X168113672Y119645911D01*
X168180339Y119679244D01*
X168213672Y119712577D01*
X167513672Y119712577D02*
X167480339Y119679244D01*
X167513672Y119645911D01*
X167547006Y119679244D01*
X167513672Y119712577D01*
X167513672Y119645911D01*
X167513672Y120079244D02*
X167480339Y120045911D01*
X167513672Y120012577D01*
X167547006Y120045911D01*
X167513672Y120079244D01*
X167513672Y120012577D01*
X167047006Y120345911D02*
X166980339Y120345911D01*
X166913672Y120312577D01*
X166880339Y120279244D01*
X166847006Y120212577D01*
X166813672Y120079244D01*
X166813672Y119912577D01*
X166847006Y119779244D01*
X166880339Y119712577D01*
X166913672Y119679244D01*
X166980339Y119645911D01*
X167047006Y119645911D01*
X167113672Y119679244D01*
X167147006Y119712577D01*
X167180339Y119779244D01*
X167213672Y119912577D01*
X167213672Y120079244D01*
X167180339Y120212577D01*
X167147006Y120279244D01*
X167113672Y120312577D01*
X167047006Y120345911D01*
X145800541Y119680305D02*
X145700541Y119646972D01*
X145533874Y119646972D01*
X145467208Y119680305D01*
X145433874Y119713638D01*
X145400541Y119780305D01*
X145400541Y119846972D01*
X145433874Y119913638D01*
X145467208Y119946972D01*
X145533874Y119980305D01*
X145667208Y120013638D01*
X145733874Y120046972D01*
X145767208Y120080305D01*
X145800541Y120146972D01*
X145800541Y120213638D01*
X145767208Y120280305D01*
X145733874Y120313638D01*
X145667208Y120346972D01*
X145500541Y120346972D01*
X145400541Y120313638D01*
X145167208Y120346972D02*
X145000541Y119646972D01*
X144867208Y120146972D01*
X144733874Y119646972D01*
X144567208Y120346972D01*
X143967208Y120346972D02*
X144300541Y120346972D01*
X144333874Y120013638D01*
X144300541Y120046972D01*
X144233874Y120080305D01*
X144067208Y120080305D01*
X144000541Y120046972D01*
X143967208Y120013638D01*
X143933874Y119946972D01*
X143933874Y119780305D01*
X143967208Y119713638D01*
X144000541Y119680305D01*
X144067208Y119646972D01*
X144233874Y119646972D01*
X144300541Y119680305D01*
X144333874Y119713638D01*
X143633874Y119713638D02*
X143600541Y119680305D01*
X143633874Y119646972D01*
X143667208Y119680305D01*
X143633874Y119713638D01*
X143633874Y119646972D01*
X143633874Y120080305D02*
X143600541Y120046972D01*
X143633874Y120013638D01*
X143667208Y120046972D01*
X143633874Y120080305D01*
X143633874Y120013638D01*
X142933874Y119646972D02*
X143333874Y119646972D01*
X143133874Y119646972D02*
X143133874Y120346972D01*
X143200541Y120246972D01*
X143267208Y120180305D01*
X143333874Y120146972D01*
X126750185Y122856897D02*
X126650185Y122823564D01*
X126483518Y122823564D01*
X126416852Y122856897D01*
X126383518Y122890230D01*
X126350185Y122956897D01*
X126350185Y123023564D01*
X126383518Y123090230D01*
X126416852Y123123564D01*
X126483518Y123156897D01*
X126616852Y123190230D01*
X126683518Y123223564D01*
X126716852Y123256897D01*
X126750185Y123323564D01*
X126750185Y123390230D01*
X126716852Y123456897D01*
X126683518Y123490230D01*
X126616852Y123523564D01*
X126450185Y123523564D01*
X126350185Y123490230D01*
X126116852Y123523564D02*
X125950185Y122823564D01*
X125816852Y123323564D01*
X125683518Y122823564D01*
X125516852Y123523564D01*
X124916852Y123523564D02*
X125250185Y123523564D01*
X125283518Y123190230D01*
X125250185Y123223564D01*
X125183518Y123256897D01*
X125016852Y123256897D01*
X124950185Y123223564D01*
X124916852Y123190230D01*
X124883518Y123123564D01*
X124883518Y122956897D01*
X124916852Y122890230D01*
X124950185Y122856897D01*
X125016852Y122823564D01*
X125183518Y122823564D01*
X125250185Y122856897D01*
X125283518Y122890230D01*
X124583518Y122890230D02*
X124550185Y122856897D01*
X124583518Y122823564D01*
X124616852Y122856897D01*
X124583518Y122890230D01*
X124583518Y122823564D01*
X124583518Y123256897D02*
X124550185Y123223564D01*
X124583518Y123190230D01*
X124616852Y123223564D01*
X124583518Y123256897D01*
X124583518Y123190230D01*
X124283518Y123456897D02*
X124250185Y123490230D01*
X124183518Y123523564D01*
X124016852Y123523564D01*
X123950185Y123490230D01*
X123916852Y123456897D01*
X123883518Y123390230D01*
X123883518Y123323564D01*
X123916852Y123223564D01*
X124316852Y122823564D01*
X123883518Y122823564D01*
X107700994Y124455101D02*
X107600994Y124421768D01*
X107434327Y124421768D01*
X107367661Y124455101D01*
X107334327Y124488434D01*
X107300994Y124555101D01*
X107300994Y124621768D01*
X107334327Y124688434D01*
X107367661Y124721768D01*
X107434327Y124755101D01*
X107567661Y124788434D01*
X107634327Y124821768D01*
X107667661Y124855101D01*
X107700994Y124921768D01*
X107700994Y124988434D01*
X107667661Y125055101D01*
X107634327Y125088434D01*
X107567661Y125121768D01*
X107400994Y125121768D01*
X107300994Y125088434D01*
X107067661Y125121768D02*
X106900994Y124421768D01*
X106767661Y124921768D01*
X106634327Y124421768D01*
X106467661Y125121768D01*
X105867661Y125121768D02*
X106200994Y125121768D01*
X106234327Y124788434D01*
X106200994Y124821768D01*
X106134327Y124855101D01*
X105967661Y124855101D01*
X105900994Y124821768D01*
X105867661Y124788434D01*
X105834327Y124721768D01*
X105834327Y124555101D01*
X105867661Y124488434D01*
X105900994Y124455101D01*
X105967661Y124421768D01*
X106134327Y124421768D01*
X106200994Y124455101D01*
X106234327Y124488434D01*
X105534327Y124488434D02*
X105500994Y124455101D01*
X105534327Y124421768D01*
X105567661Y124455101D01*
X105534327Y124488434D01*
X105534327Y124421768D01*
X105534327Y124855101D02*
X105500994Y124821768D01*
X105534327Y124788434D01*
X105567661Y124821768D01*
X105534327Y124855101D01*
X105534327Y124788434D01*
X105267661Y125121768D02*
X104834327Y125121768D01*
X105067661Y124855101D01*
X104967661Y124855101D01*
X104900994Y124821768D01*
X104867661Y124788434D01*
X104834327Y124721768D01*
X104834327Y124555101D01*
X104867661Y124488434D01*
X104900994Y124455101D01*
X104967661Y124421768D01*
X105167661Y124421768D01*
X105234327Y124455101D01*
X105267661Y124488434D01*
X88650376Y122857257D02*
X88550376Y122823924D01*
X88383709Y122823924D01*
X88317043Y122857257D01*
X88283709Y122890590D01*
X88250376Y122957257D01*
X88250376Y123023924D01*
X88283709Y123090590D01*
X88317043Y123123924D01*
X88383709Y123157257D01*
X88517043Y123190590D01*
X88583709Y123223924D01*
X88617043Y123257257D01*
X88650376Y123323924D01*
X88650376Y123390590D01*
X88617043Y123457257D01*
X88583709Y123490590D01*
X88517043Y123523924D01*
X88350376Y123523924D01*
X88250376Y123490590D01*
X88017043Y123523924D02*
X87850376Y122823924D01*
X87717043Y123323924D01*
X87583709Y122823924D01*
X87417043Y123523924D01*
X86817043Y123523924D02*
X87150376Y123523924D01*
X87183709Y123190590D01*
X87150376Y123223924D01*
X87083709Y123257257D01*
X86917043Y123257257D01*
X86850376Y123223924D01*
X86817043Y123190590D01*
X86783709Y123123924D01*
X86783709Y122957257D01*
X86817043Y122890590D01*
X86850376Y122857257D01*
X86917043Y122823924D01*
X87083709Y122823924D01*
X87150376Y122857257D01*
X87183709Y122890590D01*
X86483709Y122890590D02*
X86450376Y122857257D01*
X86483709Y122823924D01*
X86517043Y122857257D01*
X86483709Y122890590D01*
X86483709Y122823924D01*
X86483709Y123257257D02*
X86450376Y123223924D01*
X86483709Y123190590D01*
X86517043Y123223924D01*
X86483709Y123257257D01*
X86483709Y123190590D01*
X85850376Y123290590D02*
X85850376Y122823924D01*
X86017043Y123557257D02*
X86183709Y123057257D01*
X85750376Y123057257D01*
X50550466Y121584822D02*
X50450466Y121551489D01*
X50283799Y121551489D01*
X50217133Y121584822D01*
X50183799Y121618155D01*
X50150466Y121684822D01*
X50150466Y121751489D01*
X50183799Y121818155D01*
X50217133Y121851489D01*
X50283799Y121884822D01*
X50417133Y121918155D01*
X50483799Y121951489D01*
X50517133Y121984822D01*
X50550466Y122051489D01*
X50550466Y122118155D01*
X50517133Y122184822D01*
X50483799Y122218155D01*
X50417133Y122251489D01*
X50250466Y122251489D01*
X50150466Y122218155D01*
X49917133Y122251489D02*
X49750466Y121551489D01*
X49617133Y122051489D01*
X49483799Y121551489D01*
X49317133Y122251489D01*
X48717133Y122251489D02*
X49050466Y122251489D01*
X49083799Y121918155D01*
X49050466Y121951489D01*
X48983799Y121984822D01*
X48817133Y121984822D01*
X48750466Y121951489D01*
X48717133Y121918155D01*
X48683799Y121851489D01*
X48683799Y121684822D01*
X48717133Y121618155D01*
X48750466Y121584822D01*
X48817133Y121551489D01*
X48983799Y121551489D01*
X49050466Y121584822D01*
X49083799Y121618155D01*
X48383799Y121618155D02*
X48350466Y121584822D01*
X48383799Y121551489D01*
X48417133Y121584822D01*
X48383799Y121618155D01*
X48383799Y121551489D01*
X48383799Y121984822D02*
X48350466Y121951489D01*
X48383799Y121918155D01*
X48417133Y121951489D01*
X48383799Y121984822D01*
X48383799Y121918155D01*
X47750466Y122251489D02*
X47883799Y122251489D01*
X47950466Y122218155D01*
X47983799Y122184822D01*
X48050466Y122084822D01*
X48083799Y121951489D01*
X48083799Y121684822D01*
X48050466Y121618155D01*
X48017133Y121584822D01*
X47950466Y121551489D01*
X47817133Y121551489D01*
X47750466Y121584822D01*
X47717133Y121618155D01*
X47683799Y121684822D01*
X47683799Y121851489D01*
X47717133Y121918155D01*
X47750466Y121951489D01*
X47817133Y121984822D01*
X47950466Y121984822D01*
X48017133Y121951489D01*
X48050466Y121918155D01*
X48083799Y121851489D01*
X169680704Y100632905D02*
X169580704Y100599572D01*
X169414037Y100599572D01*
X169347371Y100632905D01*
X169314037Y100666238D01*
X169280704Y100732905D01*
X169280704Y100799572D01*
X169314037Y100866238D01*
X169347371Y100899572D01*
X169414037Y100932905D01*
X169547371Y100966238D01*
X169614037Y100999572D01*
X169647371Y101032905D01*
X169680704Y101099572D01*
X169680704Y101166238D01*
X169647371Y101232905D01*
X169614037Y101266238D01*
X169547371Y101299572D01*
X169380704Y101299572D01*
X169280704Y101266238D01*
X169047371Y101299572D02*
X168880704Y100599572D01*
X168747371Y101099572D01*
X168614037Y100599572D01*
X168447371Y101299572D01*
X167880704Y101066238D02*
X167880704Y100599572D01*
X168047371Y101332905D02*
X168214037Y100832905D01*
X167780704Y100832905D01*
X167514037Y100666238D02*
X167480704Y100632905D01*
X167514037Y100599572D01*
X167547371Y100632905D01*
X167514037Y100666238D01*
X167514037Y100599572D01*
X167514037Y101032905D02*
X167480704Y100999572D01*
X167514037Y100966238D01*
X167547371Y100999572D01*
X167514037Y101032905D01*
X167514037Y100966238D01*
X167047371Y101299572D02*
X166980704Y101299572D01*
X166914037Y101266238D01*
X166880704Y101232905D01*
X166847371Y101166238D01*
X166814037Y101032905D01*
X166814037Y100866238D01*
X166847371Y100732905D01*
X166880704Y100666238D01*
X166914037Y100632905D01*
X166980704Y100599572D01*
X167047371Y100599572D01*
X167114037Y100632905D01*
X167147371Y100666238D01*
X167180704Y100732905D01*
X167214037Y100866238D01*
X167214037Y101032905D01*
X167180704Y101166238D01*
X167147371Y101232905D01*
X167114037Y101266238D01*
X167047371Y101299572D01*
X145800422Y100632635D02*
X145700422Y100599302D01*
X145533755Y100599302D01*
X145467089Y100632635D01*
X145433755Y100665968D01*
X145400422Y100732635D01*
X145400422Y100799302D01*
X145433755Y100865968D01*
X145467089Y100899302D01*
X145533755Y100932635D01*
X145667089Y100965968D01*
X145733755Y100999302D01*
X145767089Y101032635D01*
X145800422Y101099302D01*
X145800422Y101165968D01*
X145767089Y101232635D01*
X145733755Y101265968D01*
X145667089Y101299302D01*
X145500422Y101299302D01*
X145400422Y101265968D01*
X145167089Y101299302D02*
X145000422Y100599302D01*
X144867089Y101099302D01*
X144733755Y100599302D01*
X144567089Y101299302D01*
X144000422Y101065968D02*
X144000422Y100599302D01*
X144167089Y101332635D02*
X144333755Y100832635D01*
X143900422Y100832635D01*
X143633755Y100665968D02*
X143600422Y100632635D01*
X143633755Y100599302D01*
X143667089Y100632635D01*
X143633755Y100665968D01*
X143633755Y100599302D01*
X143633755Y101032635D02*
X143600422Y100999302D01*
X143633755Y100965968D01*
X143667089Y100999302D01*
X143633755Y101032635D01*
X143633755Y100965968D01*
X142933755Y100599302D02*
X143333755Y100599302D01*
X143133755Y100599302D02*
X143133755Y101299302D01*
X143200422Y101199302D01*
X143267089Y101132635D01*
X143333755Y101099302D01*
X126750909Y103807416D02*
X126650909Y103774083D01*
X126484242Y103774083D01*
X126417576Y103807416D01*
X126384242Y103840749D01*
X126350909Y103907416D01*
X126350909Y103974083D01*
X126384242Y104040749D01*
X126417576Y104074083D01*
X126484242Y104107416D01*
X126617576Y104140749D01*
X126684242Y104174083D01*
X126717576Y104207416D01*
X126750909Y104274083D01*
X126750909Y104340749D01*
X126717576Y104407416D01*
X126684242Y104440749D01*
X126617576Y104474083D01*
X126450909Y104474083D01*
X126350909Y104440749D01*
X126117576Y104474083D02*
X125950909Y103774083D01*
X125817576Y104274083D01*
X125684242Y103774083D01*
X125517576Y104474083D01*
X124950909Y104240749D02*
X124950909Y103774083D01*
X125117576Y104507416D02*
X125284242Y104007416D01*
X124850909Y104007416D01*
X124584242Y103840749D02*
X124550909Y103807416D01*
X124584242Y103774083D01*
X124617576Y103807416D01*
X124584242Y103840749D01*
X124584242Y103774083D01*
X124584242Y104207416D02*
X124550909Y104174083D01*
X124584242Y104140749D01*
X124617576Y104174083D01*
X124584242Y104207416D01*
X124584242Y104140749D01*
X124284242Y104407416D02*
X124250909Y104440749D01*
X124184242Y104474083D01*
X124017576Y104474083D01*
X123950909Y104440749D01*
X123917576Y104407416D01*
X123884242Y104340749D01*
X123884242Y104274083D01*
X123917576Y104174083D01*
X124317576Y103774083D01*
X123884242Y103774083D01*
X107700813Y105405198D02*
X107600813Y105371865D01*
X107434146Y105371865D01*
X107367480Y105405198D01*
X107334146Y105438531D01*
X107300813Y105505198D01*
X107300813Y105571865D01*
X107334146Y105638531D01*
X107367480Y105671865D01*
X107434146Y105705198D01*
X107567480Y105738531D01*
X107634146Y105771865D01*
X107667480Y105805198D01*
X107700813Y105871865D01*
X107700813Y105938531D01*
X107667480Y106005198D01*
X107634146Y106038531D01*
X107567480Y106071865D01*
X107400813Y106071865D01*
X107300813Y106038531D01*
X107067480Y106071865D02*
X106900813Y105371865D01*
X106767480Y105871865D01*
X106634146Y105371865D01*
X106467480Y106071865D01*
X105900813Y105838531D02*
X105900813Y105371865D01*
X106067480Y106105198D02*
X106234146Y105605198D01*
X105800813Y105605198D01*
X105534146Y105438531D02*
X105500813Y105405198D01*
X105534146Y105371865D01*
X105567480Y105405198D01*
X105534146Y105438531D01*
X105534146Y105371865D01*
X105534146Y105805198D02*
X105500813Y105771865D01*
X105534146Y105738531D01*
X105567480Y105771865D01*
X105534146Y105805198D01*
X105534146Y105738531D01*
X105267480Y106071865D02*
X104834146Y106071865D01*
X105067480Y105805198D01*
X104967480Y105805198D01*
X104900813Y105771865D01*
X104867480Y105738531D01*
X104834146Y105671865D01*
X104834146Y105505198D01*
X104867480Y105438531D01*
X104900813Y105405198D01*
X104967480Y105371865D01*
X105167480Y105371865D01*
X105234146Y105405198D01*
X105267480Y105438531D01*
X88650198Y103807353D02*
X88550198Y103774020D01*
X88383531Y103774020D01*
X88316865Y103807353D01*
X88283531Y103840686D01*
X88250198Y103907353D01*
X88250198Y103974020D01*
X88283531Y104040686D01*
X88316865Y104074020D01*
X88383531Y104107353D01*
X88516865Y104140686D01*
X88583531Y104174020D01*
X88616865Y104207353D01*
X88650198Y104274020D01*
X88650198Y104340686D01*
X88616865Y104407353D01*
X88583531Y104440686D01*
X88516865Y104474020D01*
X88350198Y104474020D01*
X88250198Y104440686D01*
X88016865Y104474020D02*
X87850198Y103774020D01*
X87716865Y104274020D01*
X87583531Y103774020D01*
X87416865Y104474020D01*
X86850198Y104240686D02*
X86850198Y103774020D01*
X87016865Y104507353D02*
X87183531Y104007353D01*
X86750198Y104007353D01*
X86483531Y103840686D02*
X86450198Y103807353D01*
X86483531Y103774020D01*
X86516865Y103807353D01*
X86483531Y103840686D01*
X86483531Y103774020D01*
X86483531Y104207353D02*
X86450198Y104174020D01*
X86483531Y104140686D01*
X86516865Y104174020D01*
X86483531Y104207353D01*
X86483531Y104140686D01*
X85850198Y104240686D02*
X85850198Y103774020D01*
X86016865Y104507353D02*
X86183531Y104007353D01*
X85750198Y104007353D01*
X69600041Y102537427D02*
X69500041Y102504094D01*
X69333374Y102504094D01*
X69266708Y102537427D01*
X69233374Y102570760D01*
X69200041Y102637427D01*
X69200041Y102704094D01*
X69233374Y102770760D01*
X69266708Y102804094D01*
X69333374Y102837427D01*
X69466708Y102870760D01*
X69533374Y102904094D01*
X69566708Y102937427D01*
X69600041Y103004094D01*
X69600041Y103070760D01*
X69566708Y103137427D01*
X69533374Y103170760D01*
X69466708Y103204094D01*
X69300041Y103204094D01*
X69200041Y103170760D01*
X68966708Y103204094D02*
X68800041Y102504094D01*
X68666708Y103004094D01*
X68533374Y102504094D01*
X68366708Y103204094D01*
X67800041Y102970760D02*
X67800041Y102504094D01*
X67966708Y103237427D02*
X68133374Y102737427D01*
X67700041Y102737427D01*
X67433374Y102570760D02*
X67400041Y102537427D01*
X67433374Y102504094D01*
X67466708Y102537427D01*
X67433374Y102570760D01*
X67433374Y102504094D01*
X67433374Y102937427D02*
X67400041Y102904094D01*
X67433374Y102870760D01*
X67466708Y102904094D01*
X67433374Y102937427D01*
X67433374Y102870760D01*
X66766708Y103204094D02*
X67100041Y103204094D01*
X67133374Y102870760D01*
X67100041Y102904094D01*
X67033374Y102937427D01*
X66866708Y102937427D01*
X66800041Y102904094D01*
X66766708Y102870760D01*
X66733374Y102804094D01*
X66733374Y102637427D01*
X66766708Y102570760D01*
X66800041Y102537427D01*
X66866708Y102504094D01*
X67033374Y102504094D01*
X67100041Y102537427D01*
X67133374Y102570760D01*
X52194181Y102285013D02*
X52227514Y102185013D01*
X52227514Y102018346D01*
X52194181Y101951679D01*
X52160848Y101918346D01*
X52094181Y101885013D01*
X52027514Y101885013D01*
X51960848Y101918346D01*
X51927514Y101951679D01*
X51894181Y102018346D01*
X51860848Y102151679D01*
X51827514Y102218346D01*
X51794181Y102251679D01*
X51727514Y102285013D01*
X51660848Y102285013D01*
X51594181Y102251679D01*
X51560848Y102218346D01*
X51527514Y102151679D01*
X51527514Y101985013D01*
X51560848Y101885013D01*
X51527514Y101651679D02*
X52227514Y101485013D01*
X51727514Y101351679D01*
X52227514Y101218346D01*
X51527514Y101051679D01*
X51760848Y100485013D02*
X52227514Y100485013D01*
X51494181Y100651679D02*
X51994181Y100818346D01*
X51994181Y100385013D01*
X52160848Y100118346D02*
X52194181Y100085013D01*
X52227514Y100118346D01*
X52194181Y100151679D01*
X52160848Y100118346D01*
X52227514Y100118346D01*
X51794181Y100118346D02*
X51827514Y100085013D01*
X51860848Y100118346D01*
X51827514Y100151679D01*
X51794181Y100118346D01*
X51860848Y100118346D01*
X51527514Y99485013D02*
X51527514Y99618346D01*
X51560848Y99685013D01*
X51594181Y99718346D01*
X51694181Y99785013D01*
X51827514Y99818346D01*
X52094181Y99818346D01*
X52160848Y99785013D01*
X52194181Y99751679D01*
X52227514Y99685013D01*
X52227514Y99551679D01*
X52194181Y99485013D01*
X52160848Y99451679D01*
X52094181Y99418346D01*
X51927514Y99418346D01*
X51860848Y99451679D01*
X51827514Y99485013D01*
X51794181Y99551679D01*
X51794181Y99685013D01*
X51827514Y99751679D01*
X51860848Y99785013D01*
X51927514Y99818346D01*
X169680946Y81582094D02*
X169580946Y81548761D01*
X169414279Y81548761D01*
X169347613Y81582094D01*
X169314279Y81615427D01*
X169280946Y81682094D01*
X169280946Y81748761D01*
X169314279Y81815427D01*
X169347613Y81848761D01*
X169414279Y81882094D01*
X169547613Y81915427D01*
X169614279Y81948761D01*
X169647613Y81982094D01*
X169680946Y82048761D01*
X169680946Y82115427D01*
X169647613Y82182094D01*
X169614279Y82215427D01*
X169547613Y82248761D01*
X169380946Y82248761D01*
X169280946Y82215427D01*
X169047613Y82248761D02*
X168880946Y81548761D01*
X168747613Y82048761D01*
X168614279Y81548761D01*
X168447613Y82248761D01*
X168247613Y82248761D02*
X167814279Y82248761D01*
X168047613Y81982094D01*
X167947613Y81982094D01*
X167880946Y81948761D01*
X167847613Y81915427D01*
X167814279Y81848761D01*
X167814279Y81682094D01*
X167847613Y81615427D01*
X167880946Y81582094D01*
X167947613Y81548761D01*
X168147613Y81548761D01*
X168214279Y81582094D01*
X168247613Y81615427D01*
X167514279Y81615427D02*
X167480946Y81582094D01*
X167514279Y81548761D01*
X167547613Y81582094D01*
X167514279Y81615427D01*
X167514279Y81548761D01*
X167514279Y81982094D02*
X167480946Y81948761D01*
X167514279Y81915427D01*
X167547613Y81948761D01*
X167514279Y81982094D01*
X167514279Y81915427D01*
X167047613Y82248761D02*
X166980946Y82248761D01*
X166914279Y82215427D01*
X166880946Y82182094D01*
X166847613Y82115427D01*
X166814279Y81982094D01*
X166814279Y81815427D01*
X166847613Y81682094D01*
X166880946Y81615427D01*
X166914279Y81582094D01*
X166980946Y81548761D01*
X167047613Y81548761D01*
X167114279Y81582094D01*
X167147613Y81615427D01*
X167180946Y81682094D01*
X167214279Y81815427D01*
X167214279Y81982094D01*
X167180946Y82115427D01*
X167147613Y82182094D01*
X167114279Y82215427D01*
X167047613Y82248761D01*
X145800663Y81581826D02*
X145700663Y81548493D01*
X145533996Y81548493D01*
X145467330Y81581826D01*
X145433996Y81615159D01*
X145400663Y81681826D01*
X145400663Y81748493D01*
X145433996Y81815159D01*
X145467330Y81848493D01*
X145533996Y81881826D01*
X145667330Y81915159D01*
X145733996Y81948493D01*
X145767330Y81981826D01*
X145800663Y82048493D01*
X145800663Y82115159D01*
X145767330Y82181826D01*
X145733996Y82215159D01*
X145667330Y82248493D01*
X145500663Y82248493D01*
X145400663Y82215159D01*
X145167330Y82248493D02*
X145000663Y81548493D01*
X144867330Y82048493D01*
X144733996Y81548493D01*
X144567330Y82248493D01*
X144367330Y82248493D02*
X143933996Y82248493D01*
X144167330Y81981826D01*
X144067330Y81981826D01*
X144000663Y81948493D01*
X143967330Y81915159D01*
X143933996Y81848493D01*
X143933996Y81681826D01*
X143967330Y81615159D01*
X144000663Y81581826D01*
X144067330Y81548493D01*
X144267330Y81548493D01*
X144333996Y81581826D01*
X144367330Y81615159D01*
X143633996Y81615159D02*
X143600663Y81581826D01*
X143633996Y81548493D01*
X143667330Y81581826D01*
X143633996Y81615159D01*
X143633996Y81548493D01*
X143633996Y81981826D02*
X143600663Y81948493D01*
X143633996Y81915159D01*
X143667330Y81948493D01*
X143633996Y81981826D01*
X143633996Y81915159D01*
X142933996Y81548493D02*
X143333996Y81548493D01*
X143133996Y81548493D02*
X143133996Y82248493D01*
X143200663Y82148493D01*
X143267330Y82081826D01*
X143333996Y82048493D01*
X126750731Y84757514D02*
X126650731Y84724181D01*
X126484064Y84724181D01*
X126417398Y84757514D01*
X126384064Y84790847D01*
X126350731Y84857514D01*
X126350731Y84924181D01*
X126384064Y84990847D01*
X126417398Y85024181D01*
X126484064Y85057514D01*
X126617398Y85090847D01*
X126684064Y85124181D01*
X126717398Y85157514D01*
X126750731Y85224181D01*
X126750731Y85290847D01*
X126717398Y85357514D01*
X126684064Y85390847D01*
X126617398Y85424181D01*
X126450731Y85424181D01*
X126350731Y85390847D01*
X126117398Y85424181D02*
X125950731Y84724181D01*
X125817398Y85224181D01*
X125684064Y84724181D01*
X125517398Y85424181D01*
X125317398Y85424181D02*
X124884064Y85424181D01*
X125117398Y85157514D01*
X125017398Y85157514D01*
X124950731Y85124181D01*
X124917398Y85090847D01*
X124884064Y85024181D01*
X124884064Y84857514D01*
X124917398Y84790847D01*
X124950731Y84757514D01*
X125017398Y84724181D01*
X125217398Y84724181D01*
X125284064Y84757514D01*
X125317398Y84790847D01*
X124584064Y84790847D02*
X124550731Y84757514D01*
X124584064Y84724181D01*
X124617398Y84757514D01*
X124584064Y84790847D01*
X124584064Y84724181D01*
X124584064Y85157514D02*
X124550731Y85124181D01*
X124584064Y85090847D01*
X124617398Y85124181D01*
X124584064Y85157514D01*
X124584064Y85090847D01*
X124284064Y85357514D02*
X124250731Y85390847D01*
X124184064Y85424181D01*
X124017398Y85424181D01*
X123950731Y85390847D01*
X123917398Y85357514D01*
X123884064Y85290847D01*
X123884064Y85224181D01*
X123917398Y85124181D01*
X124317398Y84724181D01*
X123884064Y84724181D01*
X107700634Y86355294D02*
X107600634Y86321961D01*
X107433967Y86321961D01*
X107367301Y86355294D01*
X107333967Y86388627D01*
X107300634Y86455294D01*
X107300634Y86521961D01*
X107333967Y86588627D01*
X107367301Y86621961D01*
X107433967Y86655294D01*
X107567301Y86688627D01*
X107633967Y86721961D01*
X107667301Y86755294D01*
X107700634Y86821961D01*
X107700634Y86888627D01*
X107667301Y86955294D01*
X107633967Y86988627D01*
X107567301Y87021961D01*
X107400634Y87021961D01*
X107300634Y86988627D01*
X107067301Y87021961D02*
X106900634Y86321961D01*
X106767301Y86821961D01*
X106633967Y86321961D01*
X106467301Y87021961D01*
X106267301Y87021961D02*
X105833967Y87021961D01*
X106067301Y86755294D01*
X105967301Y86755294D01*
X105900634Y86721961D01*
X105867301Y86688627D01*
X105833967Y86621961D01*
X105833967Y86455294D01*
X105867301Y86388627D01*
X105900634Y86355294D01*
X105967301Y86321961D01*
X106167301Y86321961D01*
X106233967Y86355294D01*
X106267301Y86388627D01*
X105533967Y86388627D02*
X105500634Y86355294D01*
X105533967Y86321961D01*
X105567301Y86355294D01*
X105533967Y86388627D01*
X105533967Y86321961D01*
X105533967Y86755294D02*
X105500634Y86721961D01*
X105533967Y86688627D01*
X105567301Y86721961D01*
X105533967Y86755294D01*
X105533967Y86688627D01*
X105267301Y87021961D02*
X104833967Y87021961D01*
X105067301Y86755294D01*
X104967301Y86755294D01*
X104900634Y86721961D01*
X104867301Y86688627D01*
X104833967Y86621961D01*
X104833967Y86455294D01*
X104867301Y86388627D01*
X104900634Y86355294D01*
X104967301Y86321961D01*
X105167301Y86321961D01*
X105233967Y86355294D01*
X105267301Y86388627D01*
X88650441Y84756543D02*
X88550441Y84723210D01*
X88383774Y84723210D01*
X88317108Y84756543D01*
X88283774Y84789876D01*
X88250441Y84856543D01*
X88250441Y84923210D01*
X88283774Y84989876D01*
X88317108Y85023210D01*
X88383774Y85056543D01*
X88517108Y85089876D01*
X88583774Y85123210D01*
X88617108Y85156543D01*
X88650441Y85223210D01*
X88650441Y85289876D01*
X88617108Y85356543D01*
X88583774Y85389876D01*
X88517108Y85423210D01*
X88350441Y85423210D01*
X88250441Y85389876D01*
X88017108Y85423210D02*
X87850441Y84723210D01*
X87717108Y85223210D01*
X87583774Y84723210D01*
X87417108Y85423210D01*
X87217108Y85423210D02*
X86783774Y85423210D01*
X87017108Y85156543D01*
X86917108Y85156543D01*
X86850441Y85123210D01*
X86817108Y85089876D01*
X86783774Y85023210D01*
X86783774Y84856543D01*
X86817108Y84789876D01*
X86850441Y84756543D01*
X86917108Y84723210D01*
X87117108Y84723210D01*
X87183774Y84756543D01*
X87217108Y84789876D01*
X86483774Y84789876D02*
X86450441Y84756543D01*
X86483774Y84723210D01*
X86517108Y84756543D01*
X86483774Y84789876D01*
X86483774Y84723210D01*
X86483774Y85156543D02*
X86450441Y85123210D01*
X86483774Y85089876D01*
X86517108Y85123210D01*
X86483774Y85156543D01*
X86483774Y85089876D01*
X85850441Y85189876D02*
X85850441Y84723210D01*
X86017108Y85456543D02*
X86183774Y84956543D01*
X85750441Y84956543D01*
X69600282Y83486617D02*
X69500282Y83453284D01*
X69333615Y83453284D01*
X69266949Y83486617D01*
X69233615Y83519950D01*
X69200282Y83586617D01*
X69200282Y83653284D01*
X69233615Y83719950D01*
X69266949Y83753284D01*
X69333615Y83786617D01*
X69466949Y83819950D01*
X69533615Y83853284D01*
X69566949Y83886617D01*
X69600282Y83953284D01*
X69600282Y84019950D01*
X69566949Y84086617D01*
X69533615Y84119950D01*
X69466949Y84153284D01*
X69300282Y84153284D01*
X69200282Y84119950D01*
X68966949Y84153284D02*
X68800282Y83453284D01*
X68666949Y83953284D01*
X68533615Y83453284D01*
X68366949Y84153284D01*
X68166949Y84153284D02*
X67733615Y84153284D01*
X67966949Y83886617D01*
X67866949Y83886617D01*
X67800282Y83853284D01*
X67766949Y83819950D01*
X67733615Y83753284D01*
X67733615Y83586617D01*
X67766949Y83519950D01*
X67800282Y83486617D01*
X67866949Y83453284D01*
X68066949Y83453284D01*
X68133615Y83486617D01*
X68166949Y83519950D01*
X67433615Y83519950D02*
X67400282Y83486617D01*
X67433615Y83453284D01*
X67466949Y83486617D01*
X67433615Y83519950D01*
X67433615Y83453284D01*
X67433615Y83886617D02*
X67400282Y83853284D01*
X67433615Y83819950D01*
X67466949Y83853284D01*
X67433615Y83886617D01*
X67433615Y83819950D01*
X66766949Y84153284D02*
X67100282Y84153284D01*
X67133615Y83819950D01*
X67100282Y83853284D01*
X67033615Y83886617D01*
X66866949Y83886617D01*
X66800282Y83853284D01*
X66766949Y83819950D01*
X66733615Y83753284D01*
X66733615Y83586617D01*
X66766949Y83519950D01*
X66800282Y83486617D01*
X66866949Y83453284D01*
X67033615Y83453284D01*
X67100282Y83486617D01*
X67133615Y83519950D01*
X169680768Y62532192D02*
X169580768Y62498859D01*
X169414101Y62498859D01*
X169347435Y62532192D01*
X169314101Y62565525D01*
X169280768Y62632192D01*
X169280768Y62698859D01*
X169314101Y62765525D01*
X169347435Y62798859D01*
X169414101Y62832192D01*
X169547435Y62865525D01*
X169614101Y62898859D01*
X169647435Y62932192D01*
X169680768Y62998859D01*
X169680768Y63065525D01*
X169647435Y63132192D01*
X169614101Y63165525D01*
X169547435Y63198859D01*
X169380768Y63198859D01*
X169280768Y63165525D01*
X169047435Y63198859D02*
X168880768Y62498859D01*
X168747435Y62998859D01*
X168614101Y62498859D01*
X168447435Y63198859D01*
X168214101Y63132192D02*
X168180768Y63165525D01*
X168114101Y63198859D01*
X167947435Y63198859D01*
X167880768Y63165525D01*
X167847435Y63132192D01*
X167814101Y63065525D01*
X167814101Y62998859D01*
X167847435Y62898859D01*
X168247435Y62498859D01*
X167814101Y62498859D01*
X167514101Y62565525D02*
X167480768Y62532192D01*
X167514101Y62498859D01*
X167547435Y62532192D01*
X167514101Y62565525D01*
X167514101Y62498859D01*
X167514101Y62932192D02*
X167480768Y62898859D01*
X167514101Y62865525D01*
X167547435Y62898859D01*
X167514101Y62932192D01*
X167514101Y62865525D01*
X167047435Y63198859D02*
X166980768Y63198859D01*
X166914101Y63165525D01*
X166880768Y63132192D01*
X166847435Y63065525D01*
X166814101Y62932192D01*
X166814101Y62765525D01*
X166847435Y62632192D01*
X166880768Y62565525D01*
X166914101Y62532192D01*
X166980768Y62498859D01*
X167047435Y62498859D01*
X167114101Y62532192D01*
X167147435Y62565525D01*
X167180768Y62632192D01*
X167214101Y62765525D01*
X167214101Y62932192D01*
X167180768Y63065525D01*
X167147435Y63132192D01*
X167114101Y63165525D01*
X167047435Y63198859D01*
X145800485Y62531923D02*
X145700485Y62498590D01*
X145533818Y62498590D01*
X145467152Y62531923D01*
X145433818Y62565256D01*
X145400485Y62631923D01*
X145400485Y62698590D01*
X145433818Y62765256D01*
X145467152Y62798590D01*
X145533818Y62831923D01*
X145667152Y62865256D01*
X145733818Y62898590D01*
X145767152Y62931923D01*
X145800485Y62998590D01*
X145800485Y63065256D01*
X145767152Y63131923D01*
X145733818Y63165256D01*
X145667152Y63198590D01*
X145500485Y63198590D01*
X145400485Y63165256D01*
X145167152Y63198590D02*
X145000485Y62498590D01*
X144867152Y62998590D01*
X144733818Y62498590D01*
X144567152Y63198590D01*
X144333818Y63131923D02*
X144300485Y63165256D01*
X144233818Y63198590D01*
X144067152Y63198590D01*
X144000485Y63165256D01*
X143967152Y63131923D01*
X143933818Y63065256D01*
X143933818Y62998590D01*
X143967152Y62898590D01*
X144367152Y62498590D01*
X143933818Y62498590D01*
X143633818Y62565256D02*
X143600485Y62531923D01*
X143633818Y62498590D01*
X143667152Y62531923D01*
X143633818Y62565256D01*
X143633818Y62498590D01*
X143633818Y62931923D02*
X143600485Y62898590D01*
X143633818Y62865256D01*
X143667152Y62898590D01*
X143633818Y62931923D01*
X143633818Y62865256D01*
X142933818Y62498590D02*
X143333818Y62498590D01*
X143133818Y62498590D02*
X143133818Y63198590D01*
X143200485Y63098590D01*
X143267152Y63031923D01*
X143333818Y62998590D01*
X126750973Y65706703D02*
X126650973Y65673370D01*
X126484306Y65673370D01*
X126417640Y65706703D01*
X126384306Y65740036D01*
X126350973Y65806703D01*
X126350973Y65873370D01*
X126384306Y65940036D01*
X126417640Y65973370D01*
X126484306Y66006703D01*
X126617640Y66040036D01*
X126684306Y66073370D01*
X126717640Y66106703D01*
X126750973Y66173370D01*
X126750973Y66240036D01*
X126717640Y66306703D01*
X126684306Y66340036D01*
X126617640Y66373370D01*
X126450973Y66373370D01*
X126350973Y66340036D01*
X126117640Y66373370D02*
X125950973Y65673370D01*
X125817640Y66173370D01*
X125684306Y65673370D01*
X125517640Y66373370D01*
X125284306Y66306703D02*
X125250973Y66340036D01*
X125184306Y66373370D01*
X125017640Y66373370D01*
X124950973Y66340036D01*
X124917640Y66306703D01*
X124884306Y66240036D01*
X124884306Y66173370D01*
X124917640Y66073370D01*
X125317640Y65673370D01*
X124884306Y65673370D01*
X124584306Y65740036D02*
X124550973Y65706703D01*
X124584306Y65673370D01*
X124617640Y65706703D01*
X124584306Y65740036D01*
X124584306Y65673370D01*
X124584306Y66106703D02*
X124550973Y66073370D01*
X124584306Y66040036D01*
X124617640Y66073370D01*
X124584306Y66106703D01*
X124584306Y66040036D01*
X124284306Y66306703D02*
X124250973Y66340036D01*
X124184306Y66373370D01*
X124017640Y66373370D01*
X123950973Y66340036D01*
X123917640Y66306703D01*
X123884306Y66240036D01*
X123884306Y66173370D01*
X123917640Y66073370D01*
X124317640Y65673370D01*
X123884306Y65673370D01*
X107700454Y67305391D02*
X107600454Y67272058D01*
X107433787Y67272058D01*
X107367121Y67305391D01*
X107333787Y67338724D01*
X107300454Y67405391D01*
X107300454Y67472058D01*
X107333787Y67538724D01*
X107367121Y67572058D01*
X107433787Y67605391D01*
X107567121Y67638724D01*
X107633787Y67672058D01*
X107667121Y67705391D01*
X107700454Y67772058D01*
X107700454Y67838724D01*
X107667121Y67905391D01*
X107633787Y67938724D01*
X107567121Y67972058D01*
X107400454Y67972058D01*
X107300454Y67938724D01*
X107067121Y67972058D02*
X106900454Y67272058D01*
X106767121Y67772058D01*
X106633787Y67272058D01*
X106467121Y67972058D01*
X106233787Y67905391D02*
X106200454Y67938724D01*
X106133787Y67972058D01*
X105967121Y67972058D01*
X105900454Y67938724D01*
X105867121Y67905391D01*
X105833787Y67838724D01*
X105833787Y67772058D01*
X105867121Y67672058D01*
X106267121Y67272058D01*
X105833787Y67272058D01*
X105533787Y67338724D02*
X105500454Y67305391D01*
X105533787Y67272058D01*
X105567121Y67305391D01*
X105533787Y67338724D01*
X105533787Y67272058D01*
X105533787Y67705391D02*
X105500454Y67672058D01*
X105533787Y67638724D01*
X105567121Y67672058D01*
X105533787Y67705391D01*
X105533787Y67638724D01*
X105267121Y67972058D02*
X104833787Y67972058D01*
X105067121Y67705391D01*
X104967121Y67705391D01*
X104900454Y67672058D01*
X104867121Y67638724D01*
X104833787Y67572058D01*
X104833787Y67405391D01*
X104867121Y67338724D01*
X104900454Y67305391D01*
X104967121Y67272058D01*
X105167121Y67272058D01*
X105233787Y67305391D01*
X105267121Y67338724D01*
X88650261Y65706641D02*
X88550261Y65673308D01*
X88383594Y65673308D01*
X88316928Y65706641D01*
X88283594Y65739974D01*
X88250261Y65806641D01*
X88250261Y65873308D01*
X88283594Y65939974D01*
X88316928Y65973308D01*
X88383594Y66006641D01*
X88516928Y66039974D01*
X88583594Y66073308D01*
X88616928Y66106641D01*
X88650261Y66173308D01*
X88650261Y66239974D01*
X88616928Y66306641D01*
X88583594Y66339974D01*
X88516928Y66373308D01*
X88350261Y66373308D01*
X88250261Y66339974D01*
X88016928Y66373308D02*
X87850261Y65673308D01*
X87716928Y66173308D01*
X87583594Y65673308D01*
X87416928Y66373308D01*
X87183594Y66306641D02*
X87150261Y66339974D01*
X87083594Y66373308D01*
X86916928Y66373308D01*
X86850261Y66339974D01*
X86816928Y66306641D01*
X86783594Y66239974D01*
X86783594Y66173308D01*
X86816928Y66073308D01*
X87216928Y65673308D01*
X86783594Y65673308D01*
X86483594Y65739974D02*
X86450261Y65706641D01*
X86483594Y65673308D01*
X86516928Y65706641D01*
X86483594Y65739974D01*
X86483594Y65673308D01*
X86483594Y66106641D02*
X86450261Y66073308D01*
X86483594Y66039974D01*
X86516928Y66073308D01*
X86483594Y66106641D01*
X86483594Y66039974D01*
X85850261Y66139974D02*
X85850261Y65673308D01*
X86016928Y66406641D02*
X86183594Y65906641D01*
X85750261Y65906641D01*
X69600104Y64436713D02*
X69500104Y64403380D01*
X69333437Y64403380D01*
X69266771Y64436713D01*
X69233437Y64470046D01*
X69200104Y64536713D01*
X69200104Y64603380D01*
X69233437Y64670046D01*
X69266771Y64703380D01*
X69333437Y64736713D01*
X69466771Y64770046D01*
X69533437Y64803380D01*
X69566771Y64836713D01*
X69600104Y64903380D01*
X69600104Y64970046D01*
X69566771Y65036713D01*
X69533437Y65070046D01*
X69466771Y65103380D01*
X69300104Y65103380D01*
X69200104Y65070046D01*
X68966771Y65103380D02*
X68800104Y64403380D01*
X68666771Y64903380D01*
X68533437Y64403380D01*
X68366771Y65103380D01*
X68133437Y65036713D02*
X68100104Y65070046D01*
X68033437Y65103380D01*
X67866771Y65103380D01*
X67800104Y65070046D01*
X67766771Y65036713D01*
X67733437Y64970046D01*
X67733437Y64903380D01*
X67766771Y64803380D01*
X68166771Y64403380D01*
X67733437Y64403380D01*
X67433437Y64470046D02*
X67400104Y64436713D01*
X67433437Y64403380D01*
X67466771Y64436713D01*
X67433437Y64470046D01*
X67433437Y64403380D01*
X67433437Y64836713D02*
X67400104Y64803380D01*
X67433437Y64770046D01*
X67466771Y64803380D01*
X67433437Y64836713D01*
X67433437Y64770046D01*
X66766771Y65103380D02*
X67100104Y65103380D01*
X67133437Y64770046D01*
X67100104Y64803380D01*
X67033437Y64836713D01*
X66866771Y64836713D01*
X66800104Y64803380D01*
X66766771Y64770046D01*
X66733437Y64703380D01*
X66733437Y64536713D01*
X66766771Y64470046D01*
X66800104Y64436713D01*
X66866771Y64403380D01*
X67033437Y64403380D01*
X67100104Y64436713D01*
X67133437Y64470046D01*
X52194426Y73710949D02*
X52227759Y73610949D01*
X52227759Y73444282D01*
X52194426Y73377615D01*
X52161093Y73344282D01*
X52094426Y73310949D01*
X52027759Y73310949D01*
X51961093Y73344282D01*
X51927759Y73377615D01*
X51894426Y73444282D01*
X51861093Y73577615D01*
X51827759Y73644282D01*
X51794426Y73677615D01*
X51727759Y73710949D01*
X51661093Y73710949D01*
X51594426Y73677615D01*
X51561093Y73644282D01*
X51527759Y73577615D01*
X51527759Y73410949D01*
X51561093Y73310949D01*
X51527759Y73077615D02*
X52227759Y72910949D01*
X51727759Y72777615D01*
X52227759Y72644282D01*
X51527759Y72477615D01*
X51594426Y72244282D02*
X51561093Y72210949D01*
X51527759Y72144282D01*
X51527759Y71977615D01*
X51561093Y71910949D01*
X51594426Y71877615D01*
X51661093Y71844282D01*
X51727759Y71844282D01*
X51827759Y71877615D01*
X52227759Y72277615D01*
X52227759Y71844282D01*
X52161093Y71544282D02*
X52194426Y71510949D01*
X52227759Y71544282D01*
X52194426Y71577615D01*
X52161093Y71544282D01*
X52227759Y71544282D01*
X51794426Y71544282D02*
X51827759Y71510949D01*
X51861093Y71544282D01*
X51827759Y71577615D01*
X51794426Y71544282D01*
X51861093Y71544282D01*
X51527759Y70910949D02*
X51527759Y71044282D01*
X51561093Y71110949D01*
X51594426Y71144282D01*
X51694426Y71210949D01*
X51827759Y71244282D01*
X52094426Y71244282D01*
X52161093Y71210949D01*
X52194426Y71177615D01*
X52227759Y71110949D01*
X52227759Y70977615D01*
X52194426Y70910949D01*
X52161093Y70877615D01*
X52094426Y70844282D01*
X51927759Y70844282D01*
X51861093Y70877615D01*
X51827759Y70910949D01*
X51794426Y70977615D01*
X51794426Y71110949D01*
X51827759Y71177615D01*
X51861093Y71210949D01*
X51927759Y71244282D01*
X164850209Y43481840D02*
X164750209Y43448507D01*
X164583542Y43448507D01*
X164516876Y43481840D01*
X164483542Y43515173D01*
X164450209Y43581840D01*
X164450209Y43648507D01*
X164483542Y43715173D01*
X164516876Y43748507D01*
X164583542Y43781840D01*
X164716876Y43815173D01*
X164783542Y43848507D01*
X164816876Y43881840D01*
X164850209Y43948507D01*
X164850209Y44015173D01*
X164816876Y44081840D01*
X164783542Y44115173D01*
X164716876Y44148507D01*
X164550209Y44148507D01*
X164450209Y44115173D01*
X164216876Y44148507D02*
X164050209Y43448507D01*
X163916876Y43948507D01*
X163783542Y43448507D01*
X163616876Y44148507D01*
X162983542Y43448507D02*
X163383542Y43448507D01*
X163183542Y43448507D02*
X163183542Y44148507D01*
X163250209Y44048507D01*
X163316876Y43981840D01*
X163383542Y43948507D01*
X162683542Y43515173D02*
X162650209Y43481840D01*
X162683542Y43448507D01*
X162716876Y43481840D01*
X162683542Y43515173D01*
X162683542Y43448507D01*
X162683542Y43881840D02*
X162650209Y43848507D01*
X162683542Y43815173D01*
X162716876Y43848507D01*
X162683542Y43881840D01*
X162683542Y43815173D01*
X162216876Y44148507D02*
X162150209Y44148507D01*
X162083542Y44115173D01*
X162050209Y44081840D01*
X162016876Y44015173D01*
X161983542Y43881840D01*
X161983542Y43715173D01*
X162016876Y43581840D01*
X162050209Y43515173D01*
X162083542Y43481840D01*
X162150209Y43448507D01*
X162216876Y43448507D01*
X162283542Y43481840D01*
X162316876Y43515173D01*
X162350209Y43581840D01*
X162383542Y43715173D01*
X162383542Y43881840D01*
X162350209Y44015173D01*
X162316876Y44081840D01*
X162283542Y44115173D01*
X162216876Y44148507D01*
X145800306Y43482019D02*
X145700306Y43448686D01*
X145533639Y43448686D01*
X145466973Y43482019D01*
X145433639Y43515352D01*
X145400306Y43582019D01*
X145400306Y43648686D01*
X145433639Y43715352D01*
X145466973Y43748686D01*
X145533639Y43782019D01*
X145666973Y43815352D01*
X145733639Y43848686D01*
X145766973Y43882019D01*
X145800306Y43948686D01*
X145800306Y44015352D01*
X145766973Y44082019D01*
X145733639Y44115352D01*
X145666973Y44148686D01*
X145500306Y44148686D01*
X145400306Y44115352D01*
X145166973Y44148686D02*
X145000306Y43448686D01*
X144866973Y43948686D01*
X144733639Y43448686D01*
X144566973Y44148686D01*
X143933639Y43448686D02*
X144333639Y43448686D01*
X144133639Y43448686D02*
X144133639Y44148686D01*
X144200306Y44048686D01*
X144266973Y43982019D01*
X144333639Y43948686D01*
X143633639Y43515352D02*
X143600306Y43482019D01*
X143633639Y43448686D01*
X143666973Y43482019D01*
X143633639Y43515352D01*
X143633639Y43448686D01*
X143633639Y43882019D02*
X143600306Y43848686D01*
X143633639Y43815352D01*
X143666973Y43848686D01*
X143633639Y43882019D01*
X143633639Y43815352D01*
X142933639Y43448686D02*
X143333639Y43448686D01*
X143133639Y43448686D02*
X143133639Y44148686D01*
X143200306Y44048686D01*
X143266973Y43982019D01*
X143333639Y43948686D01*
X126750795Y46656799D02*
X126650795Y46623466D01*
X126484128Y46623466D01*
X126417462Y46656799D01*
X126384128Y46690132D01*
X126350795Y46756799D01*
X126350795Y46823466D01*
X126384128Y46890132D01*
X126417462Y46923466D01*
X126484128Y46956799D01*
X126617462Y46990132D01*
X126684128Y47023466D01*
X126717462Y47056799D01*
X126750795Y47123466D01*
X126750795Y47190132D01*
X126717462Y47256799D01*
X126684128Y47290132D01*
X126617462Y47323466D01*
X126450795Y47323466D01*
X126350795Y47290132D01*
X126117462Y47323466D02*
X125950795Y46623466D01*
X125817462Y47123466D01*
X125684128Y46623466D01*
X125517462Y47323466D01*
X124884128Y46623466D02*
X125284128Y46623466D01*
X125084128Y46623466D02*
X125084128Y47323466D01*
X125150795Y47223466D01*
X125217462Y47156799D01*
X125284128Y47123466D01*
X124584128Y46690132D02*
X124550795Y46656799D01*
X124584128Y46623466D01*
X124617462Y46656799D01*
X124584128Y46690132D01*
X124584128Y46623466D01*
X124584128Y47056799D02*
X124550795Y47023466D01*
X124584128Y46990132D01*
X124617462Y47023466D01*
X124584128Y47056799D01*
X124584128Y46990132D01*
X124284128Y47256799D02*
X124250795Y47290132D01*
X124184128Y47323466D01*
X124017462Y47323466D01*
X123950795Y47290132D01*
X123917462Y47256799D01*
X123884128Y47190132D01*
X123884128Y47123466D01*
X123917462Y47023466D01*
X124317462Y46623466D01*
X123884128Y46623466D01*
X107700698Y48254580D02*
X107600698Y48221247D01*
X107434031Y48221247D01*
X107367365Y48254580D01*
X107334031Y48287913D01*
X107300698Y48354580D01*
X107300698Y48421247D01*
X107334031Y48487913D01*
X107367365Y48521247D01*
X107434031Y48554580D01*
X107567365Y48587913D01*
X107634031Y48621247D01*
X107667365Y48654580D01*
X107700698Y48721247D01*
X107700698Y48787913D01*
X107667365Y48854580D01*
X107634031Y48887913D01*
X107567365Y48921247D01*
X107400698Y48921247D01*
X107300698Y48887913D01*
X107067365Y48921247D02*
X106900698Y48221247D01*
X106767365Y48721247D01*
X106634031Y48221247D01*
X106467365Y48921247D01*
X105834031Y48221247D02*
X106234031Y48221247D01*
X106034031Y48221247D02*
X106034031Y48921247D01*
X106100698Y48821247D01*
X106167365Y48754580D01*
X106234031Y48721247D01*
X105534031Y48287913D02*
X105500698Y48254580D01*
X105534031Y48221247D01*
X105567365Y48254580D01*
X105534031Y48287913D01*
X105534031Y48221247D01*
X105534031Y48654580D02*
X105500698Y48621247D01*
X105534031Y48587913D01*
X105567365Y48621247D01*
X105534031Y48654580D01*
X105534031Y48587913D01*
X105267365Y48921247D02*
X104834031Y48921247D01*
X105067365Y48654580D01*
X104967365Y48654580D01*
X104900698Y48621247D01*
X104867365Y48587913D01*
X104834031Y48521247D01*
X104834031Y48354580D01*
X104867365Y48287913D01*
X104900698Y48254580D01*
X104967365Y48221247D01*
X105167365Y48221247D01*
X105234031Y48254580D01*
X105267365Y48287913D01*
X88650987Y46657160D02*
X88550987Y46623827D01*
X88384320Y46623827D01*
X88317654Y46657160D01*
X88284320Y46690493D01*
X88250987Y46757160D01*
X88250987Y46823827D01*
X88284320Y46890493D01*
X88317654Y46923827D01*
X88384320Y46957160D01*
X88517654Y46990493D01*
X88584320Y47023827D01*
X88617654Y47057160D01*
X88650987Y47123827D01*
X88650987Y47190493D01*
X88617654Y47257160D01*
X88584320Y47290493D01*
X88517654Y47323827D01*
X88350987Y47323827D01*
X88250987Y47290493D01*
X88017654Y47323827D02*
X87850987Y46623827D01*
X87717654Y47123827D01*
X87584320Y46623827D01*
X87417654Y47323827D01*
X86784320Y46623827D02*
X87184320Y46623827D01*
X86984320Y46623827D02*
X86984320Y47323827D01*
X87050987Y47223827D01*
X87117654Y47157160D01*
X87184320Y47123827D01*
X86484320Y46690493D02*
X86450987Y46657160D01*
X86484320Y46623827D01*
X86517654Y46657160D01*
X86484320Y46690493D01*
X86484320Y46623827D01*
X86484320Y47057160D02*
X86450987Y47023827D01*
X86484320Y46990493D01*
X86517654Y47023827D01*
X86484320Y47057160D01*
X86484320Y46990493D01*
X85850987Y47090493D02*
X85850987Y46623827D01*
X86017654Y47357160D02*
X86184320Y46857160D01*
X85750987Y46857160D01*
X30126835Y9779019D02*
X30050291Y9706547D01*
X29899240Y9636111D01*
X29824732Y9638146D01*
X29780434Y9654269D01*
X29722050Y9700603D01*
X29693875Y9761023D01*
X29695911Y9835531D01*
X29712034Y9879828D01*
X29758367Y9938213D01*
X29865121Y10024773D01*
X29911454Y10083157D01*
X29927577Y10127455D01*
X29929613Y10201963D01*
X29901438Y10262383D01*
X29843053Y10308717D01*
X29798756Y10324840D01*
X29724248Y10326875D01*
X29573197Y10256439D01*
X29496653Y10183967D01*
X29271094Y10115566D02*
X29415876Y9410714D01*
X29083725Y9807519D01*
X29174193Y9298016D01*
X28727309Y9861995D01*
X28364786Y9692948D02*
X28304366Y9664773D01*
X28258033Y9606388D01*
X28241910Y9562091D01*
X28239874Y9487583D01*
X28266013Y9352655D01*
X28336449Y9201604D01*
X28423008Y9094850D01*
X28481393Y9048517D01*
X28525691Y9032394D01*
X28600199Y9030358D01*
X28660619Y9058532D01*
X28706952Y9116917D01*
X28723075Y9161215D01*
X28725111Y9235723D01*
X28698972Y9370651D01*
X28628536Y9521702D01*
X28541976Y9628456D01*
X28483592Y9674789D01*
X28439294Y9690912D01*
X28364786Y9692948D01*
X28149080Y8893556D02*
X28132957Y8849259D01*
X28177255Y8833136D01*
X28193378Y8877434D01*
X28149080Y8893556D01*
X28177255Y8833136D01*
X27994120Y9225869D02*
X27977997Y9181572D01*
X28022295Y9165449D01*
X28038418Y9209746D01*
X27994120Y9225869D01*
X28022295Y9165449D01*
X27542839Y8537303D02*
X27905363Y8706350D01*
X27724101Y8621827D02*
X27428268Y9256242D01*
X27530951Y9193786D01*
X27619546Y9161540D01*
X27694053Y9159504D01*
X43646992Y28407199D02*
X43574520Y28483743D01*
X43504084Y28634794D01*
X43506119Y28709302D01*
X43522242Y28753600D01*
X43568576Y28811984D01*
X43628996Y28840159D01*
X43703504Y28838123D01*
X43747801Y28822000D01*
X43806186Y28775667D01*
X43892746Y28668913D01*
X43951130Y28622580D01*
X43995428Y28606457D01*
X44069936Y28604421D01*
X44130356Y28632596D01*
X44176690Y28690981D01*
X44192813Y28735278D01*
X44194848Y28809786D01*
X44124412Y28960837D01*
X44051940Y29037381D01*
X43983539Y29262940D02*
X43278687Y29118158D01*
X43675492Y29450309D01*
X43165989Y29359841D01*
X43729968Y29806725D01*
X43560921Y30169248D02*
X43532746Y30229668D01*
X43474361Y30276001D01*
X43430064Y30292124D01*
X43355556Y30294160D01*
X43220628Y30268021D01*
X43069577Y30197585D01*
X42962823Y30111026D01*
X42916490Y30052641D01*
X42900367Y30008343D01*
X42898331Y29933835D01*
X42926505Y29873415D01*
X42984890Y29827082D01*
X43029188Y29810959D01*
X43103696Y29808923D01*
X43238624Y29835062D01*
X43389675Y29905498D01*
X43496429Y29992058D01*
X43542762Y30050442D01*
X43558885Y30094740D01*
X43560921Y30169248D01*
X42761529Y30384954D02*
X42717232Y30401077D01*
X42701109Y30356779D01*
X42745407Y30340656D01*
X42761529Y30384954D01*
X42701109Y30356779D01*
X43093842Y30539914D02*
X43049545Y30556037D01*
X43033422Y30511739D01*
X43077719Y30495616D01*
X43093842Y30539914D01*
X43033422Y30511739D01*
X43148318Y30896330D02*
X43164441Y30940627D01*
X43166477Y31015135D01*
X43096041Y31166186D01*
X43037656Y31212520D01*
X42993358Y31228643D01*
X42918851Y31230678D01*
X42858430Y31202504D01*
X42781887Y31130032D01*
X42588411Y30598461D01*
X42405276Y30991195D01*
X60911037Y36459764D02*
X60838565Y36536308D01*
X60768129Y36687359D01*
X60770164Y36761867D01*
X60786287Y36806165D01*
X60832621Y36864549D01*
X60893041Y36892724D01*
X60967549Y36890688D01*
X61011846Y36874565D01*
X61070231Y36828232D01*
X61156791Y36721478D01*
X61215175Y36675145D01*
X61259473Y36659022D01*
X61333981Y36656986D01*
X61394401Y36685161D01*
X61440735Y36743546D01*
X61456858Y36787843D01*
X61458893Y36862351D01*
X61388457Y37013402D01*
X61315985Y37089946D01*
X61247584Y37315505D02*
X60542732Y37170723D01*
X60939537Y37502874D01*
X60430034Y37412406D01*
X60994013Y37859290D01*
X60824966Y38221813D02*
X60796791Y38282233D01*
X60738406Y38328566D01*
X60694109Y38344689D01*
X60619601Y38346725D01*
X60484673Y38320586D01*
X60333622Y38250150D01*
X60226868Y38163591D01*
X60180535Y38105206D01*
X60164412Y38060908D01*
X60162376Y37986400D01*
X60190550Y37925980D01*
X60248935Y37879647D01*
X60293233Y37863524D01*
X60367741Y37861488D01*
X60502669Y37887627D01*
X60653720Y37958063D01*
X60760474Y38044623D01*
X60806807Y38103007D01*
X60822930Y38147305D01*
X60824966Y38221813D01*
X60025574Y38437519D02*
X59981277Y38453642D01*
X59965154Y38409344D01*
X60009452Y38393221D01*
X60025574Y38437519D01*
X59965154Y38409344D01*
X60357887Y38592479D02*
X60313590Y38608602D01*
X60297467Y38564304D01*
X60341764Y38548181D01*
X60357887Y38592479D01*
X60297467Y38564304D01*
X60486871Y38946859D02*
X60303737Y39339592D01*
X60160665Y39015422D01*
X60118404Y39106053D01*
X60060019Y39152386D01*
X60015721Y39168509D01*
X59941214Y39170545D01*
X59790162Y39100109D01*
X59743829Y39041724D01*
X59727706Y38997426D01*
X59725670Y38922919D01*
X59810194Y38741657D01*
X59868579Y38695324D01*
X59912876Y38679201D01*
X31290060Y52360139D02*
X31213516Y52287667D01*
X31062465Y52217231D01*
X30987957Y52219266D01*
X30943659Y52235389D01*
X30885275Y52281723D01*
X30857100Y52342143D01*
X30859136Y52416651D01*
X30875259Y52460948D01*
X30921592Y52519333D01*
X31028346Y52605893D01*
X31074679Y52664277D01*
X31090802Y52708575D01*
X31092838Y52783083D01*
X31064663Y52843503D01*
X31006278Y52889837D01*
X30961981Y52905960D01*
X30887473Y52907995D01*
X30736422Y52837559D01*
X30659878Y52765087D01*
X30434319Y52696686D02*
X30579101Y51991834D01*
X30246950Y52388639D01*
X30337418Y51879136D01*
X29890534Y52443115D01*
X29528011Y52274068D02*
X29467591Y52245893D01*
X29421258Y52187508D01*
X29405135Y52143211D01*
X29403099Y52068703D01*
X29429238Y51933775D01*
X29499674Y51782724D01*
X29586233Y51675970D01*
X29644618Y51629637D01*
X29688916Y51613514D01*
X29763424Y51611478D01*
X29823844Y51639652D01*
X29870177Y51698037D01*
X29886300Y51742335D01*
X29888336Y51816843D01*
X29862197Y51951771D01*
X29791761Y52102822D01*
X29705201Y52209576D01*
X29646817Y52255909D01*
X29602519Y52272032D01*
X29528011Y52274068D01*
X29312305Y51474676D02*
X29296182Y51430379D01*
X29340480Y51414256D01*
X29356603Y51458554D01*
X29312305Y51474676D01*
X29340480Y51414256D01*
X29157345Y51806989D02*
X29141222Y51762692D01*
X29185520Y51746569D01*
X29201643Y51790866D01*
X29157345Y51806989D01*
X29185520Y51746569D01*
X28440442Y51766926D02*
X28742545Y51907799D01*
X28913628Y51619783D01*
X28869330Y51635906D01*
X28794822Y51637942D01*
X28643771Y51567506D01*
X28597438Y51509121D01*
X28581315Y51464823D01*
X28579279Y51390316D01*
X28649715Y51239264D01*
X28708100Y51192931D01*
X28752398Y51176808D01*
X28826905Y51174772D01*
X28977957Y51245209D01*
X29024290Y51303593D01*
X29040413Y51347891D01*
X14025804Y44309685D02*
X13949260Y44237213D01*
X13798209Y44166777D01*
X13723701Y44168812D01*
X13679403Y44184935D01*
X13621019Y44231269D01*
X13592844Y44291689D01*
X13594880Y44366197D01*
X13611003Y44410494D01*
X13657336Y44468879D01*
X13764090Y44555439D01*
X13810423Y44613823D01*
X13826546Y44658121D01*
X13828582Y44732629D01*
X13800407Y44793049D01*
X13742022Y44839383D01*
X13697725Y44855506D01*
X13623217Y44857541D01*
X13472166Y44787105D01*
X13395622Y44714633D01*
X13170063Y44646232D02*
X13314845Y43941380D01*
X12982694Y44338185D01*
X13073162Y43828682D01*
X12626278Y44392661D01*
X12263755Y44223614D02*
X12203335Y44195439D01*
X12157002Y44137054D01*
X12140879Y44092757D01*
X12138843Y44018249D01*
X12164982Y43883321D01*
X12235418Y43732270D01*
X12321977Y43625516D01*
X12380362Y43579183D01*
X12424660Y43563060D01*
X12499168Y43561024D01*
X12559588Y43589198D01*
X12605921Y43647583D01*
X12622044Y43691881D01*
X12624080Y43766389D01*
X12597941Y43901317D01*
X12527505Y44052368D01*
X12440945Y44159122D01*
X12382561Y44205455D01*
X12338263Y44221578D01*
X12263755Y44223614D01*
X12048049Y43424222D02*
X12031926Y43379925D01*
X12076224Y43363802D01*
X12092347Y43408100D01*
X12048049Y43424222D01*
X12076224Y43363802D01*
X11893089Y43756535D02*
X11876966Y43712238D01*
X11921264Y43696115D01*
X11937387Y43740412D01*
X11893089Y43756535D01*
X11921264Y43696115D01*
X11206396Y43730559D02*
X11327237Y43786908D01*
X11401745Y43784873D01*
X11446043Y43768750D01*
X11548725Y43706293D01*
X11635284Y43599540D01*
X11747982Y43357858D01*
X11745947Y43283350D01*
X11729824Y43239052D01*
X11683491Y43180667D01*
X11562649Y43124318D01*
X11488142Y43126354D01*
X11443844Y43142477D01*
X11385459Y43188810D01*
X11315023Y43339862D01*
X11317059Y43414369D01*
X11333182Y43458667D01*
X11379515Y43517052D01*
X11500356Y43573401D01*
X11574864Y43571365D01*
X11619161Y43555242D01*
X11677546Y43508909D01*
D17*
X164581720Y145863753D02*
X164581720Y148911753D01*
X163735054Y146734610D01*
X162888387Y148911753D01*
X162888387Y145863753D01*
X160227435Y146154039D02*
X160348387Y146008896D01*
X160711244Y145863753D01*
X160953149Y145863753D01*
X161316006Y146008896D01*
X161557911Y146299182D01*
X161678863Y146589468D01*
X161799815Y147170039D01*
X161799815Y147605468D01*
X161678863Y148186039D01*
X161557911Y148476325D01*
X161316006Y148766610D01*
X160953149Y148911753D01*
X160711244Y148911753D01*
X160348387Y148766610D01*
X160227435Y148621468D01*
X159138863Y145863753D02*
X159138863Y148911753D01*
X158171244Y148911753D01*
X157929339Y148766610D01*
X157808387Y148621468D01*
X157687435Y148331182D01*
X157687435Y147895753D01*
X157808387Y147605468D01*
X157929339Y147460325D01*
X158171244Y147315182D01*
X159138863Y147315182D01*
X156719815Y148621468D02*
X156598863Y148766610D01*
X156356958Y148911753D01*
X155752196Y148911753D01*
X155510292Y148766610D01*
X155389339Y148621468D01*
X155268387Y148331182D01*
X155268387Y148040896D01*
X155389339Y147605468D01*
X156840768Y145863753D01*
X155268387Y145863753D01*
X154421720Y148911753D02*
X152849339Y148911753D01*
X153696006Y147750610D01*
X153333149Y147750610D01*
X153091244Y147605468D01*
X152970292Y147460325D01*
X152849339Y147170039D01*
X152849339Y146444325D01*
X152970292Y146154039D01*
X153091244Y146008896D01*
X153333149Y145863753D01*
X154058863Y145863753D01*
X154300768Y146008896D01*
X154421720Y146154039D01*
X151276958Y148911753D02*
X151035054Y148911753D01*
X150793149Y148766610D01*
X150672196Y148621468D01*
X150551244Y148331182D01*
X150430292Y147750610D01*
X150430292Y147024896D01*
X150551244Y146444325D01*
X150672196Y146154039D01*
X150793149Y146008896D01*
X151035054Y145863753D01*
X151276958Y145863753D01*
X151518863Y146008896D01*
X151639815Y146154039D01*
X151760768Y146444325D01*
X151881720Y147024896D01*
X151881720Y147750610D01*
X151760768Y148331182D01*
X151639815Y148621468D01*
X151518863Y148766610D01*
X151276958Y148911753D01*
X148011244Y145863753D02*
X149462673Y145863753D01*
X148736958Y145863753D02*
X148736958Y148911753D01*
X148978863Y148476325D01*
X149220768Y148186039D01*
X149462673Y148040896D01*
X146559815Y147605468D02*
X146801720Y147750610D01*
X146922673Y147895753D01*
X147043625Y148186039D01*
X147043625Y148331182D01*
X146922673Y148621468D01*
X146801720Y148766610D01*
X146559815Y148911753D01*
X146076006Y148911753D01*
X145834101Y148766610D01*
X145713149Y148621468D01*
X145592196Y148331182D01*
X145592196Y148186039D01*
X145713149Y147895753D01*
X145834101Y147750610D01*
X146076006Y147605468D01*
X146559815Y147605468D01*
X146801720Y147460325D01*
X146922673Y147315182D01*
X147043625Y147024896D01*
X147043625Y146444325D01*
X146922673Y146154039D01*
X146801720Y146008896D01*
X146559815Y145863753D01*
X146076006Y145863753D01*
X145834101Y146008896D01*
X145713149Y146154039D01*
X145592196Y146444325D01*
X145592196Y147024896D01*
X145713149Y147315182D01*
X145834101Y147460325D01*
X146076006Y147605468D01*
M02*
